<?xml version="1.0" encoding="UTF-8" standalone="no"?><svg xmlns="http://www.w3.org/2000/svg" xmlns:xlink="http://www.w3.org/1999/xlink" contentStyleType="text/css" height="555px" preserveAspectRatio="none" style="width:705px;height:555px;background:#FFFFFF;" version="1.1" viewBox="0 0 705 555" width="705px" zoomAndPan="magnify"><defs/><g><!--MD5=[3ce68ee0e93b8a446c329c1231592062]
class DataContainerHolder--><g id="elem_DataContainerHolder"><rect codeLine="1" fill="#F1F1F1" height="96.8906" id="DataContainerHolder" rx="2.5" ry="2.5" style="stroke:#181818;stroke-width:0.5;" width="184" x="9" y="31.5"/><ellipse cx="24" cy="47.5" fill="#ADD1B2" rx="11" ry="11" style="stroke:#181818;stroke-width:1.0;"/><path d="M26.3438,43.1719 C25.4063,42.7344 24.8125,42.5938 23.9375,42.5938 C21.3125,42.5938 19.3125,44.6719 19.3125,47.3906 L19.3125,48.5156 C19.3125,51.0938 21.4219,52.9844 24.3125,52.9844 C25.5313,52.9844 26.6875,52.6875 27.4375,52.1406 C28.0156,51.7344 28.3438,51.2813 28.3438,50.8906 C28.3438,50.4375 27.9531,50.0469 27.4844,50.0469 C27.2656,50.0469 27.0625,50.125 26.875,50.3125 C26.4219,50.7969 26.4219,50.7969 26.2344,50.8906 C25.8125,51.1563 25.125,51.2813 24.3594,51.2813 C22.3125,51.2813 21.0156,50.1875 21.0156,48.4844 L21.0156,47.3906 C21.0156,45.6094 22.2656,44.2969 24,44.2969 C24.5781,44.2969 25.1875,44.4531 25.6563,44.7031 C26.1406,44.9844 26.3125,45.2031 26.4063,45.6094 C26.4688,46.0156 26.5,46.1406 26.6406,46.2656 C26.7813,46.4063 27.0156,46.5156 27.2344,46.5156 C27.5,46.5156 27.7656,46.375 27.9375,46.1563 C28.0469,46 28.0781,45.8125 28.0781,45.3906 L28.0781,43.9688 C28.0781,43.5313 28.0625,43.4063 27.9688,43.25 C27.8125,42.9844 27.5313,42.8438 27.2344,42.8438 C26.9375,42.8438 26.7344,42.9375 26.5156,43.25 L26.3438,43.1719 Z " fill="#000000"/><text fill="#000000" font-family="sans-serif" font-size="14" lengthAdjust="spacing" textLength="152" x="38" y="52.3467">DataContainerHolder</text><line style="stroke:#181818;stroke-width:0.5;" x1="10" x2="192" y1="63.5" y2="63.5"/><polygon fill="none" points="20,69.5,24,73.5,20,77.5,16,73.5" style="stroke:#B38D22;stroke-width:1.0;"/><text fill="#000000" font-family="sans-serif" font-size="14" lengthAdjust="spacing" textLength="90" x="29" y="80.4951">m_container</text><line style="stroke:#181818;stroke-width:0.5;" x1="10" x2="192" y1="87.7969" y2="87.7969"/><ellipse cx="20" cy="98.7969" fill="#84BE84" rx="3" ry="3" style="stroke:#038048;stroke-width:1.0;"/><text fill="#000000" font-family="sans-serif" font-size="14" lengthAdjust="spacing" textLength="38" x="29" y="104.792">size()</text><ellipse cx="20" cy="115.0938" fill="#84BE84" rx="3" ry="3" style="stroke:#038048;stroke-width:1.0;"/><text fill="#000000" font-family="sans-serif" font-size="14" lengthAdjust="spacing" textLength="42" x="29" y="121.0889">data()</text></g><!--MD5=[3b09399b8ba8967e742d64e36774e016]
class DataContainer--><g id="elem_DataContainer"><rect codeLine="7" fill="#F1F1F1" height="80.5938" id="DataContainer" rx="2.5" ry="2.5" style="stroke:#181818;stroke-width:0.5;" width="163" x="256.5" y="213"/><ellipse cx="283.2" cy="229" fill="#ADD1B2" rx="11" ry="11" style="stroke:#181818;stroke-width:1.0;"/><path d="M285.5438,224.6719 C284.6063,224.2344 284.0125,224.0938 283.1375,224.0938 C280.5125,224.0938 278.5125,226.1719 278.5125,228.8906 L278.5125,230.0156 C278.5125,232.5938 280.6219,234.4844 283.5125,234.4844 C284.7313,234.4844 285.8875,234.1875 286.6375,233.6406 C287.2156,233.2344 287.5438,232.7813 287.5438,232.3906 C287.5438,231.9375 287.1531,231.5469 286.6844,231.5469 C286.4656,231.5469 286.2625,231.625 286.075,231.8125 C285.6219,232.2969 285.6219,232.2969 285.4344,232.3906 C285.0125,232.6563 284.325,232.7813 283.5594,232.7813 C281.5125,232.7813 280.2156,231.6875 280.2156,229.9844 L280.2156,228.8906 C280.2156,227.1094 281.4656,225.7969 283.2,225.7969 C283.7781,225.7969 284.3875,225.9531 284.8563,226.2031 C285.3406,226.4844 285.5125,226.7031 285.6063,227.1094 C285.6688,227.5156 285.7,227.6406 285.8406,227.7656 C285.9813,227.9063 286.2156,228.0156 286.4344,228.0156 C286.7,228.0156 286.9656,227.875 287.1375,227.6563 C287.2469,227.5 287.2781,227.3125 287.2781,226.8906 L287.2781,225.4688 C287.2781,225.0313 287.2625,224.9063 287.1688,224.75 C287.0125,224.4844 286.7313,224.3438 286.4344,224.3438 C286.1375,224.3438 285.9344,224.4375 285.7156,224.75 L285.5438,224.6719 Z " fill="#000000"/><text fill="#000000" font-family="sans-serif" font-size="14" lengthAdjust="spacing" textLength="105" x="299.8" y="233.8467">DataContainer</text><line style="stroke:#181818;stroke-width:0.5;" x1="257.5" x2="418.5" y1="245" y2="245"/><line style="stroke:#181818;stroke-width:0.5;" x1="257.5" x2="418.5" y1="253" y2="253"/><ellipse cx="267.5" cy="264" fill="#84BE84" rx="3" ry="3" style="stroke:#038048;stroke-width:1.0;"/><text fill="#000000" font-family="sans-serif" font-size="14" lengthAdjust="spacing" textLength="79" x="276.5" y="269.9951">container()</text><ellipse cx="267.5" cy="280.2969" fill="#84BE84" rx="3" ry="3" style="stroke:#038048;stroke-width:1.0;"/><text fill="#000000" font-family="sans-serif" font-size="14" lengthAdjust="spacing" textLength="137" x="276.5" y="286.292">moveTo(container)</text></g><!--MD5=[d6c7210f6a405aef6716c1d411807fba]
class Raster--><g id="elem_Raster"><rect codeLine="12" fill="#F1F1F1" height="194.6719" id="Raster" rx="2.5" ry="2.5" style="stroke:#181818;stroke-width:0.5;" width="169" x="253.5" y="354"/><ellipse cx="310.25" cy="370" fill="#ADD1B2" rx="11" ry="11" style="stroke:#181818;stroke-width:1.0;"/><path d="M312.5938,365.6719 C311.6563,365.2344 311.0625,365.0938 310.1875,365.0938 C307.5625,365.0938 305.5625,367.1719 305.5625,369.8906 L305.5625,371.0156 C305.5625,373.5938 307.6719,375.4844 310.5625,375.4844 C311.7813,375.4844 312.9375,375.1875 313.6875,374.6406 C314.2656,374.2344 314.5938,373.7813 314.5938,373.3906 C314.5938,372.9375 314.2031,372.5469 313.7344,372.5469 C313.5156,372.5469 313.3125,372.625 313.125,372.8125 C312.6719,373.2969 312.6719,373.2969 312.4844,373.3906 C312.0625,373.6563 311.375,373.7813 310.6094,373.7813 C308.5625,373.7813 307.2656,372.6875 307.2656,370.9844 L307.2656,369.8906 C307.2656,368.1094 308.5156,366.7969 310.25,366.7969 C310.8281,366.7969 311.4375,366.9531 311.9063,367.2031 C312.3906,367.4844 312.5625,367.7031 312.6563,368.1094 C312.7188,368.5156 312.75,368.6406 312.8906,368.7656 C313.0313,368.9063 313.2656,369.0156 313.4844,369.0156 C313.75,369.0156 314.0156,368.875 314.1875,368.6563 C314.2969,368.5 314.3281,368.3125 314.3281,367.8906 L314.3281,366.4688 C314.3281,366.0313 314.3125,365.9063 314.2188,365.75 C314.0625,365.4844 313.7813,365.3438 313.4844,365.3438 C313.1875,365.3438 312.9844,365.4375 312.7656,365.75 L312.5938,365.6719 Z " fill="#000000"/><text fill="#000000" font-family="sans-serif" font-size="14" lengthAdjust="spacing" textLength="47" x="330.75" y="374.8467">Raster</text><line style="stroke:#181818;stroke-width:0.5;" x1="254.5" x2="421.5" y1="386" y2="386"/><rect fill="none" height="6" style="stroke:#C82930;stroke-width:1.0;" width="6" x="261.5" y="394"/><text fill="#000000" font-family="sans-serif" font-size="14" lengthAdjust="spacing" textLength="64" x="273.5" y="402.9951">m_shape</text><line style="stroke:#181818;stroke-width:0.5;" x1="254.5" x2="421.5" y1="410.2969" y2="410.2969"/><ellipse cx="264.5" cy="421.2969" fill="#84BE84" rx="3" ry="3" style="stroke:#038048;stroke-width:1.0;"/><text fill="#000000" font-family="sans-serif" font-size="14" lengthAdjust="spacing" textLength="53" x="273.5" y="427.292">shape()</text><ellipse cx="264.5" cy="437.5938" fill="#84BE84" rx="3" ry="3" style="stroke:#038048;stroke-width:1.0;"/><text fill="#000000" font-family="sans-serif" font-size="14" lengthAdjust="spacing" textLength="63" x="273.5" y="443.5889">domain()</text><ellipse cx="264.5" cy="453.8906" fill="#84BE84" rx="3" ry="3" style="stroke:#038048;stroke-width:1.0;"/><text fill="#000000" font-family="sans-serif" font-size="14" lengthAdjust="spacing" textLength="84" x="273.5" y="459.8857">dimension()</text><ellipse cx="264.5" cy="470.1875" fill="#84BE84" rx="3" ry="3" style="stroke:#038048;stroke-width:1.0;"/><text fill="#000000" font-family="sans-serif" font-size="14" lengthAdjust="spacing" textLength="84" x="273.5" y="476.1826">length(axis)</text><ellipse cx="264.5" cy="486.4844" fill="#84BE84" rx="3" ry="3" style="stroke:#038048;stroke-width:1.0;"/><text fill="#000000" font-family="sans-serif" font-size="14" lengthAdjust="spacing" textLength="143" x="273.5" y="492.4795">operator[](position)</text><ellipse cx="264.5" cy="502.7813" fill="#84BE84" rx="3" ry="3" style="stroke:#038048;stroke-width:1.0;"/><text fill="#000000" font-family="sans-serif" font-size="14" lengthAdjust="spacing" textLength="84" x="273.5" y="508.7764">at(position)</text><ellipse cx="264.5" cy="519.0781" fill="#84BE84" rx="3" ry="3" style="stroke:#038048;stroke-width:1.0;"/><text fill="#000000" font-family="sans-serif" font-size="14" lengthAdjust="spacing" textLength="143" x="273.5" y="525.0732">section(front, back)</text><ellipse cx="264.5" cy="535.375" fill="#84BE84" rx="3" ry="3" style="stroke:#038048;stroke-width:1.0;"/><text fill="#000000" font-family="sans-serif" font-size="14" lengthAdjust="spacing" textLength="102" x="273.5" y="541.3701">section(index)</text></g><!--MD5=[98de1fd5f791a5eb965405ed9bc47427]
class ContiguousContainerMixin--><g id="elem_ContiguousContainerMixin"><rect codeLine="24" fill="#F1F1F1" height="145.7813" id="ContiguousContainerMixin" rx="2.5" ry="2.5" style="stroke:#181818;stroke-width:0.5;" width="220" x="228" y="7"/><ellipse cx="243" cy="23" fill="#ADD1B2" rx="11" ry="11" style="stroke:#181818;stroke-width:1.0;"/><path d="M245.3438,18.6719 C244.4063,18.2344 243.8125,18.0938 242.9375,18.0938 C240.3125,18.0938 238.3125,20.1719 238.3125,22.8906 L238.3125,24.0156 C238.3125,26.5938 240.4219,28.4844 243.3125,28.4844 C244.5313,28.4844 245.6875,28.1875 246.4375,27.6406 C247.0156,27.2344 247.3438,26.7813 247.3438,26.3906 C247.3438,25.9375 246.9531,25.5469 246.4844,25.5469 C246.2656,25.5469 246.0625,25.625 245.875,25.8125 C245.4219,26.2969 245.4219,26.2969 245.2344,26.3906 C244.8125,26.6563 244.125,26.7813 243.3594,26.7813 C241.3125,26.7813 240.0156,25.6875 240.0156,23.9844 L240.0156,22.8906 C240.0156,21.1094 241.2656,19.7969 243,19.7969 C243.5781,19.7969 244.1875,19.9531 244.6563,20.2031 C245.1406,20.4844 245.3125,20.7031 245.4063,21.1094 C245.4688,21.5156 245.5,21.6406 245.6406,21.7656 C245.7813,21.9063 246.0156,22.0156 246.2344,22.0156 C246.5,22.0156 246.7656,21.875 246.9375,21.6563 C247.0469,21.5 247.0781,21.3125 247.0781,20.8906 L247.0781,19.4688 C247.0781,19.0313 247.0625,18.9063 246.9688,18.75 C246.8125,18.4844 246.5313,18.3438 246.2344,18.3438 C245.9375,18.3438 245.7344,18.4375 245.5156,18.75 L245.3438,18.6719 Z " fill="#000000"/><text fill="#000000" font-family="sans-serif" font-size="14" lengthAdjust="spacing" textLength="188" x="257" y="27.8467">ContiguousContainerMixin</text><line style="stroke:#181818;stroke-width:0.5;" x1="229" x2="447" y1="39" y2="39"/><line style="stroke:#181818;stroke-width:0.5;" x1="229" x2="447" y1="47" y2="47"/><ellipse cx="239" cy="58" fill="#84BE84" rx="3" ry="3" style="stroke:#038048;stroke-width:1.0;"/><text fill="#000000" font-family="sans-serif" font-size="14" lengthAdjust="spacing" textLength="58" x="248" y="63.9951">empty()</text><ellipse cx="239" cy="74.2969" fill="#84BE84" rx="3" ry="3" style="stroke:#038048;stroke-width:1.0;"/><text fill="#000000" font-family="sans-serif" font-size="14" lengthAdjust="spacing" textLength="123" x="248" y="80.292">operator[](index)</text><ellipse cx="239" cy="90.5938" fill="#84BE84" rx="3" ry="3" style="stroke:#038048;stroke-width:1.0;"/><text fill="#000000" font-family="sans-serif" font-size="14" lengthAdjust="spacing" textLength="51" x="248" y="96.5889">begin()</text><ellipse cx="239" cy="106.8906" fill="#84BE84" rx="3" ry="3" style="stroke:#038048;stroke-width:1.0;"/><text fill="#000000" font-family="sans-serif" font-size="14" lengthAdjust="spacing" textLength="37" x="248" y="112.8857">end()</text><ellipse cx="239" cy="123.1875" fill="#84BE84" rx="3" ry="3" style="stroke:#038048;stroke-width:1.0;"/><text fill="#000000" font-family="sans-serif" font-size="14" lengthAdjust="spacing" textLength="96" x="248" y="129.1826">operator==()</text><ellipse cx="239" cy="139.4844" fill="#84BE84" rx="3" ry="3" style="stroke:#038048;stroke-width:1.0;"/><text fill="#000000" font-family="sans-serif" font-size="14" lengthAdjust="spacing" textLength="90" x="248" y="145.4795">operator!=()</text></g><!--MD5=[9a4a11be41345d46d3fe9d4dce0d40f8]
class VectorArithmeticMixin--><g id="elem_VectorArithmeticMixin"><rect codeLine="33" fill="#F1F1F1" height="145.7813" id="VectorArithmeticMixin" rx="2.5" ry="2.5" style="stroke:#181818;stroke-width:0.5;" width="215" x="483.5" y="7"/><ellipse cx="507.05" cy="23" fill="#ADD1B2" rx="11" ry="11" style="stroke:#181818;stroke-width:1.0;"/><path d="M509.3938,18.6719 C508.4563,18.2344 507.8625,18.0938 506.9875,18.0938 C504.3625,18.0938 502.3625,20.1719 502.3625,22.8906 L502.3625,24.0156 C502.3625,26.5938 504.4719,28.4844 507.3625,28.4844 C508.5813,28.4844 509.7375,28.1875 510.4875,27.6406 C511.0656,27.2344 511.3938,26.7813 511.3938,26.3906 C511.3938,25.9375 511.0031,25.5469 510.5344,25.5469 C510.3156,25.5469 510.1125,25.625 509.925,25.8125 C509.4719,26.2969 509.4719,26.2969 509.2844,26.3906 C508.8625,26.6563 508.175,26.7813 507.4094,26.7813 C505.3625,26.7813 504.0656,25.6875 504.0656,23.9844 L504.0656,22.8906 C504.0656,21.1094 505.3156,19.7969 507.05,19.7969 C507.6281,19.7969 508.2375,19.9531 508.7063,20.2031 C509.1906,20.4844 509.3625,20.7031 509.4563,21.1094 C509.5188,21.5156 509.55,21.6406 509.6906,21.7656 C509.8313,21.9063 510.0656,22.0156 510.2844,22.0156 C510.55,22.0156 510.8156,21.875 510.9875,21.6563 C511.0969,21.5 511.1281,21.3125 511.1281,20.8906 L511.1281,19.4688 C511.1281,19.0313 511.1125,18.9063 511.0188,18.75 C510.8625,18.4844 510.5813,18.3438 510.2844,18.3438 C509.9875,18.3438 509.7844,18.4375 509.5656,18.75 L509.3938,18.6719 Z " fill="#000000"/><text fill="#000000" font-family="sans-serif" font-size="14" lengthAdjust="spacing" textLength="164" x="522.95" y="27.8467">VectorArithmeticMixin</text><line style="stroke:#181818;stroke-width:0.5;" x1="484.5" x2="697.5" y1="39" y2="39"/><line style="stroke:#181818;stroke-width:0.5;" x1="484.5" x2="697.5" y1="47" y2="47"/><ellipse cx="494.5" cy="58" fill="#84BE84" rx="3" ry="3" style="stroke:#038048;stroke-width:1.0;"/><text fill="#000000" font-family="sans-serif" font-size="14" lengthAdjust="spacing" textLength="118" x="503.5" y="63.9951">operator+=(rhs)</text><ellipse cx="494.5" cy="74.2969" fill="#84BE84" rx="3" ry="3" style="stroke:#038048;stroke-width:1.0;"/><text fill="#000000" font-family="sans-serif" font-size="14" lengthAdjust="spacing" textLength="113" x="503.5" y="80.292">operator-=(rhs)</text><ellipse cx="494.5" cy="90.5938" fill="#84BE84" rx="3" ry="3" style="stroke:#038048;stroke-width:1.0;"/><text fill="#000000" font-family="sans-serif" font-size="14" lengthAdjust="spacing" textLength="114" x="503.5" y="96.5889">operator*=(rhs)</text><ellipse cx="494.5" cy="106.8906" fill="#84BE84" rx="3" ry="3" style="stroke:#038048;stroke-width:1.0;"/><text fill="#000000" font-family="sans-serif" font-size="14" lengthAdjust="spacing" textLength="112" x="503.5" y="112.8857">operator/=(rhs)</text><ellipse cx="494.5" cy="123.1875" fill="#84BE84" rx="3" ry="3" style="stroke:#038048;stroke-width:1.0;"/><text fill="#000000" font-family="sans-serif" font-size="14" lengthAdjust="spacing" textLength="189" x="503.5" y="129.1826">generate(function, args...)</text><ellipse cx="494.5" cy="139.4844" fill="#84BE84" rx="3" ry="3" style="stroke:#038048;stroke-width:1.0;"/><text fill="#000000" font-family="sans-serif" font-size="14" lengthAdjust="spacing" textLength="163" x="503.5" y="145.4795">apply(function, args...)</text></g><!--MD5=[fbc29ac5c9242f63c38a3cc1544e1374]
reverse link ContiguousContainerMixin to DataContainer--><g id="link_ContiguousContainerMixin_DataContainer"><path codeLine="42" d="M338,173.408 C338,187.179 338,200.719 338,212.597 " fill="none" id="ContiguousContainerMixin-backto-DataContainer" style="stroke:#181818;stroke-width:1.0;"/><polygon fill="none" points="331,173.234,338,153.234,345,173.234,331,173.234" style="stroke:#181818;stroke-width:1.0;"/></g><!--MD5=[b1737c31697afd24e19f1cb037f73cc2]
reverse link VectorArithmeticMixin to DataContainer--><g id="link_VectorArithmeticMixin_DataContainer"><path codeLine="43" d="M467.739,164.554 C442.884,181.403 417.861,198.365 396.514,212.836 " fill="none" id="VectorArithmeticMixin-backto-DataContainer" style="stroke:#181818;stroke-width:1.0;"/><polygon fill="none" points="463.956,158.662,484.438,153.234,471.811,170.251,463.956,158.662" style="stroke:#181818;stroke-width:1.0;"/></g><!--MD5=[ede4874bd78e00fa115eca2401c74dfd]
reverse link DataContainerHolder to DataContainer--><g id="link_DataContainerHolder_DataContainer"><path codeLine="44" d="M183.097,140.408 C216.267,164.411 253.652,191.463 283.383,212.978 " fill="none" id="DataContainerHolder-backto-DataContainer" style="stroke:#181818;stroke-width:1.0;"/><polygon fill="none" points="178.802,145.94,166.703,128.545,187.009,134.598,178.802,145.94" style="stroke:#181818;stroke-width:1.0;"/></g><!--MD5=[c184a1a033af6250647d84cc50565c44]
reverse link DataContainer to Raster--><g id="link_DataContainer_Raster"><path codeLine="45" d="M338,314.618 C338,327.037 338,340.414 338,353.761 " fill="none" id="DataContainer-backto-Raster" style="stroke:#181818;stroke-width:1.0;"/><polygon fill="none" points="331,314.164,338,294.164,345,314.163,331,314.164" style="stroke:#181818;stroke-width:1.0;"/></g><!--MD5=[d031e48843b7275cab52f9cb36f67f25]
@startuml
class DataContainerHolder {
# m_container
+ size()
+ data()
}

class DataContainer {
+ container()
+ moveTo(container)
}

class Raster {
- m_shape
+ shape()
+ domain()
+ dimension()
+ length(axis)
+ operator[](position)
+ at(position)
+ section(front, back)
+ section(index)
}

class ContiguousContainerMixin {
+ empty()
+ operator[](index)
+ begin()
+ end()
+ operator==()
+ operator!=()
}

class VectorArithmeticMixin {
+ operator+=(rhs)
+ operator-=(rhs)
+ operator*=(rhs)
+ operator/=(rhs)
+ generate(function, args...)
+ apply(function, args...)
}

ContiguousContainerMixin <|- - DataContainer
VectorArithmeticMixin <|- - DataContainer
DataContainerHolder <|- - DataContainer
DataContainer <|- - Raster
@enduml

PlantUML version 1.2022.5(Sat Apr 30 10:55:52 UTC 2022)
(GPL source distribution)
Java Runtime: Java(TM) SE Runtime Environment
JVM: Java HotSpot(TM) 64-Bit Server VM
Default Encoding: UTF-8
Language: en
Country: US
--></g></svg>