<?xml version="1.0" encoding="UTF-8" standalone="no"?><svg xmlns="http://www.w3.org/2000/svg" xmlns:xlink="http://www.w3.org/1999/xlink" contentStyleType="text/css" height="702px" preserveAspectRatio="none" style="width:716px;height:702px;background:#FFFFFF;" version="1.1" viewBox="0 0 716 702" width="716px" zoomAndPan="magnify"><defs/><g><!--MD5=[5e0c0212f7e8cc1b1690e85e5b6eebba]
class Holder--><g id="elem_Holder"><rect codeLine="1" fill="#F1F1F1" height="113.1875" id="Holder" rx="2.5" ry="2.5" style="stroke:#181818;stroke-width:0.5;" width="151" x="7" y="23.5"/><ellipse cx="54.75" cy="39.5" fill="#ADD1B2" rx="11" ry="11" style="stroke:#181818;stroke-width:1.0;"/><path d="M57.0938,35.1719 C56.1563,34.7344 55.5625,34.5938 54.6875,34.5938 C52.0625,34.5938 50.0625,36.6719 50.0625,39.3906 L50.0625,40.5156 C50.0625,43.0938 52.1719,44.9844 55.0625,44.9844 C56.2813,44.9844 57.4375,44.6875 58.1875,44.1406 C58.7656,43.7344 59.0938,43.2813 59.0938,42.8906 C59.0938,42.4375 58.7031,42.0469 58.2344,42.0469 C58.0156,42.0469 57.8125,42.125 57.625,42.3125 C57.1719,42.7969 57.1719,42.7969 56.9844,42.8906 C56.5625,43.1563 55.875,43.2813 55.1094,43.2813 C53.0625,43.2813 51.7656,42.1875 51.7656,40.4844 L51.7656,39.3906 C51.7656,37.6094 53.0156,36.2969 54.75,36.2969 C55.3281,36.2969 55.9375,36.4531 56.4063,36.7031 C56.8906,36.9844 57.0625,37.2031 57.1563,37.6094 C57.2188,38.0156 57.25,38.1406 57.3906,38.2656 C57.5313,38.4063 57.7656,38.5156 57.9844,38.5156 C58.25,38.5156 58.5156,38.375 58.6875,38.1563 C58.7969,38 58.8281,37.8125 58.8281,37.3906 L58.8281,35.9688 C58.8281,35.5313 58.8125,35.4063 58.7188,35.25 C58.5625,34.9844 58.2813,34.8438 57.9844,34.8438 C57.6875,34.8438 57.4844,34.9375 57.2656,35.25 L57.0938,35.1719 Z " fill="#000000"/><text fill="#000000" font-family="sans-serif" font-size="14" lengthAdjust="spacing" textLength="47" x="75.25" y="44.3467">Holder</text><line style="stroke:#181818;stroke-width:0.5;" x1="8" x2="157" y1="55.5" y2="55.5"/><line style="stroke:#181818;stroke-width:0.5;" x1="8" x2="157" y1="63.5" y2="63.5"/><ellipse cx="18" cy="74.5" fill="#84BE84" rx="3" ry="3" style="stroke:#038048;stroke-width:1.0;"/><text fill="#000000" font-family="sans-serif" font-size="14" lengthAdjust="spacing" textLength="125" x="27" y="80.4951">Holder(size, data)</text><ellipse cx="18" cy="90.7969" fill="#84BE84" rx="3" ry="3" style="stroke:#038048;stroke-width:1.0;"/><text fill="#000000" font-family="sans-serif" font-size="14" lengthAdjust="spacing" textLength="38" x="27" y="96.792">size()</text><ellipse cx="18" cy="107.0938" fill="#84BE84" rx="3" ry="3" style="stroke:#038048;stroke-width:1.0;"/><text fill="#000000" font-family="sans-serif" font-size="14" lengthAdjust="spacing" textLength="42" x="27" y="113.0889">data()</text><ellipse cx="18" cy="123.3906" fill="#84BE84" rx="3" ry="3" style="stroke:#038048;stroke-width:1.0;"/><text fill="#000000" font-family="sans-serif" font-size="14" lengthAdjust="spacing" textLength="15" x="27" y="129.3857">...</text></g><!--MD5=[3b09399b8ba8967e742d64e36774e016]
class DataContainer--><g id="elem_DataContainer"><rect codeLine="8" fill="#F1F1F1" height="178.375" id="DataContainer" rx="2.5" ry="2.5" style="stroke:#181818;stroke-width:0.5;" width="251" x="67" y="221.5"/><ellipse cx="135.75" cy="237.5" fill="#ADD1B2" rx="11" ry="11" style="stroke:#181818;stroke-width:1.0;"/><path d="M138.0938,233.1719 C137.1563,232.7344 136.5625,232.5938 135.6875,232.5938 C133.0625,232.5938 131.0625,234.6719 131.0625,237.3906 L131.0625,238.5156 C131.0625,241.0938 133.1719,242.9844 136.0625,242.9844 C137.2813,242.9844 138.4375,242.6875 139.1875,242.1406 C139.7656,241.7344 140.0938,241.2813 140.0938,240.8906 C140.0938,240.4375 139.7031,240.0469 139.2344,240.0469 C139.0156,240.0469 138.8125,240.125 138.625,240.3125 C138.1719,240.7969 138.1719,240.7969 137.9844,240.8906 C137.5625,241.1563 136.875,241.2813 136.1094,241.2813 C134.0625,241.2813 132.7656,240.1875 132.7656,238.4844 L132.7656,237.3906 C132.7656,235.6094 134.0156,234.2969 135.75,234.2969 C136.3281,234.2969 136.9375,234.4531 137.4063,234.7031 C137.8906,234.9844 138.0625,235.2031 138.1563,235.6094 C138.2188,236.0156 138.25,236.1406 138.3906,236.2656 C138.5313,236.4063 138.7656,236.5156 138.9844,236.5156 C139.25,236.5156 139.5156,236.375 139.6875,236.1563 C139.7969,236 139.8281,235.8125 139.8281,235.3906 L139.8281,233.9688 C139.8281,233.5313 139.8125,233.4063 139.7188,233.25 C139.5625,232.9844 139.2813,232.8438 138.9844,232.8438 C138.6875,232.8438 138.4844,232.9375 138.2656,233.25 L138.0938,233.1719 Z " fill="#000000"/><text fill="#000000" font-family="sans-serif" font-size="14" lengthAdjust="spacing" textLength="105" x="156.25" y="242.3467">DataContainer</text><line style="stroke:#181818;stroke-width:0.5;" x1="68" x2="317" y1="253.5" y2="253.5"/><line style="stroke:#181818;stroke-width:0.5;" x1="68" x2="317" y1="261.5" y2="261.5"/><ellipse cx="78" cy="272.5" fill="#84BE84" rx="3" ry="3" style="stroke:#038048;stroke-width:1.0;"/><text fill="#000000" font-family="sans-serif" font-size="14" lengthAdjust="spacing" textLength="196" x="87" y="278.4951">DataContainer(size, args...)</text><ellipse cx="78" cy="288.7969" fill="#84BE84" rx="3" ry="3" style="stroke:#038048;stroke-width:1.0;"/><text fill="#000000" font-family="sans-serif" font-size="14" lengthAdjust="spacing" textLength="212" x="87" y="294.792">DataContainer(values, args...)</text><ellipse cx="78" cy="305.0938" fill="#84BE84" rx="3" ry="3" style="stroke:#038048;stroke-width:1.0;"/><text fill="#000000" font-family="sans-serif" font-size="14" lengthAdjust="spacing" textLength="225" x="87" y="311.0889">DataContainer(iterable, args...)</text><ellipse cx="78" cy="321.3906" fill="#84BE84" rx="3" ry="3" style="stroke:#038048;stroke-width:1.0;"/><text fill="#000000" font-family="sans-serif" font-size="14" lengthAdjust="spacing" textLength="65" x="87" y="327.3857">fill(value)</text><ellipse cx="78" cy="337.6875" fill="#84BE84" rx="3" ry="3" style="stroke:#038048;stroke-width:1.0;"/><text fill="#000000" font-family="sans-serif" font-size="14" lengthAdjust="spacing" textLength="127" x="87" y="343.6826">range(min, step)</text><ellipse cx="78" cy="353.9844" fill="#84BE84" rx="3" ry="3" style="stroke:#038048;stroke-width:1.0;"/><text fill="#000000" font-family="sans-serif" font-size="14" lengthAdjust="spacing" textLength="134" x="87" y="359.9795">linspace(min, max)</text><ellipse cx="78" cy="370.2813" fill="#84BE84" rx="3" ry="3" style="stroke:#038048;stroke-width:1.0;"/><text fill="#000000" font-family="sans-serif" font-size="14" lengthAdjust="spacing" textLength="189" x="87" y="376.2764">generate(function, args...)</text><ellipse cx="78" cy="386.5781" fill="#84BE84" rx="3" ry="3" style="stroke:#038048;stroke-width:1.0;"/><text fill="#000000" font-family="sans-serif" font-size="14" lengthAdjust="spacing" textLength="163" x="87" y="392.5732">apply(function, args...)</text></g><!--MD5=[d6c7210f6a405aef6716c1d411807fba]
class Raster--><g id="elem_Raster"><rect codeLine="19" fill="#F1F1F1" height="227.2656" id="Raster" rx="2.5" ry="2.5" style="stroke:#181818;stroke-width:0.5;" width="244" x="304.5" y="468"/><ellipse cx="398.75" cy="484" fill="#ADD1B2" rx="11" ry="11" style="stroke:#181818;stroke-width:1.0;"/><path d="M401.0938,479.6719 C400.1563,479.2344 399.5625,479.0938 398.6875,479.0938 C396.0625,479.0938 394.0625,481.1719 394.0625,483.8906 L394.0625,485.0156 C394.0625,487.5938 396.1719,489.4844 399.0625,489.4844 C400.2813,489.4844 401.4375,489.1875 402.1875,488.6406 C402.7656,488.2344 403.0938,487.7813 403.0938,487.3906 C403.0938,486.9375 402.7031,486.5469 402.2344,486.5469 C402.0156,486.5469 401.8125,486.625 401.625,486.8125 C401.1719,487.2969 401.1719,487.2969 400.9844,487.3906 C400.5625,487.6563 399.875,487.7813 399.1094,487.7813 C397.0625,487.7813 395.7656,486.6875 395.7656,484.9844 L395.7656,483.8906 C395.7656,482.1094 397.0156,480.7969 398.75,480.7969 C399.3281,480.7969 399.9375,480.9531 400.4063,481.2031 C400.8906,481.4844 401.0625,481.7031 401.1563,482.1094 C401.2188,482.5156 401.25,482.6406 401.3906,482.7656 C401.5313,482.9063 401.7656,483.0156 401.9844,483.0156 C402.25,483.0156 402.5156,482.875 402.6875,482.6563 C402.7969,482.5 402.8281,482.3125 402.8281,481.8906 L402.8281,480.4688 C402.8281,480.0313 402.8125,479.9063 402.7188,479.75 C402.5625,479.4844 402.2813,479.3438 401.9844,479.3438 C401.6875,479.3438 401.4844,479.4375 401.2656,479.75 L401.0938,479.6719 Z " fill="#000000"/><text fill="#000000" font-family="sans-serif" font-size="14" lengthAdjust="spacing" textLength="47" x="419.25" y="488.8467">Raster</text><line style="stroke:#181818;stroke-width:0.5;" x1="305.5" x2="547.5" y1="500" y2="500"/><line style="stroke:#181818;stroke-width:0.5;" x1="305.5" x2="547.5" y1="508" y2="508"/><ellipse cx="315.5" cy="519" fill="#84BE84" rx="3" ry="3" style="stroke:#038048;stroke-width:1.0;"/><text fill="#000000" font-family="sans-serif" font-size="14" lengthAdjust="spacing" textLength="153" x="324.5" y="524.9951">Raster(shape, args...)</text><ellipse cx="315.5" cy="535.2969" fill="#84BE84" rx="3" ry="3" style="stroke:#038048;stroke-width:1.0;"/><text fill="#000000" font-family="sans-serif" font-size="14" lengthAdjust="spacing" textLength="205" x="324.5" y="541.292">Raster(shape, values, args...)</text><ellipse cx="315.5" cy="551.5938" fill="#84BE84" rx="3" ry="3" style="stroke:#038048;stroke-width:1.0;"/><text fill="#000000" font-family="sans-serif" font-size="14" lengthAdjust="spacing" textLength="218" x="324.5" y="557.5889">Raster(shape, iterable, args...)</text><ellipse cx="315.5" cy="567.8906" fill="#84BE84" rx="3" ry="3" style="stroke:#038048;stroke-width:1.0;"/><text fill="#000000" font-family="sans-serif" font-size="14" lengthAdjust="spacing" textLength="53" x="324.5" y="573.8857">shape()</text><ellipse cx="315.5" cy="584.1875" fill="#84BE84" rx="3" ry="3" style="stroke:#038048;stroke-width:1.0;"/><text fill="#000000" font-family="sans-serif" font-size="14" lengthAdjust="spacing" textLength="63" x="324.5" y="590.1826">domain()</text><ellipse cx="315.5" cy="600.4844" fill="#84BE84" rx="3" ry="3" style="stroke:#038048;stroke-width:1.0;"/><text fill="#000000" font-family="sans-serif" font-size="14" lengthAdjust="spacing" textLength="84" x="324.5" y="606.4795">dimension()</text><ellipse cx="315.5" cy="616.7813" fill="#84BE84" rx="3" ry="3" style="stroke:#038048;stroke-width:1.0;"/><text fill="#000000" font-family="sans-serif" font-size="14" lengthAdjust="spacing" textLength="84" x="324.5" y="622.7764">length(axis)</text><ellipse cx="315.5" cy="633.0781" fill="#84BE84" rx="3" ry="3" style="stroke:#038048;stroke-width:1.0;"/><text fill="#000000" font-family="sans-serif" font-size="14" lengthAdjust="spacing" textLength="143" x="324.5" y="639.0732">operator[](position)</text><ellipse cx="315.5" cy="649.375" fill="#84BE84" rx="3" ry="3" style="stroke:#038048;stroke-width:1.0;"/><text fill="#000000" font-family="sans-serif" font-size="14" lengthAdjust="spacing" textLength="84" x="324.5" y="655.3701">at(position)</text><ellipse cx="315.5" cy="665.6719" fill="#84BE84" rx="3" ry="3" style="stroke:#038048;stroke-width:1.0;"/><text fill="#000000" font-family="sans-serif" font-size="14" lengthAdjust="spacing" textLength="143" x="324.5" y="671.667">section(front, back)</text><ellipse cx="315.5" cy="681.9688" fill="#84BE84" rx="3" ry="3" style="stroke:#038048;stroke-width:1.0;"/><text fill="#000000" font-family="sans-serif" font-size="14" lengthAdjust="spacing" textLength="102" x="324.5" y="687.9639">section(index)</text></g><!--MD5=[98de1fd5f791a5eb965405ed9bc47427]
class ContiguousContainerMixin--><g id="elem_ContiguousContainerMixin"><rect codeLine="33" fill="#F1F1F1" height="145.7813" id="ContiguousContainerMixin" rx="2.5" ry="2.5" style="stroke:#181818;stroke-width:0.5;" width="220" x="193.5" y="7"/><ellipse cx="208.5" cy="23" fill="#ADD1B2" rx="11" ry="11" style="stroke:#181818;stroke-width:1.0;"/><path d="M210.8438,18.6719 C209.9063,18.2344 209.3125,18.0938 208.4375,18.0938 C205.8125,18.0938 203.8125,20.1719 203.8125,22.8906 L203.8125,24.0156 C203.8125,26.5938 205.9219,28.4844 208.8125,28.4844 C210.0313,28.4844 211.1875,28.1875 211.9375,27.6406 C212.5156,27.2344 212.8438,26.7813 212.8438,26.3906 C212.8438,25.9375 212.4531,25.5469 211.9844,25.5469 C211.7656,25.5469 211.5625,25.625 211.375,25.8125 C210.9219,26.2969 210.9219,26.2969 210.7344,26.3906 C210.3125,26.6563 209.625,26.7813 208.8594,26.7813 C206.8125,26.7813 205.5156,25.6875 205.5156,23.9844 L205.5156,22.8906 C205.5156,21.1094 206.7656,19.7969 208.5,19.7969 C209.0781,19.7969 209.6875,19.9531 210.1563,20.2031 C210.6406,20.4844 210.8125,20.7031 210.9063,21.1094 C210.9688,21.5156 211,21.6406 211.1406,21.7656 C211.2813,21.9063 211.5156,22.0156 211.7344,22.0156 C212,22.0156 212.2656,21.875 212.4375,21.6563 C212.5469,21.5 212.5781,21.3125 212.5781,20.8906 L212.5781,19.4688 C212.5781,19.0313 212.5625,18.9063 212.4688,18.75 C212.3125,18.4844 212.0313,18.3438 211.7344,18.3438 C211.4375,18.3438 211.2344,18.4375 211.0156,18.75 L210.8438,18.6719 Z " fill="#000000"/><text fill="#000000" font-family="sans-serif" font-size="14" lengthAdjust="spacing" textLength="188" x="222.5" y="27.8467">ContiguousContainerMixin</text><line style="stroke:#181818;stroke-width:0.5;" x1="194.5" x2="412.5" y1="39" y2="39"/><line style="stroke:#181818;stroke-width:0.5;" x1="194.5" x2="412.5" y1="47" y2="47"/><ellipse cx="204.5" cy="58" fill="#84BE84" rx="3" ry="3" style="stroke:#038048;stroke-width:1.0;"/><text fill="#000000" font-family="sans-serif" font-size="14" lengthAdjust="spacing" textLength="58" x="213.5" y="63.9951">empty()</text><ellipse cx="204.5" cy="74.2969" fill="#84BE84" rx="3" ry="3" style="stroke:#038048;stroke-width:1.0;"/><text fill="#000000" font-family="sans-serif" font-size="14" lengthAdjust="spacing" textLength="123" x="213.5" y="80.292">operator[](index)</text><ellipse cx="204.5" cy="90.5938" fill="#84BE84" rx="3" ry="3" style="stroke:#038048;stroke-width:1.0;"/><text fill="#000000" font-family="sans-serif" font-size="14" lengthAdjust="spacing" textLength="51" x="213.5" y="96.5889">begin()</text><ellipse cx="204.5" cy="106.8906" fill="#84BE84" rx="3" ry="3" style="stroke:#038048;stroke-width:1.0;"/><text fill="#000000" font-family="sans-serif" font-size="14" lengthAdjust="spacing" textLength="37" x="213.5" y="112.8857">end()</text><ellipse cx="204.5" cy="123.1875" fill="#84BE84" rx="3" ry="3" style="stroke:#038048;stroke-width:1.0;"/><text fill="#000000" font-family="sans-serif" font-size="14" lengthAdjust="spacing" textLength="96" x="213.5" y="129.1826">operator==()</text><ellipse cx="204.5" cy="139.4844" fill="#84BE84" rx="3" ry="3" style="stroke:#038048;stroke-width:1.0;"/><text fill="#000000" font-family="sans-serif" font-size="14" lengthAdjust="spacing" textLength="90" x="213.5" y="145.4795">operator!=()</text></g><!--MD5=[7ea5b70645eecf22a5e153194904c6e8]
class ArithmeticMixin--><g id="elem_ArithmeticMixin"><rect codeLine="42" fill="#F1F1F1" height="129.4844" id="ArithmeticMixin" rx="2.5" ry="2.5" style="stroke:#181818;stroke-width:0.5;" width="147" x="353" y="246"/><ellipse cx="368" cy="262" fill="#ADD1B2" rx="11" ry="11" style="stroke:#181818;stroke-width:1.0;"/><path d="M370.3438,257.6719 C369.4063,257.2344 368.8125,257.0938 367.9375,257.0938 C365.3125,257.0938 363.3125,259.1719 363.3125,261.8906 L363.3125,263.0156 C363.3125,265.5938 365.4219,267.4844 368.3125,267.4844 C369.5313,267.4844 370.6875,267.1875 371.4375,266.6406 C372.0156,266.2344 372.3438,265.7813 372.3438,265.3906 C372.3438,264.9375 371.9531,264.5469 371.4844,264.5469 C371.2656,264.5469 371.0625,264.625 370.875,264.8125 C370.4219,265.2969 370.4219,265.2969 370.2344,265.3906 C369.8125,265.6563 369.125,265.7813 368.3594,265.7813 C366.3125,265.7813 365.0156,264.6875 365.0156,262.9844 L365.0156,261.8906 C365.0156,260.1094 366.2656,258.7969 368,258.7969 C368.5781,258.7969 369.1875,258.9531 369.6563,259.2031 C370.1406,259.4844 370.3125,259.7031 370.4063,260.1094 C370.4688,260.5156 370.5,260.6406 370.6406,260.7656 C370.7813,260.9063 371.0156,261.0156 371.2344,261.0156 C371.5,261.0156 371.7656,260.875 371.9375,260.6563 C372.0469,260.5 372.0781,260.3125 372.0781,259.8906 L372.0781,258.4688 C372.0781,258.0313 372.0625,257.9063 371.9688,257.75 C371.8125,257.4844 371.5313,257.3438 371.2344,257.3438 C370.9375,257.3438 370.7344,257.4375 370.5156,257.75 L370.3438,257.6719 Z " fill="#000000"/><text fill="#000000" font-family="sans-serif" font-size="14" lengthAdjust="spacing" textLength="115" x="382" y="266.8467">ArithmeticMixin</text><line style="stroke:#181818;stroke-width:0.5;" x1="354" x2="499" y1="278" y2="278"/><line style="stroke:#181818;stroke-width:0.5;" x1="354" x2="499" y1="286" y2="286"/><ellipse cx="364" cy="297" fill="#84BE84" rx="3" ry="3" style="stroke:#038048;stroke-width:1.0;"/><text fill="#000000" font-family="sans-serif" font-size="14" lengthAdjust="spacing" textLength="118" x="373" y="302.9951">operator+=(rhs)</text><ellipse cx="364" cy="313.2969" fill="#84BE84" rx="3" ry="3" style="stroke:#038048;stroke-width:1.0;"/><text fill="#000000" font-family="sans-serif" font-size="14" lengthAdjust="spacing" textLength="113" x="373" y="319.292">operator-=(rhs)</text><ellipse cx="364" cy="329.5938" fill="#84BE84" rx="3" ry="3" style="stroke:#038048;stroke-width:1.0;"/><text fill="#000000" font-family="sans-serif" font-size="14" lengthAdjust="spacing" textLength="114" x="373" y="335.5889">operator*=(rhs)</text><ellipse cx="364" cy="345.8906" fill="#84BE84" rx="3" ry="3" style="stroke:#038048;stroke-width:1.0;"/><text fill="#000000" font-family="sans-serif" font-size="14" lengthAdjust="spacing" textLength="112" x="373" y="351.8857">operator/=(rhs)</text><ellipse cx="364" cy="362.1875" fill="#84BE84" rx="3" ry="3" style="stroke:#038048;stroke-width:1.0;"/><text fill="#000000" font-family="sans-serif" font-size="14" lengthAdjust="spacing" textLength="15" x="373" y="368.1826">...</text></g><!--MD5=[ab20313c583242bc3b454d7c1a4be869]
class MathFunctionsMixin--><g id="elem_MathFunctionsMixin"><rect codeLine="50" fill="#F1F1F1" height="194.6719" id="MathFunctionsMixin" rx="2.5" ry="2.5" style="stroke:#181818;stroke-width:0.5;" width="174" x="535.5" y="213"/><ellipse cx="550.5" cy="229" fill="#ADD1B2" rx="11" ry="11" style="stroke:#181818;stroke-width:1.0;"/><path d="M552.8438,224.6719 C551.9063,224.2344 551.3125,224.0938 550.4375,224.0938 C547.8125,224.0938 545.8125,226.1719 545.8125,228.8906 L545.8125,230.0156 C545.8125,232.5938 547.9219,234.4844 550.8125,234.4844 C552.0313,234.4844 553.1875,234.1875 553.9375,233.6406 C554.5156,233.2344 554.8438,232.7813 554.8438,232.3906 C554.8438,231.9375 554.4531,231.5469 553.9844,231.5469 C553.7656,231.5469 553.5625,231.625 553.375,231.8125 C552.9219,232.2969 552.9219,232.2969 552.7344,232.3906 C552.3125,232.6563 551.625,232.7813 550.8594,232.7813 C548.8125,232.7813 547.5156,231.6875 547.5156,229.9844 L547.5156,228.8906 C547.5156,227.1094 548.7656,225.7969 550.5,225.7969 C551.0781,225.7969 551.6875,225.9531 552.1563,226.2031 C552.6406,226.4844 552.8125,226.7031 552.9063,227.1094 C552.9688,227.5156 553,227.6406 553.1406,227.7656 C553.2813,227.9063 553.5156,228.0156 553.7344,228.0156 C554,228.0156 554.2656,227.875 554.4375,227.6563 C554.5469,227.5 554.5781,227.3125 554.5781,226.8906 L554.5781,225.4688 C554.5781,225.0313 554.5625,224.9063 554.4688,224.75 C554.3125,224.4844 554.0313,224.3438 553.7344,224.3438 C553.4375,224.3438 553.2344,224.4375 553.0156,224.75 L552.8438,224.6719 Z " fill="#000000"/><text fill="#000000" font-family="sans-serif" font-size="14" lengthAdjust="spacing" textLength="142" x="564.5" y="233.8467">MathFunctionsMixin</text><line style="stroke:#181818;stroke-width:0.5;" x1="536.5" x2="708.5" y1="245" y2="245"/><line style="stroke:#181818;stroke-width:0.5;" x1="536.5" x2="708.5" y1="253" y2="253"/><ellipse cx="546.5" cy="264" fill="#84BE84" rx="3" ry="3" style="stroke:#038048;stroke-width:1.0;"/><text fill="#000000" font-family="sans-serif" font-size="14" lengthAdjust="spacing" textLength="35" x="555.5" y="269.9951">abs()</text><ellipse cx="546.5" cy="280.2969" fill="#84BE84" rx="3" ry="3" style="stroke:#038048;stroke-width:1.0;"/><text fill="#000000" font-family="sans-serif" font-size="14" lengthAdjust="spacing" textLength="59" x="555.5" y="286.292">min(rhs)</text><ellipse cx="546.5" cy="296.5938" fill="#84BE84" rx="3" ry="3" style="stroke:#038048;stroke-width:1.0;"/><text fill="#000000" font-family="sans-serif" font-size="14" lengthAdjust="spacing" textLength="62" x="555.5" y="302.5889">max(rhs)</text><ellipse cx="546.5" cy="312.8906" fill="#84BE84" rx="3" ry="3" style="stroke:#038048;stroke-width:1.0;"/><text fill="#000000" font-family="sans-serif" font-size="14" lengthAdjust="spacing" textLength="30" x="555.5" y="318.8857">sin()</text><ellipse cx="546.5" cy="329.1875" fill="#84BE84" rx="3" ry="3" style="stroke:#038048;stroke-width:1.0;"/><text fill="#000000" font-family="sans-serif" font-size="14" lengthAdjust="spacing" textLength="34" x="555.5" y="335.1826">cos()</text><ellipse cx="546.5" cy="345.4844" fill="#84BE84" rx="3" ry="3" style="stroke:#038048;stroke-width:1.0;"/><text fill="#000000" font-family="sans-serif" font-size="14" lengthAdjust="spacing" textLength="37" x="555.5" y="351.4795">exp()</text><ellipse cx="546.5" cy="361.7813" fill="#84BE84" rx="3" ry="3" style="stroke:#038048;stroke-width:1.0;"/><text fill="#000000" font-family="sans-serif" font-size="14" lengthAdjust="spacing" textLength="32" x="555.5" y="367.7764">log()</text><ellipse cx="546.5" cy="378.0781" fill="#84BE84" rx="3" ry="3" style="stroke:#038048;stroke-width:1.0;"/><text fill="#000000" font-family="sans-serif" font-size="14" lengthAdjust="spacing" textLength="62" x="555.5" y="384.0732">pow(rhs)</text><ellipse cx="546.5" cy="394.375" fill="#84BE84" rx="3" ry="3" style="stroke:#038048;stroke-width:1.0;"/><text fill="#000000" font-family="sans-serif" font-size="14" lengthAdjust="spacing" textLength="15" x="555.5" y="400.3701">...</text></g><!--MD5=[fbc29ac5c9242f63c38a3cc1544e1374]
reverse link ContiguousContainerMixin to DataContainer--><g id="link_ContiguousContainerMixin_DataContainer"><path codeLine="62" d="M259.567,171.439 C251.604,187.832 243.308,204.909 235.376,221.238 " fill="none" id="ContiguousContainerMixin-backto-DataContainer" style="stroke:#181818;stroke-width:1.0;"/><polygon fill="none" points="253.343,168.23,268.379,153.299,265.936,174.347,253.343,168.23" style="stroke:#181818;stroke-width:1.0;"/></g><!--MD5=[e7bf3e49b8a7cf190ef7c6d1ff2ab488]
reverse link Holder to DataContainer--><g id="link_Holder_DataContainer"><path codeLine="63" d="M117.964,154.669 C128.213,175.958 139.501,199.407 150.126,221.477 " fill="none" id="Holder-backto-DataContainer" style="stroke:#181818;stroke-width:1.0;"/><polygon fill="none" points="111.636,157.662,109.268,136.605,124.251,151.589,111.636,157.662" style="stroke:#181818;stroke-width:1.0;"/></g><!--MD5=[c184a1a033af6250647d84cc50565c44]
reverse link DataContainer to Raster--><g id="link_DataContainer_Raster"><path codeLine="64" d="M282.434,414.886 C297.473,432.174 313.143,450.188 328.375,467.699 " fill="none" id="DataContainer-backto-Raster" style="stroke:#181818;stroke-width:1.0;"/><polygon fill="none" points="276.965,419.265,269.12,399.581,287.528,410.076,276.965,419.265" style="stroke:#181818;stroke-width:1.0;"/></g><!--MD5=[46f487ccbfe9d7912931f357666a6ef8]
reverse link ArithmeticMixin to Raster--><g id="link_ArithmeticMixin_Raster"><path codeLine="65" d="M426.5,395.58 C426.5,418.519 426.5,443.747 426.5,467.995 " fill="none" id="ArithmeticMixin-backto-Raster" style="stroke:#181818;stroke-width:1.0;"/><polygon fill="none" points="419.5,395.249,426.5,375.249,433.5,395.249,419.5,395.249" style="stroke:#181818;stroke-width:1.0;"/></g><!--MD5=[497cbc630d406faa48c4bbb7dcad4ea0]
reverse link MathFunctionsMixin to Raster--><g id="link_MathFunctionsMixin_Raster"><path codeLine="66" d="M539.997,424.731 C529.642,438.943 519.05,453.48 508.699,467.686 " fill="none" id="MathFunctionsMixin-backto-Raster" style="stroke:#181818;stroke-width:1.0;"/><polygon fill="none" points="534.581,420.277,552.016,408.235,545.896,428.522,534.581,420.277" style="stroke:#181818;stroke-width:1.0;"/></g><!--MD5=[4a4a1850c3bb7a0c5bdaf6f6b9f0d3b7]
@startuml
class Holder {
+ Holder(size, data)
+ size()
+ data()
+ {method}...
}

class DataContainer {
+ DataContainer(size, args...)
+ DataContainer(values, args...)
+ DataContainer(iterable, args...)
+ fill(value)
+ range(min, step)
+ linspace(min, max)
+ generate(function, args...)
+ apply(function, args...)
}

class Raster {
+ Raster(shape, args...)
+ Raster(shape, values, args...)
+ Raster(shape, iterable, args...)
+ shape()
+ domain()
+ dimension()
+ length(axis)
+ operator[](position)
+ at(position)
+ section(front, back)
+ section(index)
}

class ContiguousContainerMixin {
+ empty()
+ operator[](index)
+ begin()
+ end()
+ operator==()
+ operator!=()
}

class ArithmeticMixin {
+ operator+=(rhs)
+ operator-=(rhs)
+ operator*=(rhs)
+ operator/=(rhs)
+ {method}...
}

class MathFunctionsMixin {
+ abs()
+ min(rhs)
+ max(rhs)
+ sin()
+ cos()
+ exp()
+ log()
+ pow(rhs)
+ {method}...
}

ContiguousContainerMixin <|- - DataContainer
Holder <|- - DataContainer
DataContainer <|- - Raster
ArithmeticMixin <|- - Raster
MathFunctionsMixin <|- - Raster
@enduml

PlantUML version 1.2022.6beta5(Unknown compile time)
(GPL source distribution)
Java Runtime: Java(TM) SE Runtime Environment
JVM: Java HotSpot(TM) 64-Bit Server VM
Default Encoding: UTF-8
Language: en
Country: US
--></g></svg>