<?xml version="1.0" encoding="UTF-8" standalone="no"?><svg xmlns="http://www.w3.org/2000/svg" xmlns:xlink="http://www.w3.org/1999/xlink" contentStyleType="text/css" height="669px" preserveAspectRatio="none" style="width:662px;height:669px;background:#FFFFFF;" version="1.1" viewBox="0 0 662 669" width="662px" zoomAndPan="magnify"><defs/><g><!--MD5=[3ce68ee0e93b8a446c329c1231592062]
class DataContainerHolder--><g id="elem_DataContainerHolder"><rect codeLine="1" fill="#F1F1F1" height="96.8906" id="DataContainerHolder" rx="2.5" ry="2.5" style="stroke:#181818;stroke-width:0.5;" width="184" x="9" y="31.5"/><ellipse cx="24" cy="47.5" fill="#ADD1B2" rx="11" ry="11" style="stroke:#181818;stroke-width:1.0;"/><path d="M26.3438,43.1719 C25.4063,42.7344 24.8125,42.5938 23.9375,42.5938 C21.3125,42.5938 19.3125,44.6719 19.3125,47.3906 L19.3125,48.5156 C19.3125,51.0938 21.4219,52.9844 24.3125,52.9844 C25.5313,52.9844 26.6875,52.6875 27.4375,52.1406 C28.0156,51.7344 28.3438,51.2813 28.3438,50.8906 C28.3438,50.4375 27.9531,50.0469 27.4844,50.0469 C27.2656,50.0469 27.0625,50.125 26.875,50.3125 C26.4219,50.7969 26.4219,50.7969 26.2344,50.8906 C25.8125,51.1563 25.125,51.2813 24.3594,51.2813 C22.3125,51.2813 21.0156,50.1875 21.0156,48.4844 L21.0156,47.3906 C21.0156,45.6094 22.2656,44.2969 24,44.2969 C24.5781,44.2969 25.1875,44.4531 25.6563,44.7031 C26.1406,44.9844 26.3125,45.2031 26.4063,45.6094 C26.4688,46.0156 26.5,46.1406 26.6406,46.2656 C26.7813,46.4063 27.0156,46.5156 27.2344,46.5156 C27.5,46.5156 27.7656,46.375 27.9375,46.1563 C28.0469,46 28.0781,45.8125 28.0781,45.3906 L28.0781,43.9688 C28.0781,43.5313 28.0625,43.4063 27.9688,43.25 C27.8125,42.9844 27.5313,42.8438 27.2344,42.8438 C26.9375,42.8438 26.7344,42.9375 26.5156,43.25 L26.3438,43.1719 Z " fill="#000000"/><text fill="#000000" font-family="sans-serif" font-size="14" lengthAdjust="spacing" textLength="152" x="38" y="52.3467">DataContainerHolder</text><line style="stroke:#181818;stroke-width:0.5;" x1="10" x2="192" y1="63.5" y2="63.5"/><polygon fill="none" points="20,69.5,24,73.5,20,77.5,16,73.5" style="stroke:#B38D22;stroke-width:1.0;"/><text fill="#000000" font-family="sans-serif" font-size="14" lengthAdjust="spacing" textLength="90" x="29" y="80.4951">m_container</text><line style="stroke:#181818;stroke-width:0.5;" x1="10" x2="192" y1="87.7969" y2="87.7969"/><ellipse cx="20" cy="98.7969" fill="#84BE84" rx="3" ry="3" style="stroke:#038048;stroke-width:1.0;"/><text fill="#000000" font-family="sans-serif" font-size="14" lengthAdjust="spacing" textLength="38" x="29" y="104.792">size()</text><ellipse cx="20" cy="115.0938" fill="#84BE84" rx="3" ry="3" style="stroke:#038048;stroke-width:1.0;"/><text fill="#000000" font-family="sans-serif" font-size="14" lengthAdjust="spacing" textLength="42" x="29" y="121.0889">data()</text></g><!--MD5=[3b09399b8ba8967e742d64e36774e016]
class DataContainer--><g id="elem_DataContainer"><rect codeLine="7" fill="#F1F1F1" height="113.1875" id="DataContainer" rx="2.5" ry="2.5" style="stroke:#181818;stroke-width:0.5;" width="215" x="230.5" y="254"/><ellipse cx="281.25" cy="270" fill="#ADD1B2" rx="11" ry="11" style="stroke:#181818;stroke-width:1.0;"/><path d="M283.5938,265.6719 C282.6563,265.2344 282.0625,265.0938 281.1875,265.0938 C278.5625,265.0938 276.5625,267.1719 276.5625,269.8906 L276.5625,271.0156 C276.5625,273.5938 278.6719,275.4844 281.5625,275.4844 C282.7813,275.4844 283.9375,275.1875 284.6875,274.6406 C285.2656,274.2344 285.5938,273.7813 285.5938,273.3906 C285.5938,272.9375 285.2031,272.5469 284.7344,272.5469 C284.5156,272.5469 284.3125,272.625 284.125,272.8125 C283.6719,273.2969 283.6719,273.2969 283.4844,273.3906 C283.0625,273.6563 282.375,273.7813 281.6094,273.7813 C279.5625,273.7813 278.2656,272.6875 278.2656,270.9844 L278.2656,269.8906 C278.2656,268.1094 279.5156,266.7969 281.25,266.7969 C281.8281,266.7969 282.4375,266.9531 282.9063,267.2031 C283.3906,267.4844 283.5625,267.7031 283.6563,268.1094 C283.7188,268.5156 283.75,268.6406 283.8906,268.7656 C284.0313,268.9063 284.2656,269.0156 284.4844,269.0156 C284.75,269.0156 285.0156,268.875 285.1875,268.6563 C285.2969,268.5 285.3281,268.3125 285.3281,267.8906 L285.3281,266.4688 C285.3281,266.0313 285.3125,265.9063 285.2188,265.75 C285.0625,265.4844 284.7813,265.3438 284.4844,265.3438 C284.1875,265.3438 283.9844,265.4375 283.7656,265.75 L283.5938,265.6719 Z " fill="#000000"/><text fill="#000000" font-family="sans-serif" font-size="14" lengthAdjust="spacing" textLength="105" x="301.75" y="274.8467">DataContainer</text><line style="stroke:#181818;stroke-width:0.5;" x1="231.5" x2="444.5" y1="286" y2="286"/><line style="stroke:#181818;stroke-width:0.5;" x1="231.5" x2="444.5" y1="294" y2="294"/><ellipse cx="241.5" cy="305" fill="#84BE84" rx="3" ry="3" style="stroke:#038048;stroke-width:1.0;"/><text fill="#000000" font-family="sans-serif" font-size="14" lengthAdjust="spacing" textLength="189" x="250.5" y="310.9951">generate(function, args...)</text><ellipse cx="241.5" cy="321.2969" fill="#84BE84" rx="3" ry="3" style="stroke:#038048;stroke-width:1.0;"/><text fill="#000000" font-family="sans-serif" font-size="14" lengthAdjust="spacing" textLength="163" x="250.5" y="327.292">apply(function, args...)</text><ellipse cx="241.5" cy="337.5938" fill="#84BE84" rx="3" ry="3" style="stroke:#038048;stroke-width:1.0;"/><text fill="#000000" font-family="sans-serif" font-size="14" lengthAdjust="spacing" textLength="79" x="250.5" y="343.5889">container()</text><ellipse cx="241.5" cy="353.8906" fill="#84BE84" rx="3" ry="3" style="stroke:#038048;stroke-width:1.0;"/><text fill="#000000" font-family="sans-serif" font-size="14" lengthAdjust="spacing" textLength="137" x="250.5" y="359.8857">moveTo(container)</text></g><!--MD5=[d6c7210f6a405aef6716c1d411807fba]
class Raster--><g id="elem_Raster"><rect codeLine="14" fill="#F1F1F1" height="194.6719" id="Raster" rx="2.5" ry="2.5" style="stroke:#181818;stroke-width:0.5;" width="169" x="368.5" y="468"/><ellipse cx="425.25" cy="484" fill="#ADD1B2" rx="11" ry="11" style="stroke:#181818;stroke-width:1.0;"/><path d="M427.5938,479.6719 C426.6563,479.2344 426.0625,479.0938 425.1875,479.0938 C422.5625,479.0938 420.5625,481.1719 420.5625,483.8906 L420.5625,485.0156 C420.5625,487.5938 422.6719,489.4844 425.5625,489.4844 C426.7813,489.4844 427.9375,489.1875 428.6875,488.6406 C429.2656,488.2344 429.5938,487.7813 429.5938,487.3906 C429.5938,486.9375 429.2031,486.5469 428.7344,486.5469 C428.5156,486.5469 428.3125,486.625 428.125,486.8125 C427.6719,487.2969 427.6719,487.2969 427.4844,487.3906 C427.0625,487.6563 426.375,487.7813 425.6094,487.7813 C423.5625,487.7813 422.2656,486.6875 422.2656,484.9844 L422.2656,483.8906 C422.2656,482.1094 423.5156,480.7969 425.25,480.7969 C425.8281,480.7969 426.4375,480.9531 426.9063,481.2031 C427.3906,481.4844 427.5625,481.7031 427.6563,482.1094 C427.7188,482.5156 427.75,482.6406 427.8906,482.7656 C428.0313,482.9063 428.2656,483.0156 428.4844,483.0156 C428.75,483.0156 429.0156,482.875 429.1875,482.6563 C429.2969,482.5 429.3281,482.3125 429.3281,481.8906 L429.3281,480.4688 C429.3281,480.0313 429.3125,479.9063 429.2188,479.75 C429.0625,479.4844 428.7813,479.3438 428.4844,479.3438 C428.1875,479.3438 427.9844,479.4375 427.7656,479.75 L427.5938,479.6719 Z " fill="#000000"/><text fill="#000000" font-family="sans-serif" font-size="14" lengthAdjust="spacing" textLength="47" x="445.75" y="488.8467">Raster</text><line style="stroke:#181818;stroke-width:0.5;" x1="369.5" x2="536.5" y1="500" y2="500"/><rect fill="none" height="6" style="stroke:#C82930;stroke-width:1.0;" width="6" x="376.5" y="508"/><text fill="#000000" font-family="sans-serif" font-size="14" lengthAdjust="spacing" textLength="64" x="388.5" y="516.9951">m_shape</text><line style="stroke:#181818;stroke-width:0.5;" x1="369.5" x2="536.5" y1="524.2969" y2="524.2969"/><ellipse cx="379.5" cy="535.2969" fill="#84BE84" rx="3" ry="3" style="stroke:#038048;stroke-width:1.0;"/><text fill="#000000" font-family="sans-serif" font-size="14" lengthAdjust="spacing" textLength="53" x="388.5" y="541.292">shape()</text><ellipse cx="379.5" cy="551.5938" fill="#84BE84" rx="3" ry="3" style="stroke:#038048;stroke-width:1.0;"/><text fill="#000000" font-family="sans-serif" font-size="14" lengthAdjust="spacing" textLength="63" x="388.5" y="557.5889">domain()</text><ellipse cx="379.5" cy="567.8906" fill="#84BE84" rx="3" ry="3" style="stroke:#038048;stroke-width:1.0;"/><text fill="#000000" font-family="sans-serif" font-size="14" lengthAdjust="spacing" textLength="84" x="388.5" y="573.8857">dimension()</text><ellipse cx="379.5" cy="584.1875" fill="#84BE84" rx="3" ry="3" style="stroke:#038048;stroke-width:1.0;"/><text fill="#000000" font-family="sans-serif" font-size="14" lengthAdjust="spacing" textLength="84" x="388.5" y="590.1826">length(axis)</text><ellipse cx="379.5" cy="600.4844" fill="#84BE84" rx="3" ry="3" style="stroke:#038048;stroke-width:1.0;"/><text fill="#000000" font-family="sans-serif" font-size="14" lengthAdjust="spacing" textLength="143" x="388.5" y="606.4795">operator[](position)</text><ellipse cx="379.5" cy="616.7813" fill="#84BE84" rx="3" ry="3" style="stroke:#038048;stroke-width:1.0;"/><text fill="#000000" font-family="sans-serif" font-size="14" lengthAdjust="spacing" textLength="84" x="388.5" y="622.7764">at(position)</text><ellipse cx="379.5" cy="633.0781" fill="#84BE84" rx="3" ry="3" style="stroke:#038048;stroke-width:1.0;"/><text fill="#000000" font-family="sans-serif" font-size="14" lengthAdjust="spacing" textLength="143" x="388.5" y="639.0732">section(front, back)</text><ellipse cx="379.5" cy="649.375" fill="#84BE84" rx="3" ry="3" style="stroke:#038048;stroke-width:1.0;"/><text fill="#000000" font-family="sans-serif" font-size="14" lengthAdjust="spacing" textLength="102" x="388.5" y="655.3701">section(index)</text></g><!--MD5=[98de1fd5f791a5eb965405ed9bc47427]
class ContiguousContainerMixin--><g id="elem_ContiguousContainerMixin"><rect codeLine="26" fill="#F1F1F1" height="145.7813" id="ContiguousContainerMixin" rx="2.5" ry="2.5" style="stroke:#181818;stroke-width:0.5;" width="220" x="228" y="7"/><ellipse cx="243" cy="23" fill="#ADD1B2" rx="11" ry="11" style="stroke:#181818;stroke-width:1.0;"/><path d="M245.3438,18.6719 C244.4063,18.2344 243.8125,18.0938 242.9375,18.0938 C240.3125,18.0938 238.3125,20.1719 238.3125,22.8906 L238.3125,24.0156 C238.3125,26.5938 240.4219,28.4844 243.3125,28.4844 C244.5313,28.4844 245.6875,28.1875 246.4375,27.6406 C247.0156,27.2344 247.3438,26.7813 247.3438,26.3906 C247.3438,25.9375 246.9531,25.5469 246.4844,25.5469 C246.2656,25.5469 246.0625,25.625 245.875,25.8125 C245.4219,26.2969 245.4219,26.2969 245.2344,26.3906 C244.8125,26.6563 244.125,26.7813 243.3594,26.7813 C241.3125,26.7813 240.0156,25.6875 240.0156,23.9844 L240.0156,22.8906 C240.0156,21.1094 241.2656,19.7969 243,19.7969 C243.5781,19.7969 244.1875,19.9531 244.6563,20.2031 C245.1406,20.4844 245.3125,20.7031 245.4063,21.1094 C245.4688,21.5156 245.5,21.6406 245.6406,21.7656 C245.7813,21.9063 246.0156,22.0156 246.2344,22.0156 C246.5,22.0156 246.7656,21.875 246.9375,21.6563 C247.0469,21.5 247.0781,21.3125 247.0781,20.8906 L247.0781,19.4688 C247.0781,19.0313 247.0625,18.9063 246.9688,18.75 C246.8125,18.4844 246.5313,18.3438 246.2344,18.3438 C245.9375,18.3438 245.7344,18.4375 245.5156,18.75 L245.3438,18.6719 Z " fill="#000000"/><text fill="#000000" font-family="sans-serif" font-size="14" lengthAdjust="spacing" textLength="188" x="257" y="27.8467">ContiguousContainerMixin</text><line style="stroke:#181818;stroke-width:0.5;" x1="229" x2="447" y1="39" y2="39"/><line style="stroke:#181818;stroke-width:0.5;" x1="229" x2="447" y1="47" y2="47"/><ellipse cx="239" cy="58" fill="#84BE84" rx="3" ry="3" style="stroke:#038048;stroke-width:1.0;"/><text fill="#000000" font-family="sans-serif" font-size="14" lengthAdjust="spacing" textLength="58" x="248" y="63.9951">empty()</text><ellipse cx="239" cy="74.2969" fill="#84BE84" rx="3" ry="3" style="stroke:#038048;stroke-width:1.0;"/><text fill="#000000" font-family="sans-serif" font-size="14" lengthAdjust="spacing" textLength="123" x="248" y="80.292">operator[](index)</text><ellipse cx="239" cy="90.5938" fill="#84BE84" rx="3" ry="3" style="stroke:#038048;stroke-width:1.0;"/><text fill="#000000" font-family="sans-serif" font-size="14" lengthAdjust="spacing" textLength="51" x="248" y="96.5889">begin()</text><ellipse cx="239" cy="106.8906" fill="#84BE84" rx="3" ry="3" style="stroke:#038048;stroke-width:1.0;"/><text fill="#000000" font-family="sans-serif" font-size="14" lengthAdjust="spacing" textLength="37" x="248" y="112.8857">end()</text><ellipse cx="239" cy="123.1875" fill="#84BE84" rx="3" ry="3" style="stroke:#038048;stroke-width:1.0;"/><text fill="#000000" font-family="sans-serif" font-size="14" lengthAdjust="spacing" textLength="96" x="248" y="129.1826">operator==()</text><ellipse cx="239" cy="139.4844" fill="#84BE84" rx="3" ry="3" style="stroke:#038048;stroke-width:1.0;"/><text fill="#000000" font-family="sans-serif" font-size="14" lengthAdjust="spacing" textLength="90" x="248" y="145.4795">operator!=()</text></g><!--MD5=[7ea5b70645eecf22a5e153194904c6e8]
class ArithmeticMixin--><g id="elem_ArithmeticMixin"><rect codeLine="35" fill="#F1F1F1" height="129.4844" id="ArithmeticMixin" rx="2.5" ry="2.5" style="stroke:#181818;stroke-width:0.5;" width="147" x="483.5" y="15.5"/><ellipse cx="498.5" cy="31.5" fill="#ADD1B2" rx="11" ry="11" style="stroke:#181818;stroke-width:1.0;"/><path d="M500.8438,27.1719 C499.9063,26.7344 499.3125,26.5938 498.4375,26.5938 C495.8125,26.5938 493.8125,28.6719 493.8125,31.3906 L493.8125,32.5156 C493.8125,35.0938 495.9219,36.9844 498.8125,36.9844 C500.0313,36.9844 501.1875,36.6875 501.9375,36.1406 C502.5156,35.7344 502.8438,35.2813 502.8438,34.8906 C502.8438,34.4375 502.4531,34.0469 501.9844,34.0469 C501.7656,34.0469 501.5625,34.125 501.375,34.3125 C500.9219,34.7969 500.9219,34.7969 500.7344,34.8906 C500.3125,35.1563 499.625,35.2813 498.8594,35.2813 C496.8125,35.2813 495.5156,34.1875 495.5156,32.4844 L495.5156,31.3906 C495.5156,29.6094 496.7656,28.2969 498.5,28.2969 C499.0781,28.2969 499.6875,28.4531 500.1563,28.7031 C500.6406,28.9844 500.8125,29.2031 500.9063,29.6094 C500.9688,30.0156 501,30.1406 501.1406,30.2656 C501.2813,30.4063 501.5156,30.5156 501.7344,30.5156 C502,30.5156 502.2656,30.375 502.4375,30.1563 C502.5469,30 502.5781,29.8125 502.5781,29.3906 L502.5781,27.9688 C502.5781,27.5313 502.5625,27.4063 502.4688,27.25 C502.3125,26.9844 502.0313,26.8438 501.7344,26.8438 C501.4375,26.8438 501.2344,26.9375 501.0156,27.25 L500.8438,27.1719 Z " fill="#000000"/><text fill="#000000" font-family="sans-serif" font-size="14" lengthAdjust="spacing" textLength="115" x="512.5" y="36.3467">ArithmeticMixin</text><line style="stroke:#181818;stroke-width:0.5;" x1="484.5" x2="629.5" y1="47.5" y2="47.5"/><line style="stroke:#181818;stroke-width:0.5;" x1="484.5" x2="629.5" y1="55.5" y2="55.5"/><ellipse cx="494.5" cy="66.5" fill="#84BE84" rx="3" ry="3" style="stroke:#038048;stroke-width:1.0;"/><text fill="#000000" font-family="sans-serif" font-size="14" lengthAdjust="spacing" textLength="118" x="503.5" y="72.4951">operator+=(rhs)</text><ellipse cx="494.5" cy="82.7969" fill="#84BE84" rx="3" ry="3" style="stroke:#038048;stroke-width:1.0;"/><text fill="#000000" font-family="sans-serif" font-size="14" lengthAdjust="spacing" textLength="113" x="503.5" y="88.792">operator-=(rhs)</text><ellipse cx="494.5" cy="99.0938" fill="#84BE84" rx="3" ry="3" style="stroke:#038048;stroke-width:1.0;"/><text fill="#000000" font-family="sans-serif" font-size="14" lengthAdjust="spacing" textLength="114" x="503.5" y="105.0889">operator*=(rhs)</text><ellipse cx="494.5" cy="115.3906" fill="#84BE84" rx="3" ry="3" style="stroke:#038048;stroke-width:1.0;"/><text fill="#000000" font-family="sans-serif" font-size="14" lengthAdjust="spacing" textLength="112" x="503.5" y="121.3857">operator/=(rhs)</text><ellipse cx="494.5" cy="131.6875" fill="#84BE84" rx="3" ry="3" style="stroke:#038048;stroke-width:1.0;"/><text fill="#000000" font-family="sans-serif" font-size="14" lengthAdjust="spacing" textLength="15" x="503.5" y="137.6826">...</text></g><!--MD5=[ab20313c583242bc3b454d7c1a4be869]
class MathFunctionsMixin--><g id="elem_MathFunctionsMixin"><rect codeLine="43" fill="#F1F1F1" height="194.6719" id="MathFunctionsMixin" rx="2.5" ry="2.5" style="stroke:#181818;stroke-width:0.5;" width="174" x="481" y="213"/><ellipse cx="496" cy="229" fill="#ADD1B2" rx="11" ry="11" style="stroke:#181818;stroke-width:1.0;"/><path d="M498.3438,224.6719 C497.4063,224.2344 496.8125,224.0938 495.9375,224.0938 C493.3125,224.0938 491.3125,226.1719 491.3125,228.8906 L491.3125,230.0156 C491.3125,232.5938 493.4219,234.4844 496.3125,234.4844 C497.5313,234.4844 498.6875,234.1875 499.4375,233.6406 C500.0156,233.2344 500.3438,232.7813 500.3438,232.3906 C500.3438,231.9375 499.9531,231.5469 499.4844,231.5469 C499.2656,231.5469 499.0625,231.625 498.875,231.8125 C498.4219,232.2969 498.4219,232.2969 498.2344,232.3906 C497.8125,232.6563 497.125,232.7813 496.3594,232.7813 C494.3125,232.7813 493.0156,231.6875 493.0156,229.9844 L493.0156,228.8906 C493.0156,227.1094 494.2656,225.7969 496,225.7969 C496.5781,225.7969 497.1875,225.9531 497.6563,226.2031 C498.1406,226.4844 498.3125,226.7031 498.4063,227.1094 C498.4688,227.5156 498.5,227.6406 498.6406,227.7656 C498.7813,227.9063 499.0156,228.0156 499.2344,228.0156 C499.5,228.0156 499.7656,227.875 499.9375,227.6563 C500.0469,227.5 500.0781,227.3125 500.0781,226.8906 L500.0781,225.4688 C500.0781,225.0313 500.0625,224.9063 499.9688,224.75 C499.8125,224.4844 499.5313,224.3438 499.2344,224.3438 C498.9375,224.3438 498.7344,224.4375 498.5156,224.75 L498.3438,224.6719 Z " fill="#000000"/><text fill="#000000" font-family="sans-serif" font-size="14" lengthAdjust="spacing" textLength="142" x="510" y="233.8467">MathFunctionsMixin</text><line style="stroke:#181818;stroke-width:0.5;" x1="482" x2="654" y1="245" y2="245"/><line style="stroke:#181818;stroke-width:0.5;" x1="482" x2="654" y1="253" y2="253"/><ellipse cx="492" cy="264" fill="#84BE84" rx="3" ry="3" style="stroke:#038048;stroke-width:1.0;"/><text fill="#000000" font-family="sans-serif" font-size="14" lengthAdjust="spacing" textLength="35" x="501" y="269.9951">abs()</text><ellipse cx="492" cy="280.2969" fill="#84BE84" rx="3" ry="3" style="stroke:#038048;stroke-width:1.0;"/><text fill="#000000" font-family="sans-serif" font-size="14" lengthAdjust="spacing" textLength="59" x="501" y="286.292">min(rhs)</text><ellipse cx="492" cy="296.5938" fill="#84BE84" rx="3" ry="3" style="stroke:#038048;stroke-width:1.0;"/><text fill="#000000" font-family="sans-serif" font-size="14" lengthAdjust="spacing" textLength="62" x="501" y="302.5889">max(rhs)</text><ellipse cx="492" cy="312.8906" fill="#84BE84" rx="3" ry="3" style="stroke:#038048;stroke-width:1.0;"/><text fill="#000000" font-family="sans-serif" font-size="14" lengthAdjust="spacing" textLength="30" x="501" y="318.8857">sin()</text><ellipse cx="492" cy="329.1875" fill="#84BE84" rx="3" ry="3" style="stroke:#038048;stroke-width:1.0;"/><text fill="#000000" font-family="sans-serif" font-size="14" lengthAdjust="spacing" textLength="34" x="501" y="335.1826">cos()</text><ellipse cx="492" cy="345.4844" fill="#84BE84" rx="3" ry="3" style="stroke:#038048;stroke-width:1.0;"/><text fill="#000000" font-family="sans-serif" font-size="14" lengthAdjust="spacing" textLength="37" x="501" y="351.4795">exp()</text><ellipse cx="492" cy="361.7813" fill="#84BE84" rx="3" ry="3" style="stroke:#038048;stroke-width:1.0;"/><text fill="#000000" font-family="sans-serif" font-size="14" lengthAdjust="spacing" textLength="32" x="501" y="367.7764">log()</text><ellipse cx="492" cy="378.0781" fill="#84BE84" rx="3" ry="3" style="stroke:#038048;stroke-width:1.0;"/><text fill="#000000" font-family="sans-serif" font-size="14" lengthAdjust="spacing" textLength="62" x="501" y="384.0732">pow(rhs)</text><ellipse cx="492" cy="394.375" fill="#84BE84" rx="3" ry="3" style="stroke:#038048;stroke-width:1.0;"/><text fill="#000000" font-family="sans-serif" font-size="14" lengthAdjust="spacing" textLength="15" x="501" y="400.3701">...</text></g><!--MD5=[fbc29ac5c9242f63c38a3cc1544e1374]
reverse link ContiguousContainerMixin to DataContainer--><g id="link_ContiguousContainerMixin_DataContainer"><path codeLine="55" d="M338,173.684 C338,200.914 338,229.84 338,253.968 " fill="none" id="ContiguousContainerMixin-backto-DataContainer" style="stroke:#181818;stroke-width:1.0;"/><polygon fill="none" points="331,173.299,338,153.299,345,173.299,331,173.299" style="stroke:#181818;stroke-width:1.0;"/></g><!--MD5=[89d045eac9ad7b58f6bb77fbd456022a]
reverse link ArithmeticMixin to DataContainer--><g id="link_ArithmeticMixin_DataContainer"><path codeLine="56" d="M482.13,159.118 C452.251,190.293 418.537,225.47 391.232,253.959 " fill="none" id="ArithmeticMixin-backto-DataContainer" style="stroke:#181818;stroke-width:1.0;"/><polygon fill="none" points="477.104,154.246,495.996,144.65,487.211,163.933,477.104,154.246" style="stroke:#181818;stroke-width:1.0;"/></g><!--MD5=[ede4874bd78e00fa115eca2401c74dfd]
reverse link DataContainerHolder to DataContainer--><g id="link_DataContainerHolder_DataContainer"><path codeLine="57" d="M165.213,142.91 C201.124,177.533 245.522,220.339 280.32,253.889 " fill="none" id="DataContainerHolder-backto-DataContainer" style="stroke:#181818;stroke-width:1.0;"/><polygon fill="none" points="159.934,147.544,150.394,128.623,169.651,137.465,159.934,147.544" style="stroke:#181818;stroke-width:1.0;"/></g><!--MD5=[c184a1a033af6250647d84cc50565c44]
reverse link DataContainer to Raster--><g id="link_DataContainer_Raster"><path codeLine="58" d="M371.633,385.493 C383.333,411.233 396.636,440.499 409.046,467.801 " fill="none" id="DataContainer-backto-Raster" style="stroke:#181818;stroke-width:1.0;"/><polygon fill="none" points="365.141,388.126,363.237,367.022,377.886,382.333,365.141,388.126" style="stroke:#181818;stroke-width:1.0;"/></g><!--MD5=[497cbc630d406faa48c4bbb7dcad4ea0]
reverse link MathFunctionsMixin to Raster--><g id="link_MathFunctionsMixin_Raster"><path codeLine="59" d="M515.603,426.773 C509.365,440.496 503.047,454.397 496.944,467.822 " fill="none" id="MathFunctionsMixin-backto-Raster" style="stroke:#181818;stroke-width:1.0;"/><polygon fill="none" points="509.382,423.542,524.031,408.231,522.128,429.335,509.382,423.542" style="stroke:#181818;stroke-width:1.0;"/></g><!--MD5=[e923b41c79620aeec3bde2e90dbf2044]
@startuml
class DataContainerHolder {
# m_container
+ size()
+ data()
}

class DataContainer {
+ generate(function, args...)
+ apply(function, args...)
+ container()
+ moveTo(container)
}

class Raster {
- m_shape
+ shape()
+ domain()
+ dimension()
+ length(axis)
+ operator[](position)
+ at(position)
+ section(front, back)
+ section(index)
}

class ContiguousContainerMixin {
+ empty()
+ operator[](index)
+ begin()
+ end()
+ operator==()
+ operator!=()
}

class ArithmeticMixin {
+ operator+=(rhs)
+ operator-=(rhs)
+ operator*=(rhs)
+ operator/=(rhs)
+ {method}...
}

class MathFunctionsMixin {
+ abs()
+ min(rhs)
+ max(rhs)
+ sin()
+ cos()
+ exp()
+ log()
+ pow(rhs)
+ {method}...
}

ContiguousContainerMixin <|- - DataContainer
ArithmeticMixin <|- - DataContainer
DataContainerHolder <|- - DataContainer
DataContainer <|- - Raster
MathFunctionsMixin <|- - Raster
@enduml

PlantUML version 1.2022.6beta4(Unknown compile time)
(GPL source distribution)
Java Runtime: Java(TM) SE Runtime Environment
JVM: Java HotSpot(TM) 64-Bit Server VM
Default Encoding: UTF-8
Language: en
Country: US
--></g></svg>