<?xml version="1.0" encoding="UTF-8" standalone="no"?><svg xmlns="http://www.w3.org/2000/svg" xmlns:xlink="http://www.w3.org/1999/xlink" contentStyleType="text/css" height="669px" preserveAspectRatio="none" style="width:705px;height:669px;background:#FFFFFF;" version="1.1" viewBox="0 0 705 669" width="705px" zoomAndPan="magnify"><defs/><g><!--MD5=[3ce68ee0e93b8a446c329c1231592062]
class DataContainerHolder--><g id="elem_DataContainerHolder"><rect codeLine="1" fill="#F1F1F1" height="96.8906" id="DataContainerHolder" rx="2.5" ry="2.5" style="stroke:#181818;stroke-width:0.5;" width="184" x="9" y="31.5"/><ellipse cx="24" cy="47.5" fill="#ADD1B2" rx="11" ry="11" style="stroke:#181818;stroke-width:1.0;"/><path d="M26.3438,43.1719 C25.4063,42.7344 24.8125,42.5938 23.9375,42.5938 C21.3125,42.5938 19.3125,44.6719 19.3125,47.3906 L19.3125,48.5156 C19.3125,51.0938 21.4219,52.9844 24.3125,52.9844 C25.5313,52.9844 26.6875,52.6875 27.4375,52.1406 C28.0156,51.7344 28.3438,51.2813 28.3438,50.8906 C28.3438,50.4375 27.9531,50.0469 27.4844,50.0469 C27.2656,50.0469 27.0625,50.125 26.875,50.3125 C26.4219,50.7969 26.4219,50.7969 26.2344,50.8906 C25.8125,51.1563 25.125,51.2813 24.3594,51.2813 C22.3125,51.2813 21.0156,50.1875 21.0156,48.4844 L21.0156,47.3906 C21.0156,45.6094 22.2656,44.2969 24,44.2969 C24.5781,44.2969 25.1875,44.4531 25.6563,44.7031 C26.1406,44.9844 26.3125,45.2031 26.4063,45.6094 C26.4688,46.0156 26.5,46.1406 26.6406,46.2656 C26.7813,46.4063 27.0156,46.5156 27.2344,46.5156 C27.5,46.5156 27.7656,46.375 27.9375,46.1563 C28.0469,46 28.0781,45.8125 28.0781,45.3906 L28.0781,43.9688 C28.0781,43.5313 28.0625,43.4063 27.9688,43.25 C27.8125,42.9844 27.5313,42.8438 27.2344,42.8438 C26.9375,42.8438 26.7344,42.9375 26.5156,43.25 L26.3438,43.1719 Z " fill="#000000"/><text fill="#000000" font-family="sans-serif" font-size="14" lengthAdjust="spacing" textLength="152" x="38" y="52.3467">DataContainerHolder</text><line style="stroke:#181818;stroke-width:0.5;" x1="10" x2="192" y1="63.5" y2="63.5"/><polygon fill="none" points="20,69.5,24,73.5,20,77.5,16,73.5" style="stroke:#B38D22;stroke-width:1.0;"/><text fill="#000000" font-family="sans-serif" font-size="14" lengthAdjust="spacing" textLength="90" x="29" y="80.4951">m_container</text><line style="stroke:#181818;stroke-width:0.5;" x1="10" x2="192" y1="87.7969" y2="87.7969"/><ellipse cx="20" cy="98.7969" fill="#84BE84" rx="3" ry="3" style="stroke:#038048;stroke-width:1.0;"/><text fill="#000000" font-family="sans-serif" font-size="14" lengthAdjust="spacing" textLength="38" x="29" y="104.792">size()</text><ellipse cx="20" cy="115.0938" fill="#84BE84" rx="3" ry="3" style="stroke:#038048;stroke-width:1.0;"/><text fill="#000000" font-family="sans-serif" font-size="14" lengthAdjust="spacing" textLength="42" x="29" y="121.0889">data()</text></g><!--MD5=[3b09399b8ba8967e742d64e36774e016]
class DataContainer--><g id="elem_DataContainer"><rect codeLine="7" fill="#F1F1F1" height="80.5938" id="DataContainer" rx="2.5" ry="2.5" style="stroke:#181818;stroke-width:0.5;" width="163" x="256.5" y="270"/><ellipse cx="283.2" cy="286" fill="#ADD1B2" rx="11" ry="11" style="stroke:#181818;stroke-width:1.0;"/><path d="M285.5438,281.6719 C284.6063,281.2344 284.0125,281.0938 283.1375,281.0938 C280.5125,281.0938 278.5125,283.1719 278.5125,285.8906 L278.5125,287.0156 C278.5125,289.5938 280.6219,291.4844 283.5125,291.4844 C284.7313,291.4844 285.8875,291.1875 286.6375,290.6406 C287.2156,290.2344 287.5438,289.7813 287.5438,289.3906 C287.5438,288.9375 287.1531,288.5469 286.6844,288.5469 C286.4656,288.5469 286.2625,288.625 286.075,288.8125 C285.6219,289.2969 285.6219,289.2969 285.4344,289.3906 C285.0125,289.6563 284.325,289.7813 283.5594,289.7813 C281.5125,289.7813 280.2156,288.6875 280.2156,286.9844 L280.2156,285.8906 C280.2156,284.1094 281.4656,282.7969 283.2,282.7969 C283.7781,282.7969 284.3875,282.9531 284.8563,283.2031 C285.3406,283.4844 285.5125,283.7031 285.6063,284.1094 C285.6688,284.5156 285.7,284.6406 285.8406,284.7656 C285.9813,284.9063 286.2156,285.0156 286.4344,285.0156 C286.7,285.0156 286.9656,284.875 287.1375,284.6563 C287.2469,284.5 287.2781,284.3125 287.2781,283.8906 L287.2781,282.4688 C287.2781,282.0313 287.2625,281.9063 287.1688,281.75 C287.0125,281.4844 286.7313,281.3438 286.4344,281.3438 C286.1375,281.3438 285.9344,281.4375 285.7156,281.75 L285.5438,281.6719 Z " fill="#000000"/><text fill="#000000" font-family="sans-serif" font-size="14" lengthAdjust="spacing" textLength="105" x="299.8" y="290.8467">DataContainer</text><line style="stroke:#181818;stroke-width:0.5;" x1="257.5" x2="418.5" y1="302" y2="302"/><line style="stroke:#181818;stroke-width:0.5;" x1="257.5" x2="418.5" y1="310" y2="310"/><ellipse cx="267.5" cy="321" fill="#84BE84" rx="3" ry="3" style="stroke:#038048;stroke-width:1.0;"/><text fill="#000000" font-family="sans-serif" font-size="14" lengthAdjust="spacing" textLength="79" x="276.5" y="326.9951">container()</text><ellipse cx="267.5" cy="337.2969" fill="#84BE84" rx="3" ry="3" style="stroke:#038048;stroke-width:1.0;"/><text fill="#000000" font-family="sans-serif" font-size="14" lengthAdjust="spacing" textLength="137" x="276.5" y="343.292">moveTo(container)</text></g><!--MD5=[d6c7210f6a405aef6716c1d411807fba]
class Raster--><g id="elem_Raster"><rect codeLine="12" fill="#F1F1F1" height="194.6719" id="Raster" rx="2.5" ry="2.5" style="stroke:#181818;stroke-width:0.5;" width="169" x="355.5" y="468"/><ellipse cx="412.25" cy="484" fill="#ADD1B2" rx="11" ry="11" style="stroke:#181818;stroke-width:1.0;"/><path d="M414.5938,479.6719 C413.6563,479.2344 413.0625,479.0938 412.1875,479.0938 C409.5625,479.0938 407.5625,481.1719 407.5625,483.8906 L407.5625,485.0156 C407.5625,487.5938 409.6719,489.4844 412.5625,489.4844 C413.7813,489.4844 414.9375,489.1875 415.6875,488.6406 C416.2656,488.2344 416.5938,487.7813 416.5938,487.3906 C416.5938,486.9375 416.2031,486.5469 415.7344,486.5469 C415.5156,486.5469 415.3125,486.625 415.125,486.8125 C414.6719,487.2969 414.6719,487.2969 414.4844,487.3906 C414.0625,487.6563 413.375,487.7813 412.6094,487.7813 C410.5625,487.7813 409.2656,486.6875 409.2656,484.9844 L409.2656,483.8906 C409.2656,482.1094 410.5156,480.7969 412.25,480.7969 C412.8281,480.7969 413.4375,480.9531 413.9063,481.2031 C414.3906,481.4844 414.5625,481.7031 414.6563,482.1094 C414.7188,482.5156 414.75,482.6406 414.8906,482.7656 C415.0313,482.9063 415.2656,483.0156 415.4844,483.0156 C415.75,483.0156 416.0156,482.875 416.1875,482.6563 C416.2969,482.5 416.3281,482.3125 416.3281,481.8906 L416.3281,480.4688 C416.3281,480.0313 416.3125,479.9063 416.2188,479.75 C416.0625,479.4844 415.7813,479.3438 415.4844,479.3438 C415.1875,479.3438 414.9844,479.4375 414.7656,479.75 L414.5938,479.6719 Z " fill="#000000"/><text fill="#000000" font-family="sans-serif" font-size="14" lengthAdjust="spacing" textLength="47" x="432.75" y="488.8467">Raster</text><line style="stroke:#181818;stroke-width:0.5;" x1="356.5" x2="523.5" y1="500" y2="500"/><rect fill="none" height="6" style="stroke:#C82930;stroke-width:1.0;" width="6" x="363.5" y="508"/><text fill="#000000" font-family="sans-serif" font-size="14" lengthAdjust="spacing" textLength="64" x="375.5" y="516.9951">m_shape</text><line style="stroke:#181818;stroke-width:0.5;" x1="356.5" x2="523.5" y1="524.2969" y2="524.2969"/><ellipse cx="366.5" cy="535.2969" fill="#84BE84" rx="3" ry="3" style="stroke:#038048;stroke-width:1.0;"/><text fill="#000000" font-family="sans-serif" font-size="14" lengthAdjust="spacing" textLength="53" x="375.5" y="541.292">shape()</text><ellipse cx="366.5" cy="551.5938" fill="#84BE84" rx="3" ry="3" style="stroke:#038048;stroke-width:1.0;"/><text fill="#000000" font-family="sans-serif" font-size="14" lengthAdjust="spacing" textLength="63" x="375.5" y="557.5889">domain()</text><ellipse cx="366.5" cy="567.8906" fill="#84BE84" rx="3" ry="3" style="stroke:#038048;stroke-width:1.0;"/><text fill="#000000" font-family="sans-serif" font-size="14" lengthAdjust="spacing" textLength="84" x="375.5" y="573.8857">dimension()</text><ellipse cx="366.5" cy="584.1875" fill="#84BE84" rx="3" ry="3" style="stroke:#038048;stroke-width:1.0;"/><text fill="#000000" font-family="sans-serif" font-size="14" lengthAdjust="spacing" textLength="84" x="375.5" y="590.1826">length(axis)</text><ellipse cx="366.5" cy="600.4844" fill="#84BE84" rx="3" ry="3" style="stroke:#038048;stroke-width:1.0;"/><text fill="#000000" font-family="sans-serif" font-size="14" lengthAdjust="spacing" textLength="143" x="375.5" y="606.4795">operator[](position)</text><ellipse cx="366.5" cy="616.7813" fill="#84BE84" rx="3" ry="3" style="stroke:#038048;stroke-width:1.0;"/><text fill="#000000" font-family="sans-serif" font-size="14" lengthAdjust="spacing" textLength="84" x="375.5" y="622.7764">at(position)</text><ellipse cx="366.5" cy="633.0781" fill="#84BE84" rx="3" ry="3" style="stroke:#038048;stroke-width:1.0;"/><text fill="#000000" font-family="sans-serif" font-size="14" lengthAdjust="spacing" textLength="143" x="375.5" y="639.0732">section(front, back)</text><ellipse cx="366.5" cy="649.375" fill="#84BE84" rx="3" ry="3" style="stroke:#038048;stroke-width:1.0;"/><text fill="#000000" font-family="sans-serif" font-size="14" lengthAdjust="spacing" textLength="102" x="375.5" y="655.3701">section(index)</text></g><!--MD5=[98de1fd5f791a5eb965405ed9bc47427]
class ContiguousContainerMixin--><g id="elem_ContiguousContainerMixin"><rect codeLine="24" fill="#F1F1F1" height="145.7813" id="ContiguousContainerMixin" rx="2.5" ry="2.5" style="stroke:#181818;stroke-width:0.5;" width="220" x="228" y="7"/><ellipse cx="243" cy="23" fill="#ADD1B2" rx="11" ry="11" style="stroke:#181818;stroke-width:1.0;"/><path d="M245.3438,18.6719 C244.4063,18.2344 243.8125,18.0938 242.9375,18.0938 C240.3125,18.0938 238.3125,20.1719 238.3125,22.8906 L238.3125,24.0156 C238.3125,26.5938 240.4219,28.4844 243.3125,28.4844 C244.5313,28.4844 245.6875,28.1875 246.4375,27.6406 C247.0156,27.2344 247.3438,26.7813 247.3438,26.3906 C247.3438,25.9375 246.9531,25.5469 246.4844,25.5469 C246.2656,25.5469 246.0625,25.625 245.875,25.8125 C245.4219,26.2969 245.4219,26.2969 245.2344,26.3906 C244.8125,26.6563 244.125,26.7813 243.3594,26.7813 C241.3125,26.7813 240.0156,25.6875 240.0156,23.9844 L240.0156,22.8906 C240.0156,21.1094 241.2656,19.7969 243,19.7969 C243.5781,19.7969 244.1875,19.9531 244.6563,20.2031 C245.1406,20.4844 245.3125,20.7031 245.4063,21.1094 C245.4688,21.5156 245.5,21.6406 245.6406,21.7656 C245.7813,21.9063 246.0156,22.0156 246.2344,22.0156 C246.5,22.0156 246.7656,21.875 246.9375,21.6563 C247.0469,21.5 247.0781,21.3125 247.0781,20.8906 L247.0781,19.4688 C247.0781,19.0313 247.0625,18.9063 246.9688,18.75 C246.8125,18.4844 246.5313,18.3438 246.2344,18.3438 C245.9375,18.3438 245.7344,18.4375 245.5156,18.75 L245.3438,18.6719 Z " fill="#000000"/><text fill="#000000" font-family="sans-serif" font-size="14" lengthAdjust="spacing" textLength="188" x="257" y="27.8467">ContiguousContainerMixin</text><line style="stroke:#181818;stroke-width:0.5;" x1="229" x2="447" y1="39" y2="39"/><line style="stroke:#181818;stroke-width:0.5;" x1="229" x2="447" y1="47" y2="47"/><ellipse cx="239" cy="58" fill="#84BE84" rx="3" ry="3" style="stroke:#038048;stroke-width:1.0;"/><text fill="#000000" font-family="sans-serif" font-size="14" lengthAdjust="spacing" textLength="58" x="248" y="63.9951">empty()</text><ellipse cx="239" cy="74.2969" fill="#84BE84" rx="3" ry="3" style="stroke:#038048;stroke-width:1.0;"/><text fill="#000000" font-family="sans-serif" font-size="14" lengthAdjust="spacing" textLength="123" x="248" y="80.292">operator[](index)</text><ellipse cx="239" cy="90.5938" fill="#84BE84" rx="3" ry="3" style="stroke:#038048;stroke-width:1.0;"/><text fill="#000000" font-family="sans-serif" font-size="14" lengthAdjust="spacing" textLength="51" x="248" y="96.5889">begin()</text><ellipse cx="239" cy="106.8906" fill="#84BE84" rx="3" ry="3" style="stroke:#038048;stroke-width:1.0;"/><text fill="#000000" font-family="sans-serif" font-size="14" lengthAdjust="spacing" textLength="37" x="248" y="112.8857">end()</text><ellipse cx="239" cy="123.1875" fill="#84BE84" rx="3" ry="3" style="stroke:#038048;stroke-width:1.0;"/><text fill="#000000" font-family="sans-serif" font-size="14" lengthAdjust="spacing" textLength="96" x="248" y="129.1826">operator==()</text><ellipse cx="239" cy="139.4844" fill="#84BE84" rx="3" ry="3" style="stroke:#038048;stroke-width:1.0;"/><text fill="#000000" font-family="sans-serif" font-size="14" lengthAdjust="spacing" textLength="90" x="248" y="145.4795">operator!=()</text></g><!--MD5=[9a4a11be41345d46d3fe9d4dce0d40f8]
class VectorArithmeticMixin--><g id="elem_VectorArithmeticMixin"><rect codeLine="33" fill="#F1F1F1" height="145.7813" id="VectorArithmeticMixin" rx="2.5" ry="2.5" style="stroke:#181818;stroke-width:0.5;" width="215" x="483.5" y="7"/><ellipse cx="507.05" cy="23" fill="#ADD1B2" rx="11" ry="11" style="stroke:#181818;stroke-width:1.0;"/><path d="M509.3938,18.6719 C508.4563,18.2344 507.8625,18.0938 506.9875,18.0938 C504.3625,18.0938 502.3625,20.1719 502.3625,22.8906 L502.3625,24.0156 C502.3625,26.5938 504.4719,28.4844 507.3625,28.4844 C508.5813,28.4844 509.7375,28.1875 510.4875,27.6406 C511.0656,27.2344 511.3938,26.7813 511.3938,26.3906 C511.3938,25.9375 511.0031,25.5469 510.5344,25.5469 C510.3156,25.5469 510.1125,25.625 509.925,25.8125 C509.4719,26.2969 509.4719,26.2969 509.2844,26.3906 C508.8625,26.6563 508.175,26.7813 507.4094,26.7813 C505.3625,26.7813 504.0656,25.6875 504.0656,23.9844 L504.0656,22.8906 C504.0656,21.1094 505.3156,19.7969 507.05,19.7969 C507.6281,19.7969 508.2375,19.9531 508.7063,20.2031 C509.1906,20.4844 509.3625,20.7031 509.4563,21.1094 C509.5188,21.5156 509.55,21.6406 509.6906,21.7656 C509.8313,21.9063 510.0656,22.0156 510.2844,22.0156 C510.55,22.0156 510.8156,21.875 510.9875,21.6563 C511.0969,21.5 511.1281,21.3125 511.1281,20.8906 L511.1281,19.4688 C511.1281,19.0313 511.1125,18.9063 511.0188,18.75 C510.8625,18.4844 510.5813,18.3438 510.2844,18.3438 C509.9875,18.3438 509.7844,18.4375 509.5656,18.75 L509.3938,18.6719 Z " fill="#000000"/><text fill="#000000" font-family="sans-serif" font-size="14" lengthAdjust="spacing" textLength="164" x="522.95" y="27.8467">VectorArithmeticMixin</text><line style="stroke:#181818;stroke-width:0.5;" x1="484.5" x2="697.5" y1="39" y2="39"/><line style="stroke:#181818;stroke-width:0.5;" x1="484.5" x2="697.5" y1="47" y2="47"/><ellipse cx="494.5" cy="58" fill="#84BE84" rx="3" ry="3" style="stroke:#038048;stroke-width:1.0;"/><text fill="#000000" font-family="sans-serif" font-size="14" lengthAdjust="spacing" textLength="118" x="503.5" y="63.9951">operator+=(rhs)</text><ellipse cx="494.5" cy="74.2969" fill="#84BE84" rx="3" ry="3" style="stroke:#038048;stroke-width:1.0;"/><text fill="#000000" font-family="sans-serif" font-size="14" lengthAdjust="spacing" textLength="113" x="503.5" y="80.292">operator-=(rhs)</text><ellipse cx="494.5" cy="90.5938" fill="#84BE84" rx="3" ry="3" style="stroke:#038048;stroke-width:1.0;"/><text fill="#000000" font-family="sans-serif" font-size="14" lengthAdjust="spacing" textLength="114" x="503.5" y="96.5889">operator*=(rhs)</text><ellipse cx="494.5" cy="106.8906" fill="#84BE84" rx="3" ry="3" style="stroke:#038048;stroke-width:1.0;"/><text fill="#000000" font-family="sans-serif" font-size="14" lengthAdjust="spacing" textLength="112" x="503.5" y="112.8857">operator/=(rhs)</text><ellipse cx="494.5" cy="123.1875" fill="#84BE84" rx="3" ry="3" style="stroke:#038048;stroke-width:1.0;"/><text fill="#000000" font-family="sans-serif" font-size="14" lengthAdjust="spacing" textLength="189" x="503.5" y="129.1826">generate(function, args...)</text><ellipse cx="494.5" cy="139.4844" fill="#84BE84" rx="3" ry="3" style="stroke:#038048;stroke-width:1.0;"/><text fill="#000000" font-family="sans-serif" font-size="14" lengthAdjust="spacing" textLength="163" x="503.5" y="145.4795">apply(function, args...)</text></g><!--MD5=[ab20313c583242bc3b454d7c1a4be869]
class MathFunctionsMixin--><g id="elem_MathFunctionsMixin"><rect codeLine="42" fill="#F1F1F1" height="194.6719" id="MathFunctionsMixin" rx="2.5" ry="2.5" style="stroke:#181818;stroke-width:0.5;" width="174" x="455" y="213"/><ellipse cx="470" cy="229" fill="#ADD1B2" rx="11" ry="11" style="stroke:#181818;stroke-width:1.0;"/><path d="M472.3438,224.6719 C471.4063,224.2344 470.8125,224.0938 469.9375,224.0938 C467.3125,224.0938 465.3125,226.1719 465.3125,228.8906 L465.3125,230.0156 C465.3125,232.5938 467.4219,234.4844 470.3125,234.4844 C471.5313,234.4844 472.6875,234.1875 473.4375,233.6406 C474.0156,233.2344 474.3438,232.7813 474.3438,232.3906 C474.3438,231.9375 473.9531,231.5469 473.4844,231.5469 C473.2656,231.5469 473.0625,231.625 472.875,231.8125 C472.4219,232.2969 472.4219,232.2969 472.2344,232.3906 C471.8125,232.6563 471.125,232.7813 470.3594,232.7813 C468.3125,232.7813 467.0156,231.6875 467.0156,229.9844 L467.0156,228.8906 C467.0156,227.1094 468.2656,225.7969 470,225.7969 C470.5781,225.7969 471.1875,225.9531 471.6563,226.2031 C472.1406,226.4844 472.3125,226.7031 472.4063,227.1094 C472.4688,227.5156 472.5,227.6406 472.6406,227.7656 C472.7813,227.9063 473.0156,228.0156 473.2344,228.0156 C473.5,228.0156 473.7656,227.875 473.9375,227.6563 C474.0469,227.5 474.0781,227.3125 474.0781,226.8906 L474.0781,225.4688 C474.0781,225.0313 474.0625,224.9063 473.9688,224.75 C473.8125,224.4844 473.5313,224.3438 473.2344,224.3438 C472.9375,224.3438 472.7344,224.4375 472.5156,224.75 L472.3438,224.6719 Z " fill="#000000"/><text fill="#000000" font-family="sans-serif" font-size="14" lengthAdjust="spacing" textLength="142" x="484" y="233.8467">MathFunctionsMixin</text><line style="stroke:#181818;stroke-width:0.5;" x1="456" x2="628" y1="245" y2="245"/><line style="stroke:#181818;stroke-width:0.5;" x1="456" x2="628" y1="253" y2="253"/><ellipse cx="466" cy="264" fill="#84BE84" rx="3" ry="3" style="stroke:#038048;stroke-width:1.0;"/><text fill="#000000" font-family="sans-serif" font-size="14" lengthAdjust="spacing" textLength="35" x="475" y="269.9951">abs()</text><ellipse cx="466" cy="280.2969" fill="#84BE84" rx="3" ry="3" style="stroke:#038048;stroke-width:1.0;"/><text fill="#000000" font-family="sans-serif" font-size="14" lengthAdjust="spacing" textLength="59" x="475" y="286.292">min(rhs)</text><ellipse cx="466" cy="296.5938" fill="#84BE84" rx="3" ry="3" style="stroke:#038048;stroke-width:1.0;"/><text fill="#000000" font-family="sans-serif" font-size="14" lengthAdjust="spacing" textLength="62" x="475" y="302.5889">max(rhs)</text><ellipse cx="466" cy="312.8906" fill="#84BE84" rx="3" ry="3" style="stroke:#038048;stroke-width:1.0;"/><text fill="#000000" font-family="sans-serif" font-size="14" lengthAdjust="spacing" textLength="30" x="475" y="318.8857">sin()</text><ellipse cx="466" cy="329.1875" fill="#84BE84" rx="3" ry="3" style="stroke:#038048;stroke-width:1.0;"/><text fill="#000000" font-family="sans-serif" font-size="14" lengthAdjust="spacing" textLength="34" x="475" y="335.1826">cos()</text><ellipse cx="466" cy="345.4844" fill="#84BE84" rx="3" ry="3" style="stroke:#038048;stroke-width:1.0;"/><text fill="#000000" font-family="sans-serif" font-size="14" lengthAdjust="spacing" textLength="37" x="475" y="351.4795">exp()</text><ellipse cx="466" cy="361.7813" fill="#84BE84" rx="3" ry="3" style="stroke:#038048;stroke-width:1.0;"/><text fill="#000000" font-family="sans-serif" font-size="14" lengthAdjust="spacing" textLength="32" x="475" y="367.7764">log()</text><ellipse cx="466" cy="378.0781" fill="#84BE84" rx="3" ry="3" style="stroke:#038048;stroke-width:1.0;"/><text fill="#000000" font-family="sans-serif" font-size="14" lengthAdjust="spacing" textLength="62" x="475" y="384.0732">pow(rhs)</text><ellipse cx="466" cy="394.375" fill="#84BE84" rx="3" ry="3" style="stroke:#038048;stroke-width:1.0;"/><text fill="#000000" font-family="sans-serif" font-size="14" lengthAdjust="spacing" textLength="15" x="475" y="400.3701">...</text></g><!--MD5=[fbc29ac5c9242f63c38a3cc1544e1374]
reverse link ContiguousContainerMixin to DataContainer--><g id="link_ContiguousContainerMixin_DataContainer"><path codeLine="54" d="M338,173.735 C338,207.263 338,243.356 338,269.894 " fill="none" id="ContiguousContainerMixin-backto-DataContainer" style="stroke:#181818;stroke-width:1.0;"/><polygon fill="none" points="331,173.299,338,153.299,345,173.299,331,173.299" style="stroke:#181818;stroke-width:1.0;"/></g><!--MD5=[b1737c31697afd24e19f1cb037f73cc2]
reverse link VectorArithmeticMixin to DataContainer--><g id="link_VectorArithmeticMixin_DataContainer"><path codeLine="55" d="M490.369,166.42 C472.764,181.76 454.736,197.728 438,213 C418.04,231.215 396.405,251.962 378.38,269.54 " fill="none" id="VectorArithmeticMixin-backto-DataContainer" style="stroke:#181818;stroke-width:1.0;"/><polygon fill="none" points="485.992,160.951,505.687,153.135,495.165,171.527,485.992,160.951" style="stroke:#181818;stroke-width:1.0;"/></g><!--MD5=[ede4874bd78e00fa115eca2401c74dfd]
reverse link DataContainerHolder to DataContainer--><g id="link_DataContainerHolder_DataContainer"><path codeLine="56" d="M164.992,142.697 C206.968,183.167 260.61,234.886 296.955,269.927 " fill="none" id="DataContainerHolder-backto-DataContainer" style="stroke:#181818;stroke-width:1.0;"/><polygon fill="none" points="159.934,147.544,150.394,128.623,169.651,137.465,159.934,147.544" style="stroke:#181818;stroke-width:1.0;"/></g><!--MD5=[c184a1a033af6250647d84cc50565c44]
reverse link DataContainer to Raster--><g id="link_DataContainer_Raster"><path codeLine="57" d="M361.565,369.95 C373.287,399.027 387.763,434.932 401.074,467.949 " fill="none" id="DataContainer-backto-Raster" style="stroke:#181818;stroke-width:1.0;"/><polygon fill="none" points="354.924,372.198,353.938,351.031,367.908,366.963,354.924,372.198" style="stroke:#181818;stroke-width:1.0;"/></g><!--MD5=[497cbc630d406faa48c4bbb7dcad4ea0]
reverse link MathFunctionsMixin to Raster--><g id="link_MathFunctionsMixin_Raster"><path codeLine="58" d="M495.338,427.241 C489.866,440.812 484.328,454.549 478.977,467.822 " fill="none" id="MathFunctionsMixin-backto-Raster" style="stroke:#181818;stroke-width:1.0;"/><polygon fill="none" points="489.031,424.163,503.002,408.231,502.015,429.398,489.031,424.163" style="stroke:#181818;stroke-width:1.0;"/></g><!--MD5=[9b42c1761b68e57443bf6cfab2ac5520]
@startuml
class DataContainerHolder {
# m_container
+ size()
+ data()
}

class DataContainer {
+ container()
+ moveTo(container)
}

class Raster {
- m_shape
+ shape()
+ domain()
+ dimension()
+ length(axis)
+ operator[](position)
+ at(position)
+ section(front, back)
+ section(index)
}

class ContiguousContainerMixin {
+ empty()
+ operator[](index)
+ begin()
+ end()
+ operator==()
+ operator!=()
}

class VectorArithmeticMixin {
+ operator+=(rhs)
+ operator-=(rhs)
+ operator*=(rhs)
+ operator/=(rhs)
+ generate(function, args...)
+ apply(function, args...)
}

class MathFunctionsMixin {
+ abs()
+ min(rhs)
+ max(rhs)
+ sin()
+ cos()
+ exp()
+ log()
+ pow(rhs)
+ {method}...
}

ContiguousContainerMixin <|- - DataContainer
VectorArithmeticMixin <|- - DataContainer
DataContainerHolder <|- - DataContainer
DataContainer <|- - Raster
MathFunctionsMixin <|- - Raster
@enduml

PlantUML version 1.2022.6beta1(Unknown compile time)
(GPL source distribution)
Java Runtime: Java(TM) SE Runtime Environment
JVM: Java HotSpot(TM) 64-Bit Server VM
Default Encoding: UTF-8
Language: en
Country: US
--></g></svg>