<?xml version="1.0" encoding="UTF-8" standalone="no"?><svg xmlns="http://www.w3.org/2000/svg" xmlns:xlink="http://www.w3.org/1999/xlink" contentStyleType="text/css" height="653px" preserveAspectRatio="none" style="width:698px;height:653px;background:#FFFFFF;" version="1.1" viewBox="0 0 698 653" width="698px" zoomAndPan="magnify"><defs/><g><!--MD5=[5e0c0212f7e8cc1b1690e85e5b6eebba]
class Holder--><g id="elem_Holder"><rect codeLine="1" fill="#F1F1F1" height="96.8906" id="Holder" rx="2.5" ry="2.5" style="stroke:#181818;stroke-width:0.5;" width="151" x="7" y="31.5"/><ellipse cx="54.75" cy="47.5" fill="#ADD1B2" rx="11" ry="11" style="stroke:#181818;stroke-width:1.0;"/><path d="M57.0938,43.1719 C56.1563,42.7344 55.5625,42.5938 54.6875,42.5938 C52.0625,42.5938 50.0625,44.6719 50.0625,47.3906 L50.0625,48.5156 C50.0625,51.0938 52.1719,52.9844 55.0625,52.9844 C56.2813,52.9844 57.4375,52.6875 58.1875,52.1406 C58.7656,51.7344 59.0938,51.2813 59.0938,50.8906 C59.0938,50.4375 58.7031,50.0469 58.2344,50.0469 C58.0156,50.0469 57.8125,50.125 57.625,50.3125 C57.1719,50.7969 57.1719,50.7969 56.9844,50.8906 C56.5625,51.1563 55.875,51.2813 55.1094,51.2813 C53.0625,51.2813 51.7656,50.1875 51.7656,48.4844 L51.7656,47.3906 C51.7656,45.6094 53.0156,44.2969 54.75,44.2969 C55.3281,44.2969 55.9375,44.4531 56.4063,44.7031 C56.8906,44.9844 57.0625,45.2031 57.1563,45.6094 C57.2188,46.0156 57.25,46.1406 57.3906,46.2656 C57.5313,46.4063 57.7656,46.5156 57.9844,46.5156 C58.25,46.5156 58.5156,46.375 58.6875,46.1563 C58.7969,46 58.8281,45.8125 58.8281,45.3906 L58.8281,43.9688 C58.8281,43.5313 58.8125,43.4063 58.7188,43.25 C58.5625,42.9844 58.2813,42.8438 57.9844,42.8438 C57.6875,42.8438 57.4844,42.9375 57.2656,43.25 L57.0938,43.1719 Z " fill="#000000"/><text fill="#000000" font-family="sans-serif" font-size="14" lengthAdjust="spacing" textLength="47" x="75.25" y="52.3467">Holder</text><line style="stroke:#181818;stroke-width:0.5;" x1="8" x2="157" y1="63.5" y2="63.5"/><line style="stroke:#181818;stroke-width:0.5;" x1="8" x2="157" y1="71.5" y2="71.5"/><ellipse cx="18" cy="82.5" fill="#84BE84" rx="3" ry="3" style="stroke:#038048;stroke-width:1.0;"/><text fill="#000000" font-family="sans-serif" font-size="14" lengthAdjust="spacing" textLength="125" x="27" y="88.4951">Holder(size, data)</text><ellipse cx="18" cy="98.7969" fill="#84BE84" rx="3" ry="3" style="stroke:#038048;stroke-width:1.0;"/><text fill="#000000" font-family="sans-serif" font-size="14" lengthAdjust="spacing" textLength="38" x="27" y="104.792">size()</text><ellipse cx="18" cy="115.0938" fill="#84BE84" rx="3" ry="3" style="stroke:#038048;stroke-width:1.0;"/><text fill="#000000" font-family="sans-serif" font-size="14" lengthAdjust="spacing" textLength="42" x="27" y="121.0889">data()</text></g><!--MD5=[3b09399b8ba8967e742d64e36774e016]
class DataContainer--><g id="elem_DataContainer"><rect codeLine="7" fill="#F1F1F1" height="129.4844" id="DataContainer" rx="2.5" ry="2.5" style="stroke:#181818;stroke-width:0.5;" width="215" x="85" y="246"/><ellipse cx="135.75" cy="262" fill="#ADD1B2" rx="11" ry="11" style="stroke:#181818;stroke-width:1.0;"/><path d="M138.0938,257.6719 C137.1563,257.2344 136.5625,257.0938 135.6875,257.0938 C133.0625,257.0938 131.0625,259.1719 131.0625,261.8906 L131.0625,263.0156 C131.0625,265.5938 133.1719,267.4844 136.0625,267.4844 C137.2813,267.4844 138.4375,267.1875 139.1875,266.6406 C139.7656,266.2344 140.0938,265.7813 140.0938,265.3906 C140.0938,264.9375 139.7031,264.5469 139.2344,264.5469 C139.0156,264.5469 138.8125,264.625 138.625,264.8125 C138.1719,265.2969 138.1719,265.2969 137.9844,265.3906 C137.5625,265.6563 136.875,265.7813 136.1094,265.7813 C134.0625,265.7813 132.7656,264.6875 132.7656,262.9844 L132.7656,261.8906 C132.7656,260.1094 134.0156,258.7969 135.75,258.7969 C136.3281,258.7969 136.9375,258.9531 137.4063,259.2031 C137.8906,259.4844 138.0625,259.7031 138.1563,260.1094 C138.2188,260.5156 138.25,260.6406 138.3906,260.7656 C138.5313,260.9063 138.7656,261.0156 138.9844,261.0156 C139.25,261.0156 139.5156,260.875 139.6875,260.6563 C139.7969,260.5 139.8281,260.3125 139.8281,259.8906 L139.8281,258.4688 C139.8281,258.0313 139.8125,257.9063 139.7188,257.75 C139.5625,257.4844 139.2813,257.3438 138.9844,257.3438 C138.6875,257.3438 138.4844,257.4375 138.2656,257.75 L138.0938,257.6719 Z " fill="#000000"/><text fill="#000000" font-family="sans-serif" font-size="14" lengthAdjust="spacing" textLength="105" x="156.25" y="266.8467">DataContainer</text><line style="stroke:#181818;stroke-width:0.5;" x1="86" x2="299" y1="278" y2="278"/><line style="stroke:#181818;stroke-width:0.5;" x1="86" x2="299" y1="286" y2="286"/><ellipse cx="96" cy="297" fill="#84BE84" rx="3" ry="3" style="stroke:#038048;stroke-width:1.0;"/><text fill="#000000" font-family="sans-serif" font-size="14" lengthAdjust="spacing" textLength="65" x="105" y="302.9951">fill(value)</text><ellipse cx="96" cy="313.2969" fill="#84BE84" rx="3" ry="3" style="stroke:#038048;stroke-width:1.0;"/><text fill="#000000" font-family="sans-serif" font-size="14" lengthAdjust="spacing" textLength="189" x="105" y="319.292">generate(function, args...)</text><ellipse cx="96" cy="329.5938" fill="#84BE84" rx="3" ry="3" style="stroke:#038048;stroke-width:1.0;"/><text fill="#000000" font-family="sans-serif" font-size="14" lengthAdjust="spacing" textLength="163" x="105" y="335.5889">apply(function, args...)</text><ellipse cx="96" cy="345.8906" fill="#84BE84" rx="3" ry="3" style="stroke:#038048;stroke-width:1.0;"/><text fill="#000000" font-family="sans-serif" font-size="14" lengthAdjust="spacing" textLength="79" x="105" y="351.8857">container()</text><ellipse cx="96" cy="362.1875" fill="#84BE84" rx="3" ry="3" style="stroke:#038048;stroke-width:1.0;"/><text fill="#000000" font-family="sans-serif" font-size="14" lengthAdjust="spacing" textLength="137" x="105" y="368.1826">moveTo(container)</text></g><!--MD5=[d6c7210f6a405aef6716c1d411807fba]
class Raster--><g id="elem_Raster"><rect codeLine="15" fill="#F1F1F1" height="178.375" id="Raster" rx="2.5" ry="2.5" style="stroke:#181818;stroke-width:0.5;" width="169" x="324" y="468"/><ellipse cx="380.75" cy="484" fill="#ADD1B2" rx="11" ry="11" style="stroke:#181818;stroke-width:1.0;"/><path d="M383.0938,479.6719 C382.1563,479.2344 381.5625,479.0938 380.6875,479.0938 C378.0625,479.0938 376.0625,481.1719 376.0625,483.8906 L376.0625,485.0156 C376.0625,487.5938 378.1719,489.4844 381.0625,489.4844 C382.2813,489.4844 383.4375,489.1875 384.1875,488.6406 C384.7656,488.2344 385.0938,487.7813 385.0938,487.3906 C385.0938,486.9375 384.7031,486.5469 384.2344,486.5469 C384.0156,486.5469 383.8125,486.625 383.625,486.8125 C383.1719,487.2969 383.1719,487.2969 382.9844,487.3906 C382.5625,487.6563 381.875,487.7813 381.1094,487.7813 C379.0625,487.7813 377.7656,486.6875 377.7656,484.9844 L377.7656,483.8906 C377.7656,482.1094 379.0156,480.7969 380.75,480.7969 C381.3281,480.7969 381.9375,480.9531 382.4063,481.2031 C382.8906,481.4844 383.0625,481.7031 383.1563,482.1094 C383.2188,482.5156 383.25,482.6406 383.3906,482.7656 C383.5313,482.9063 383.7656,483.0156 383.9844,483.0156 C384.25,483.0156 384.5156,482.875 384.6875,482.6563 C384.7969,482.5 384.8281,482.3125 384.8281,481.8906 L384.8281,480.4688 C384.8281,480.0313 384.8125,479.9063 384.7188,479.75 C384.5625,479.4844 384.2813,479.3438 383.9844,479.3438 C383.6875,479.3438 383.4844,479.4375 383.2656,479.75 L383.0938,479.6719 Z " fill="#000000"/><text fill="#000000" font-family="sans-serif" font-size="14" lengthAdjust="spacing" textLength="47" x="401.25" y="488.8467">Raster</text><line style="stroke:#181818;stroke-width:0.5;" x1="325" x2="492" y1="500" y2="500"/><line style="stroke:#181818;stroke-width:0.5;" x1="325" x2="492" y1="508" y2="508"/><ellipse cx="335" cy="519" fill="#84BE84" rx="3" ry="3" style="stroke:#038048;stroke-width:1.0;"/><text fill="#000000" font-family="sans-serif" font-size="14" lengthAdjust="spacing" textLength="53" x="344" y="524.9951">shape()</text><ellipse cx="335" cy="535.2969" fill="#84BE84" rx="3" ry="3" style="stroke:#038048;stroke-width:1.0;"/><text fill="#000000" font-family="sans-serif" font-size="14" lengthAdjust="spacing" textLength="63" x="344" y="541.292">domain()</text><ellipse cx="335" cy="551.5938" fill="#84BE84" rx="3" ry="3" style="stroke:#038048;stroke-width:1.0;"/><text fill="#000000" font-family="sans-serif" font-size="14" lengthAdjust="spacing" textLength="84" x="344" y="557.5889">dimension()</text><ellipse cx="335" cy="567.8906" fill="#84BE84" rx="3" ry="3" style="stroke:#038048;stroke-width:1.0;"/><text fill="#000000" font-family="sans-serif" font-size="14" lengthAdjust="spacing" textLength="84" x="344" y="573.8857">length(axis)</text><ellipse cx="335" cy="584.1875" fill="#84BE84" rx="3" ry="3" style="stroke:#038048;stroke-width:1.0;"/><text fill="#000000" font-family="sans-serif" font-size="14" lengthAdjust="spacing" textLength="143" x="344" y="590.1826">operator[](position)</text><ellipse cx="335" cy="600.4844" fill="#84BE84" rx="3" ry="3" style="stroke:#038048;stroke-width:1.0;"/><text fill="#000000" font-family="sans-serif" font-size="14" lengthAdjust="spacing" textLength="84" x="344" y="606.4795">at(position)</text><ellipse cx="335" cy="616.7813" fill="#84BE84" rx="3" ry="3" style="stroke:#038048;stroke-width:1.0;"/><text fill="#000000" font-family="sans-serif" font-size="14" lengthAdjust="spacing" textLength="143" x="344" y="622.7764">section(front, back)</text><ellipse cx="335" cy="633.0781" fill="#84BE84" rx="3" ry="3" style="stroke:#038048;stroke-width:1.0;"/><text fill="#000000" font-family="sans-serif" font-size="14" lengthAdjust="spacing" textLength="102" x="344" y="639.0732">section(index)</text></g><!--MD5=[98de1fd5f791a5eb965405ed9bc47427]
class ContiguousContainerMixin--><g id="elem_ContiguousContainerMixin"><rect codeLine="26" fill="#F1F1F1" height="145.7813" id="ContiguousContainerMixin" rx="2.5" ry="2.5" style="stroke:#181818;stroke-width:0.5;" width="220" x="193.5" y="7"/><ellipse cx="208.5" cy="23" fill="#ADD1B2" rx="11" ry="11" style="stroke:#181818;stroke-width:1.0;"/><path d="M210.8438,18.6719 C209.9063,18.2344 209.3125,18.0938 208.4375,18.0938 C205.8125,18.0938 203.8125,20.1719 203.8125,22.8906 L203.8125,24.0156 C203.8125,26.5938 205.9219,28.4844 208.8125,28.4844 C210.0313,28.4844 211.1875,28.1875 211.9375,27.6406 C212.5156,27.2344 212.8438,26.7813 212.8438,26.3906 C212.8438,25.9375 212.4531,25.5469 211.9844,25.5469 C211.7656,25.5469 211.5625,25.625 211.375,25.8125 C210.9219,26.2969 210.9219,26.2969 210.7344,26.3906 C210.3125,26.6563 209.625,26.7813 208.8594,26.7813 C206.8125,26.7813 205.5156,25.6875 205.5156,23.9844 L205.5156,22.8906 C205.5156,21.1094 206.7656,19.7969 208.5,19.7969 C209.0781,19.7969 209.6875,19.9531 210.1563,20.2031 C210.6406,20.4844 210.8125,20.7031 210.9063,21.1094 C210.9688,21.5156 211,21.6406 211.1406,21.7656 C211.2813,21.9063 211.5156,22.0156 211.7344,22.0156 C212,22.0156 212.2656,21.875 212.4375,21.6563 C212.5469,21.5 212.5781,21.3125 212.5781,20.8906 L212.5781,19.4688 C212.5781,19.0313 212.5625,18.9063 212.4688,18.75 C212.3125,18.4844 212.0313,18.3438 211.7344,18.3438 C211.4375,18.3438 211.2344,18.4375 211.0156,18.75 L210.8438,18.6719 Z " fill="#000000"/><text fill="#000000" font-family="sans-serif" font-size="14" lengthAdjust="spacing" textLength="188" x="222.5" y="27.8467">ContiguousContainerMixin</text><line style="stroke:#181818;stroke-width:0.5;" x1="194.5" x2="412.5" y1="39" y2="39"/><line style="stroke:#181818;stroke-width:0.5;" x1="194.5" x2="412.5" y1="47" y2="47"/><ellipse cx="204.5" cy="58" fill="#84BE84" rx="3" ry="3" style="stroke:#038048;stroke-width:1.0;"/><text fill="#000000" font-family="sans-serif" font-size="14" lengthAdjust="spacing" textLength="58" x="213.5" y="63.9951">empty()</text><ellipse cx="204.5" cy="74.2969" fill="#84BE84" rx="3" ry="3" style="stroke:#038048;stroke-width:1.0;"/><text fill="#000000" font-family="sans-serif" font-size="14" lengthAdjust="spacing" textLength="123" x="213.5" y="80.292">operator[](index)</text><ellipse cx="204.5" cy="90.5938" fill="#84BE84" rx="3" ry="3" style="stroke:#038048;stroke-width:1.0;"/><text fill="#000000" font-family="sans-serif" font-size="14" lengthAdjust="spacing" textLength="51" x="213.5" y="96.5889">begin()</text><ellipse cx="204.5" cy="106.8906" fill="#84BE84" rx="3" ry="3" style="stroke:#038048;stroke-width:1.0;"/><text fill="#000000" font-family="sans-serif" font-size="14" lengthAdjust="spacing" textLength="37" x="213.5" y="112.8857">end()</text><ellipse cx="204.5" cy="123.1875" fill="#84BE84" rx="3" ry="3" style="stroke:#038048;stroke-width:1.0;"/><text fill="#000000" font-family="sans-serif" font-size="14" lengthAdjust="spacing" textLength="96" x="213.5" y="129.1826">operator==()</text><ellipse cx="204.5" cy="139.4844" fill="#84BE84" rx="3" ry="3" style="stroke:#038048;stroke-width:1.0;"/><text fill="#000000" font-family="sans-serif" font-size="14" lengthAdjust="spacing" textLength="90" x="213.5" y="145.4795">operator!=()</text></g><!--MD5=[7ea5b70645eecf22a5e153194904c6e8]
class ArithmeticMixin--><g id="elem_ArithmeticMixin"><rect codeLine="35" fill="#F1F1F1" height="129.4844" id="ArithmeticMixin" rx="2.5" ry="2.5" style="stroke:#181818;stroke-width:0.5;" width="147" x="335" y="246"/><ellipse cx="350" cy="262" fill="#ADD1B2" rx="11" ry="11" style="stroke:#181818;stroke-width:1.0;"/><path d="M352.3438,257.6719 C351.4063,257.2344 350.8125,257.0938 349.9375,257.0938 C347.3125,257.0938 345.3125,259.1719 345.3125,261.8906 L345.3125,263.0156 C345.3125,265.5938 347.4219,267.4844 350.3125,267.4844 C351.5313,267.4844 352.6875,267.1875 353.4375,266.6406 C354.0156,266.2344 354.3438,265.7813 354.3438,265.3906 C354.3438,264.9375 353.9531,264.5469 353.4844,264.5469 C353.2656,264.5469 353.0625,264.625 352.875,264.8125 C352.4219,265.2969 352.4219,265.2969 352.2344,265.3906 C351.8125,265.6563 351.125,265.7813 350.3594,265.7813 C348.3125,265.7813 347.0156,264.6875 347.0156,262.9844 L347.0156,261.8906 C347.0156,260.1094 348.2656,258.7969 350,258.7969 C350.5781,258.7969 351.1875,258.9531 351.6563,259.2031 C352.1406,259.4844 352.3125,259.7031 352.4063,260.1094 C352.4688,260.5156 352.5,260.6406 352.6406,260.7656 C352.7813,260.9063 353.0156,261.0156 353.2344,261.0156 C353.5,261.0156 353.7656,260.875 353.9375,260.6563 C354.0469,260.5 354.0781,260.3125 354.0781,259.8906 L354.0781,258.4688 C354.0781,258.0313 354.0625,257.9063 353.9688,257.75 C353.8125,257.4844 353.5313,257.3438 353.2344,257.3438 C352.9375,257.3438 352.7344,257.4375 352.5156,257.75 L352.3438,257.6719 Z " fill="#000000"/><text fill="#000000" font-family="sans-serif" font-size="14" lengthAdjust="spacing" textLength="115" x="364" y="266.8467">ArithmeticMixin</text><line style="stroke:#181818;stroke-width:0.5;" x1="336" x2="481" y1="278" y2="278"/><line style="stroke:#181818;stroke-width:0.5;" x1="336" x2="481" y1="286" y2="286"/><ellipse cx="346" cy="297" fill="#84BE84" rx="3" ry="3" style="stroke:#038048;stroke-width:1.0;"/><text fill="#000000" font-family="sans-serif" font-size="14" lengthAdjust="spacing" textLength="118" x="355" y="302.9951">operator+=(rhs)</text><ellipse cx="346" cy="313.2969" fill="#84BE84" rx="3" ry="3" style="stroke:#038048;stroke-width:1.0;"/><text fill="#000000" font-family="sans-serif" font-size="14" lengthAdjust="spacing" textLength="113" x="355" y="319.292">operator-=(rhs)</text><ellipse cx="346" cy="329.5938" fill="#84BE84" rx="3" ry="3" style="stroke:#038048;stroke-width:1.0;"/><text fill="#000000" font-family="sans-serif" font-size="14" lengthAdjust="spacing" textLength="114" x="355" y="335.5889">operator*=(rhs)</text><ellipse cx="346" cy="345.8906" fill="#84BE84" rx="3" ry="3" style="stroke:#038048;stroke-width:1.0;"/><text fill="#000000" font-family="sans-serif" font-size="14" lengthAdjust="spacing" textLength="112" x="355" y="351.8857">operator/=(rhs)</text><ellipse cx="346" cy="362.1875" fill="#84BE84" rx="3" ry="3" style="stroke:#038048;stroke-width:1.0;"/><text fill="#000000" font-family="sans-serif" font-size="14" lengthAdjust="spacing" textLength="15" x="355" y="368.1826">...</text></g><!--MD5=[ab20313c583242bc3b454d7c1a4be869]
class MathFunctionsMixin--><g id="elem_MathFunctionsMixin"><rect codeLine="43" fill="#F1F1F1" height="194.6719" id="MathFunctionsMixin" rx="2.5" ry="2.5" style="stroke:#181818;stroke-width:0.5;" width="174" x="517.5" y="213"/><ellipse cx="532.5" cy="229" fill="#ADD1B2" rx="11" ry="11" style="stroke:#181818;stroke-width:1.0;"/><path d="M534.8438,224.6719 C533.9063,224.2344 533.3125,224.0938 532.4375,224.0938 C529.8125,224.0938 527.8125,226.1719 527.8125,228.8906 L527.8125,230.0156 C527.8125,232.5938 529.9219,234.4844 532.8125,234.4844 C534.0313,234.4844 535.1875,234.1875 535.9375,233.6406 C536.5156,233.2344 536.8438,232.7813 536.8438,232.3906 C536.8438,231.9375 536.4531,231.5469 535.9844,231.5469 C535.7656,231.5469 535.5625,231.625 535.375,231.8125 C534.9219,232.2969 534.9219,232.2969 534.7344,232.3906 C534.3125,232.6563 533.625,232.7813 532.8594,232.7813 C530.8125,232.7813 529.5156,231.6875 529.5156,229.9844 L529.5156,228.8906 C529.5156,227.1094 530.7656,225.7969 532.5,225.7969 C533.0781,225.7969 533.6875,225.9531 534.1563,226.2031 C534.6406,226.4844 534.8125,226.7031 534.9063,227.1094 C534.9688,227.5156 535,227.6406 535.1406,227.7656 C535.2813,227.9063 535.5156,228.0156 535.7344,228.0156 C536,228.0156 536.2656,227.875 536.4375,227.6563 C536.5469,227.5 536.5781,227.3125 536.5781,226.8906 L536.5781,225.4688 C536.5781,225.0313 536.5625,224.9063 536.4688,224.75 C536.3125,224.4844 536.0313,224.3438 535.7344,224.3438 C535.4375,224.3438 535.2344,224.4375 535.0156,224.75 L534.8438,224.6719 Z " fill="#000000"/><text fill="#000000" font-family="sans-serif" font-size="14" lengthAdjust="spacing" textLength="142" x="546.5" y="233.8467">MathFunctionsMixin</text><line style="stroke:#181818;stroke-width:0.5;" x1="518.5" x2="690.5" y1="245" y2="245"/><line style="stroke:#181818;stroke-width:0.5;" x1="518.5" x2="690.5" y1="253" y2="253"/><ellipse cx="528.5" cy="264" fill="#84BE84" rx="3" ry="3" style="stroke:#038048;stroke-width:1.0;"/><text fill="#000000" font-family="sans-serif" font-size="14" lengthAdjust="spacing" textLength="35" x="537.5" y="269.9951">abs()</text><ellipse cx="528.5" cy="280.2969" fill="#84BE84" rx="3" ry="3" style="stroke:#038048;stroke-width:1.0;"/><text fill="#000000" font-family="sans-serif" font-size="14" lengthAdjust="spacing" textLength="59" x="537.5" y="286.292">min(rhs)</text><ellipse cx="528.5" cy="296.5938" fill="#84BE84" rx="3" ry="3" style="stroke:#038048;stroke-width:1.0;"/><text fill="#000000" font-family="sans-serif" font-size="14" lengthAdjust="spacing" textLength="62" x="537.5" y="302.5889">max(rhs)</text><ellipse cx="528.5" cy="312.8906" fill="#84BE84" rx="3" ry="3" style="stroke:#038048;stroke-width:1.0;"/><text fill="#000000" font-family="sans-serif" font-size="14" lengthAdjust="spacing" textLength="30" x="537.5" y="318.8857">sin()</text><ellipse cx="528.5" cy="329.1875" fill="#84BE84" rx="3" ry="3" style="stroke:#038048;stroke-width:1.0;"/><text fill="#000000" font-family="sans-serif" font-size="14" lengthAdjust="spacing" textLength="34" x="537.5" y="335.1826">cos()</text><ellipse cx="528.5" cy="345.4844" fill="#84BE84" rx="3" ry="3" style="stroke:#038048;stroke-width:1.0;"/><text fill="#000000" font-family="sans-serif" font-size="14" lengthAdjust="spacing" textLength="37" x="537.5" y="351.4795">exp()</text><ellipse cx="528.5" cy="361.7813" fill="#84BE84" rx="3" ry="3" style="stroke:#038048;stroke-width:1.0;"/><text fill="#000000" font-family="sans-serif" font-size="14" lengthAdjust="spacing" textLength="32" x="537.5" y="367.7764">log()</text><ellipse cx="528.5" cy="378.0781" fill="#84BE84" rx="3" ry="3" style="stroke:#038048;stroke-width:1.0;"/><text fill="#000000" font-family="sans-serif" font-size="14" lengthAdjust="spacing" textLength="62" x="537.5" y="384.0732">pow(rhs)</text><ellipse cx="528.5" cy="394.375" fill="#84BE84" rx="3" ry="3" style="stroke:#038048;stroke-width:1.0;"/><text fill="#000000" font-family="sans-serif" font-size="14" lengthAdjust="spacing" textLength="15" x="537.5" y="400.3701">...</text></g><!--MD5=[fbc29ac5c9242f63c38a3cc1544e1374]
reverse link ContiguousContainerMixin to DataContainer--><g id="link_ContiguousContainerMixin_DataContainer"><path codeLine="55" d="M259.546,171.483 C247.47,196.34 234.632,222.768 223.457,245.774 " fill="none" id="ContiguousContainerMixin-backto-DataContainer" style="stroke:#181818;stroke-width:1.0;"/><polygon fill="none" points="253.343,168.23,268.379,153.299,265.936,174.347,253.343,168.23" style="stroke:#181818;stroke-width:1.0;"/></g><!--MD5=[e7bf3e49b8a7cf190ef7c6d1ff2ab488]
reverse link Holder to DataContainer--><g id="link_Holder_DataContainer"><path codeLine="56" d="M114.12,146.684 C129.132,177.868 146.999,214.982 161.881,245.895 " fill="none" id="Holder-backto-DataContainer" style="stroke:#181818;stroke-width:1.0;"/><polygon fill="none" points="107.794,149.68,105.4257,128.623,120.408,143.607,107.794,149.68" style="stroke:#181818;stroke-width:1.0;"/></g><!--MD5=[c184a1a033af6250647d84cc50565c44]
reverse link DataContainer to Raster--><g id="link_DataContainer_Raster"><path codeLine="57" d="M261.97,390.136 C283.869,414.924 308.2,442.466 330.643,467.87 " fill="none" id="DataContainer-backto-Raster" style="stroke:#181818;stroke-width:1.0;"/><polygon fill="none" points="256.683,394.725,248.688,375.101,267.175,385.455,256.683,394.725" style="stroke:#181818;stroke-width:1.0;"/></g><!--MD5=[46f487ccbfe9d7912931f357666a6ef8]
reverse link ArithmeticMixin to Raster--><g id="link_ArithmeticMixin_Raster"><path codeLine="58" d="M408.5,395.437 C408.5,418.811 408.5,444.263 408.5,467.87 " fill="none" id="ArithmeticMixin-backto-Raster" style="stroke:#181818;stroke-width:1.0;"/><polygon fill="none" points="401.5,395.101,408.5,375.101,415.5,395.101,401.5,395.101" style="stroke:#181818;stroke-width:1.0;"/></g><!--MD5=[497cbc630d406faa48c4bbb7dcad4ea0]
reverse link MathFunctionsMixin to Raster--><g id="link_MathFunctionsMixin_Raster"><path codeLine="59" d="M514.377,423.924 C502.627,438.582 490.724,453.429 479.351,467.616 " fill="none" id="MathFunctionsMixin-backto-Raster" style="stroke:#181818;stroke-width:1.0;"/><polygon fill="none" points="509.064,419.359,527.036,408.133,519.988,428.116,509.064,419.359" style="stroke:#181818;stroke-width:1.0;"/></g><!--MD5=[2d4083783ababb8368807065f2c04840]
@startuml
class Holder {
+ Holder(size, data)
+ size()
+ data()
}

class DataContainer {
+ fill(value)
+ generate(function, args...)
+ apply(function, args...)
+ container()
+ moveTo(container)
}

class Raster {
+ shape()
+ domain()
+ dimension()
+ length(axis)
+ operator[](position)
+ at(position)
+ section(front, back)
+ section(index)
}

class ContiguousContainerMixin {
+ empty()
+ operator[](index)
+ begin()
+ end()
+ operator==()
+ operator!=()
}

class ArithmeticMixin {
+ operator+=(rhs)
+ operator-=(rhs)
+ operator*=(rhs)
+ operator/=(rhs)
+ {method}...
}

class MathFunctionsMixin {
+ abs()
+ min(rhs)
+ max(rhs)
+ sin()
+ cos()
+ exp()
+ log()
+ pow(rhs)
+ {method}...
}

ContiguousContainerMixin <|- - DataContainer
Holder <|- - DataContainer
DataContainer <|- - Raster
ArithmeticMixin <|- - Raster
MathFunctionsMixin <|- - Raster
@enduml

PlantUML version 1.2022.6beta5(Unknown compile time)
(GPL source distribution)
Java Runtime: Java(TM) SE Runtime Environment
JVM: Java HotSpot(TM) 64-Bit Server VM
Default Encoding: UTF-8
Language: en
Country: US
--></g></svg>