<?xml version="1.0" encoding="UTF-8"?>
<!DOCTYPE svg PUBLIC "-//W3C//DTD SVG 1.1//EN" "http://www.w3.org/Graphics/SVG/1.1/DTD/svg11.dtd">
<svg version="1.2" width="381mm" height="127mm" viewBox="0 0 38100 12700" preserveAspectRatio="xMidYMid" fill-rule="evenodd" stroke-width="28.222" stroke-linejoin="round" xmlns="http://www.w3.org/2000/svg" xmlns:ooo="http://xml.openoffice.org/svg/export" xmlns:xlink="http://www.w3.org/1999/xlink" xmlns:presentation="http://sun.com/xmlns/staroffice/presentation" xmlns:smil="http://www.w3.org/2001/SMIL20/" xmlns:anim="urn:oasis:names:tc:opendocument:xmlns:animation:1.0" xml:space="preserve">
 <defs class="ClipPathGroup">
  <clipPath id="presentation_clip_path" clipPathUnits="userSpaceOnUse">
   <rect x="0" y="0" width="38100" height="12700"/>
  </clipPath>
  <clipPath id="presentation_clip_path_shrink" clipPathUnits="userSpaceOnUse">
   <rect x="38" y="12" width="38024" height="12675"/>
  </clipPath>
 </defs>
 <defs class="TextShapeIndex">
  <g ooo:slide="id1" ooo:id-list="id3 id4 id5 id6 id7 id8 id9 id10 id11 id12 id13 id14 id15 id16 id17 id18 id19 id20 id21 id22 id23 id24 id25 id26 id27 id28 id29 id30 id31 id32 id33 id34 id35 id36 id37 id38 id39 id40 id41 id42 id43 id44 id45"/>
 </defs>
 <defs class="EmbeddedBulletChars">
  <g id="bullet-char-template-57356" transform="scale(0.00048828125,-0.00048828125)">
   <path d="M 580,1141 L 1163,571 580,0 -4,571 580,1141 Z"/>
  </g>
  <g id="bullet-char-template-57354" transform="scale(0.00048828125,-0.00048828125)">
   <path d="M 8,1128 L 1137,1128 1137,0 8,0 8,1128 Z"/>
  </g>
  <g id="bullet-char-template-10146" transform="scale(0.00048828125,-0.00048828125)">
   <path d="M 174,0 L 602,739 174,1481 1456,739 174,0 Z M 1358,739 L 309,1346 659,739 1358,739 Z"/>
  </g>
  <g id="bullet-char-template-10132" transform="scale(0.00048828125,-0.00048828125)">
   <path d="M 2015,739 L 1276,0 717,0 1260,543 174,543 174,936 1260,936 717,1481 1274,1481 2015,739 Z"/>
  </g>
  <g id="bullet-char-template-10007" transform="scale(0.00048828125,-0.00048828125)">
   <path d="M 0,-2 C -7,14 -16,27 -25,37 L 356,567 C 262,823 215,952 215,954 215,979 228,992 255,992 264,992 276,990 289,987 310,991 331,999 354,1012 L 381,999 492,748 772,1049 836,1024 860,1049 C 881,1039 901,1025 922,1006 886,937 835,863 770,784 769,783 710,716 594,584 L 774,223 C 774,196 753,168 711,139 L 727,119 C 717,90 699,76 672,76 641,76 570,178 457,381 L 164,-76 C 142,-110 111,-127 72,-127 30,-127 9,-110 8,-76 1,-67 -2,-52 -2,-32 -2,-23 -1,-13 0,-2 Z"/>
  </g>
  <g id="bullet-char-template-10004" transform="scale(0.00048828125,-0.00048828125)">
   <path d="M 285,-33 C 182,-33 111,30 74,156 52,228 41,333 41,471 41,549 55,616 82,672 116,743 169,778 240,778 293,778 328,747 346,684 L 369,508 C 377,444 397,411 428,410 L 1163,1116 C 1174,1127 1196,1133 1229,1133 1271,1133 1292,1118 1292,1087 L 1292,965 C 1292,929 1282,901 1262,881 L 442,47 C 390,-6 338,-33 285,-33 Z"/>
  </g>
  <g id="bullet-char-template-9679" transform="scale(0.00048828125,-0.00048828125)">
   <path d="M 813,0 C 632,0 489,54 383,161 276,268 223,411 223,592 223,773 276,916 383,1023 489,1130 632,1184 813,1184 992,1184 1136,1130 1245,1023 1353,916 1407,772 1407,592 1407,412 1353,268 1245,161 1136,54 992,0 813,0 Z"/>
  </g>
  <g id="bullet-char-template-8226" transform="scale(0.00048828125,-0.00048828125)">
   <path d="M 346,457 C 273,457 209,483 155,535 101,586 74,649 74,723 74,796 101,859 155,911 209,963 273,989 346,989 419,989 480,963 531,910 582,859 608,796 608,723 608,648 583,586 532,535 482,483 420,457 346,457 Z"/>
  </g>
  <g id="bullet-char-template-8211" transform="scale(0.00048828125,-0.00048828125)">
   <path d="M -4,459 L 1135,459 1135,606 -4,606 -4,459 Z"/>
  </g>
  <g id="bullet-char-template-61548" transform="scale(0.00048828125,-0.00048828125)">
   <path d="M 173,740 C 173,903 231,1043 346,1159 462,1274 601,1332 765,1332 928,1332 1067,1274 1183,1159 1299,1043 1357,903 1357,740 1357,577 1299,437 1183,322 1067,206 928,148 765,148 601,148 462,206 346,322 231,437 173,577 173,740 Z"/>
  </g>
 </defs>
 <g>
  <g id="id2" class="Master_Slide">
   <g id="bg-id2" class="Background"/>
   <g id="bo-id2" class="BackgroundObjects"/>
  </g>
 </g>
 <g class="SlideGroup">
  <g>
   <g id="container-id1">
    <g id="id1" class="Slide" clip-path="url(#presentation_clip_path)">
     <g class="Page">
      <g class="Group">
       <g class="com.sun.star.drawing.CustomShape">
        <g id="id3">
         <rect class="BoundingBox" stroke="none" fill="none" x="6348" y="1442" width="4832" height="4910"/>
         <g>
          <defs>
           <linearGradient id="gradient1" x1="7096" y1="1010" x2="10430" y2="6782" gradientUnits="userSpaceOnUse">
            <stop offset="0" style="stop-color:rgb(255,255,0)"/>
            <stop offset="1" style="stop-color:rgb(0,169,51)"/>
           </linearGradient>
          </defs>
          <path style="fill:url(#gradient1)" d="M 11178,5014 L 6349,6350 7664,1442 11178,5014 Z"/>
         </g>
        </g>
       </g>
       <g class="com.sun.star.drawing.CustomShape">
        <g id="id4">
         <rect class="BoundingBox" stroke="none" fill="none" x="2844" y="1441" width="4824" height="4910"/>
         <g>
          <defs>
           <linearGradient id="gradient2" x1="3590" y1="1011" x2="6921" y2="6780" gradientUnits="userSpaceOnUse">
            <stop offset="0" style="stop-color:rgb(255,255,0)"/>
            <stop offset="1" style="stop-color:rgb(0,169,51)"/>
           </linearGradient>
          </defs>
          <path style="fill:url(#gradient2)" d="M 2844,2780 L 7666,1442 6351,6349 2844,2780 Z"/>
         </g>
        </g>
       </g>
       <g class="com.sun.star.drawing.CustomShape">
        <g id="id5">
         <rect class="BoundingBox" stroke="none" fill="none" x="1519" y="2778" width="4832" height="4910"/>
         <g>
          <defs>
           <linearGradient id="gradient3" x1="2267" y1="2346" x2="5601" y2="8118" gradientUnits="userSpaceOnUse">
            <stop offset="0" style="stop-color:rgb(255,255,0)"/>
            <stop offset="1" style="stop-color:rgb(255,0,0)"/>
           </linearGradient>
          </defs>
          <path style="fill:url(#gradient3)" d="M 6349,6350 L 1520,7686 2835,2778 6349,6350 Z"/>
         </g>
        </g>
       </g>
       <g class="com.sun.star.drawing.CustomShape">
        <g id="id6">
         <rect class="BoundingBox" stroke="none" fill="none" x="6350" y="5012" width="4832" height="4910"/>
         <g>
          <defs>
           <linearGradient id="gradient4" x1="7098" y1="4581" x2="10432" y2="10353" gradientUnits="userSpaceOnUse">
            <stop offset="0" style="stop-color:rgb(42,96,153)"/>
            <stop offset="1" style="stop-color:rgb(85,48,141)"/>
           </linearGradient>
          </defs>
          <path style="fill:url(#gradient4)" d="M 6351,6349 L 11180,5013 9865,9921 6351,6349 Z"/>
         </g>
        </g>
       </g>
       <g class="com.sun.star.drawing.CustomShape">
        <g id="id7">
         <rect class="BoundingBox" stroke="none" fill="none" x="1529" y="6348" width="4824" height="4910"/>
         <g>
          <defs>
           <linearGradient id="gradient5" x1="2275" y1="5918" x2="5606" y2="11687" gradientUnits="userSpaceOnUse">
            <stop offset="0" style="stop-color:rgb(255,255,0)"/>
            <stop offset="1" style="stop-color:rgb(255,0,0)"/>
           </linearGradient>
          </defs>
          <path style="fill:url(#gradient5)" d="M 1529,7687 L 6351,6349 5036,11256 1529,7687 Z"/>
         </g>
        </g>
       </g>
       <g class="com.sun.star.drawing.CustomShape">
        <g id="id8">
         <rect class="BoundingBox" stroke="none" fill="none" x="5033" y="6349" width="4824" height="4910"/>
         <g>
          <defs>
           <linearGradient id="gradient6" x1="5780" y1="5919" x2="9111" y2="11688" gradientUnits="userSpaceOnUse">
            <stop offset="0" style="stop-color:rgb(42,96,153)"/>
            <stop offset="1" style="stop-color:rgb(85,48,141)"/>
           </linearGradient>
          </defs>
          <path style="fill:url(#gradient6)" d="M 9856,9919 L 5034,11257 6349,6350 9856,9919 Z"/>
         </g>
        </g>
       </g>
       <g class="com.sun.star.drawing.CustomShape">
        <g id="id9">
         <rect class="BoundingBox" stroke="none" fill="none" x="4837" y="3896" width="3684" height="2456"/>
         <path fill="rgb(129,212,26)" stroke="none" d="M 7007,3896 L 8519,5616 6349,6351 4838,4630 7007,3896 7007,3896 Z"/>
        </g>
       </g>
       <g class="com.sun.star.drawing.CustomShape">
        <g id="id10">
         <rect class="BoundingBox" stroke="none" fill="none" x="4593" y="3897" width="4174" height="2456"/>
         <g>
          <defs>
           <linearGradient id="gradient7" x1="5626" y1="3301" x2="7732" y2="6948" gradientUnits="userSpaceOnUse">
            <stop offset="0" style="stop-color:rgb(255,255,0)"/>
            <stop offset="1" style="stop-color:rgb(0,169,51)"/>
           </linearGradient>
          </defs>
          <path style="fill:url(#gradient7)" d="M 7008,3897 L 8765,5683 6350,6352 4594,4565 7008,3897 7008,3897 Z"/>
         </g>
        </g>
       </g>
       <g class="com.sun.star.drawing.CustomShape">
        <g id="id11">
         <rect class="BoundingBox" stroke="none" fill="none" x="3936" y="4562" width="2415" height="4242"/>
         <g>
          <defs>
           <linearGradient id="gradient8" x1="3923" y1="4569" x2="6364" y2="8796" gradientUnits="userSpaceOnUse">
            <stop offset="0" style="stop-color:rgb(255,255,0)"/>
            <stop offset="1" style="stop-color:rgb(255,0,0)"/>
           </linearGradient>
          </defs>
          <path style="fill:url(#gradient8)" d="M 3936,7013 L 4593,4562 6350,6353 5693,8803 3936,7013 Z"/>
         </g>
        </g>
       </g>
       <g class="com.sun.star.drawing.CustomShape">
        <g id="id12">
         <rect class="BoundingBox" stroke="none" fill="none" x="5683" y="5678" width="3075" height="3124"/>
         <g>
          <defs>
           <linearGradient id="gradient9" x1="6160" y1="5403" x2="8281" y2="9076" gradientUnits="userSpaceOnUse">
            <stop offset="0" style="stop-color:rgb(42,96,153)"/>
            <stop offset="1" style="stop-color:rgb(128,0,128)"/>
           </linearGradient>
          </defs>
          <path style="fill:url(#gradient9)" d="M 8100,8129 L 8757,5678 6340,6351 5684,8801 8100,8129 Z"/>
         </g>
        </g>
       </g>
      </g>
      <g class="Group">
       <g class="Group">
        <g class="com.sun.star.drawing.ClosedBezierShape">
         <g id="id13">
          <rect class="BoundingBox" stroke="none" fill="none" x="13053" y="3817" width="1449" height="5717"/>
          <path fill="rgb(128,0,128)" stroke="none" d="M 14501,9164 L 14456,9533 C 13521,9488 13053,8822 13053,7531 L 13053,3817 13496,3817 13496,7377 C 13496,7656 13508,7894 13533,8086 13557,8277 13602,8462 13669,8639 13737,8817 13838,8949 13976,9035 14114,9120 14288,9164 14501,9164 Z"/>
         </g>
        </g>
        <g class="com.sun.star.drawing.PolyPolygonShape">
         <g id="id14">
          <rect class="BoundingBox" stroke="none" fill="none" x="14379" y="5131" width="445" height="3775"/>
          <path fill="rgb(128,0,128)" stroke="none" d="M 14823,8905 L 14380,8905 14380,5132 14823,5132 14823,8905 Z"/>
         </g>
        </g>
        <g class="com.sun.star.drawing.ClosedBezierShape">
         <g id="id15">
          <rect class="BoundingBox" stroke="none" fill="none" x="14247" y="3980" width="695" height="696"/>
          <path fill="rgb(128,0,128)" stroke="none" d="M 14587,3981 C 14690,3981 14776,4014 14842,4080 14908,4147 14941,4232 14941,4335 14941,4438 14908,4522 14842,4583 14776,4644 14690,4675 14587,4675 14482,4675 14401,4644 14339,4583 14278,4522 14247,4438 14247,4335 14247,4232 14278,4147 14339,4080 14401,4014 14482,3981 14587,3981 Z"/>
         </g>
        </g>
        <g class="com.sun.star.drawing.ClosedBezierShape">
         <g id="id16">
          <rect class="BoundingBox" stroke="none" fill="none" x="14767" y="3810" width="2402" height="5199"/>
          <path fill="rgb(128,0,128)" stroke="none" d="M 16487,9008 C 16182,9008 15944,8895 15775,8666 15604,8436 15521,8147 15521,7798 L 15521,5464 14767,5464 14767,5132 15521,5132 15521,4009 15964,3810 15964,5132 17167,5132 17167,5464 15964,5464 15964,7798 C 15964,8359 16150,8640 16524,8640 16756,8640 16925,8618 17035,8574 L 17078,8905 C 16925,8975 16729,9008 16487,9008 Z"/>
         </g>
        </g>
        <g class="com.sun.star.drawing.ClosedBezierShape">
         <g id="id17">
          <rect class="BoundingBox" stroke="none" fill="none" x="17040" y="3817" width="1449" height="5717"/>
          <path fill="rgb(128,0,128)" stroke="none" d="M 18488,9164 L 18443,9533 C 17508,9488 17040,8822 17040,7531 L 17040,3817 17483,3817 17483,7377 C 17483,7656 17495,7894 17520,8086 17544,8277 17589,8462 17656,8639 17724,8817 17825,8949 17963,9035 18101,9120 18275,9164 18488,9164 Z"/>
         </g>
        </g>
        <g class="Group">
         <g class="com.sun.star.drawing.ClosedBezierShape">
          <g id="id18">
           <rect class="BoundingBox" stroke="none" fill="none" x="12961" y="10529" width="415" height="896"/>
           <path fill="rgb(85,48,141)" stroke="none" d="M 13257,11424 C 13205,11424 13164,11404 13135,11365 13106,11326 13091,11276 13091,11216 L 13091,10814 12961,10814 12961,10757 13091,10757 13091,10564 13167,10530 13167,10757 13374,10757 13374,10814 13167,10814 13167,11216 C 13167,11312 13199,11361 13264,11361 13303,11361 13333,11357 13351,11349 L 13359,11406 C 13333,11418 13299,11424 13257,11424 Z"/>
          </g>
         </g>
         <g class="com.sun.star.drawing.ClosedBezierShape">
          <g id="id19">
           <rect class="BoundingBox" stroke="none" fill="none" x="13502" y="10439" width="548" height="968"/>
           <path fill="rgb(85,48,141)" stroke="none" d="M 14048,11037 L 14048,11405 13972,11405 13972,11037 C 13972,10883 13908,10806 13779,10806 13728,10806 13682,10828 13640,10871 13599,10914 13578,10961 13578,11012 L 13578,11405 13502,11405 13502,10440 13578,10440 13578,10872 C 13631,10786 13703,10742 13794,10742 13963,10742 14048,10841 14048,11037 Z"/>
          </g>
         </g>
         <g class="com.sun.star.drawing.ClosedBezierShape">
          <g id="id20">
           <rect class="BoundingBox" stroke="none" fill="none" x="14200" y="10742" width="605" height="683"/>
           <path fill="rgb(85,48,141)" stroke="none" d="M 14276,11088 C 14279,11170 14304,11236 14351,11286 14398,11336 14460,11361 14539,11361 14613,11361 14689,11345 14766,11315 L 14773,11377 C 14697,11408 14617,11424 14532,11424 14434,11424 14355,11394 14293,11333 14231,11273 14200,11194 14200,11099 14200,10996 14230,10911 14290,10844 14349,10777 14427,10743 14524,10743 14706,10743 14799,10858 14803,11088 L 14276,11088 Z M 14727,11024 C 14725,10958 14705,10905 14667,10866 14628,10826 14578,10806 14515,10806 14452,10806 14400,10827 14358,10868 14315,10909 14289,10961 14280,11024 L 14727,11024 Z"/>
          </g>
         </g>
         <g class="com.sun.star.drawing.ClosedBezierShape">
          <g id="id21">
           <rect class="BoundingBox" stroke="none" fill="none" x="15373" y="10440" width="250" height="985"/>
           <path fill="rgb(85,48,141)" stroke="none" d="M 15622,11360 L 15614,11423 C 15453,11416 15373,11301 15373,11079 L 15373,10440 15449,10440 15449,11053 C 15449,11101 15451,11142 15456,11175 15460,11208 15468,11239 15479,11270 15491,11300 15508,11323 15532,11338 15556,11353 15586,11360 15622,11360 Z"/>
          </g>
         </g>
         <g class="com.sun.star.drawing.ClosedBezierShape">
          <g id="id22">
           <rect class="BoundingBox" stroke="none" fill="none" x="15729" y="10499" width="122" height="908"/>
           <path fill="rgb(85,48,141)" stroke="none" d="M 15829,11406 L 15753,11406 15753,10757 15829,10757 15829,11406 Z M 15788,10499 C 15806,10499 15821,10505 15832,10516 15844,10528 15849,10542 15849,10560 15849,10578 15844,10592 15832,10603 15821,10613 15806,10618 15788,10618 15771,10618 15756,10613 15746,10603 15735,10592 15730,10578 15730,10560 15730,10542 15735,10528 15746,10516 15756,10505 15771,10499 15788,10499 Z"/>
          </g>
         </g>
         <g class="com.sun.star.drawing.ClosedBezierShape">
          <g id="id23">
           <rect class="BoundingBox" stroke="none" fill="none" x="15998" y="10756" width="475" height="953"/>
           <path fill="rgb(85,48,141)" stroke="none" d="M 16225,11645 C 16268,11644 16304,11634 16333,11613 16361,11593 16376,11564 16376,11526 16376,11496 16365,11470 16342,11448 16320,11427 16283,11408 16234,11392 16204,11383 16180,11374 16163,11368 16146,11361 16127,11352 16106,11340 16085,11328 16070,11314 16060,11297 16049,11281 16044,11262 16044,11241 16044,11218 16051,11185 16065,11143 16021,11091 15999,11039 15999,10987 15999,10921 16020,10867 16061,10823 16103,10779 16155,10756 16217,10756 L 16471,10756 16471,10824 16383,10815 C 16432,10864 16456,10917 16456,10973 16456,11041 16434,11097 16391,11141 16348,11185 16293,11207 16226,11207 16188,11207 16156,11200 16131,11187 16124,11204 16121,11222 16121,11241 16121,11275 16170,11306 16268,11333 16391,11368 16452,11431 16452,11521 16452,11581 16431,11628 16388,11660 16345,11692 16289,11708 16218,11708 16150,11708 16088,11691 16033,11657 L 16060,11596 C 16115,11628 16170,11644 16225,11645 Z M 16225,11143 C 16269,11143 16306,11128 16335,11098 16365,11068 16380,11029 16380,10983 16380,10939 16364,10901 16333,10868 16302,10836 16266,10820 16225,10820 16181,10820 16146,10836 16117,10868 16089,10901 16075,10939 16075,10984 16075,11028 16090,11066 16119,11097 16149,11128 16184,11143 16225,11143 Z"/>
          </g>
         </g>
         <g class="com.sun.star.drawing.ClosedBezierShape">
          <g id="id24">
           <rect class="BoundingBox" stroke="none" fill="none" x="16622" y="10439" width="548" height="968"/>
           <path fill="rgb(85,48,141)" stroke="none" d="M 17168,11037 L 17168,11405 17092,11405 17092,11037 C 17092,10883 17028,10806 16899,10806 16848,10806 16802,10828 16760,10871 16719,10914 16698,10961 16698,11012 L 16698,11405 16622,11405 16622,10440 16698,10440 16698,10872 C 16751,10786 16823,10742 16914,10742 17083,10742 17168,10841 17168,11037 Z"/>
          </g>
         </g>
         <g class="com.sun.star.drawing.ClosedBezierShape">
          <g id="id25">
           <rect class="BoundingBox" stroke="none" fill="none" x="17279" y="10529" width="415" height="896"/>
           <path fill="rgb(85,48,141)" stroke="none" d="M 17575,11424 C 17523,11424 17482,11404 17453,11365 17424,11326 17409,11276 17409,11216 L 17409,10814 17279,10814 17279,10757 17409,10757 17409,10564 17485,10530 17485,10757 17692,10757 17692,10814 17485,10814 17485,11216 C 17485,11312 17517,11361 17582,11361 17621,11361 17651,11357 17669,11349 L 17677,11406 C 17651,11418 17617,11424 17575,11424 Z"/>
          </g>
         </g>
         <g class="com.sun.star.drawing.ClosedBezierShape">
          <g id="id26">
           <rect class="BoundingBox" stroke="none" fill="none" x="18206" y="10499" width="122" height="908"/>
           <path fill="rgb(85,48,141)" stroke="none" d="M 18306,11406 L 18230,11406 18230,10757 18306,10757 18306,11406 Z M 18265,10499 C 18283,10499 18298,10505 18309,10516 18321,10528 18326,10542 18326,10560 18326,10578 18321,10592 18309,10603 18298,10613 18283,10618 18265,10618 18248,10618 18233,10613 18223,10603 18212,10592 18207,10578 18207,10560 18207,10542 18212,10528 18223,10516 18233,10505 18248,10499 18265,10499 Z"/>
          </g>
         </g>
         <g class="com.sun.star.drawing.ClosedBezierShape">
          <g id="id27">
           <rect class="BoundingBox" stroke="none" fill="none" x="18493" y="10743" width="965" height="664"/>
           <path fill="rgb(85,48,141)" stroke="none" d="M 19226,10743 C 19302,10743 19359,10771 19398,10828 19437,10885 19456,10957 19456,11045 L 19456,11406 19380,11406 19380,11047 C 19380,10975 19366,10918 19337,10873 19309,10829 19265,10807 19206,10807 19158,10807 19114,10826 19076,10864 19038,10902 19019,10945 19019,10993 L 19019,11406 18943,11406 18943,11012 C 18943,10875 18888,10807 18779,10807 18729,10807 18684,10828 18643,10871 18603,10914 18582,10961 18582,11012 L 18582,11406 18506,11406 18506,10917 C 18506,10879 18502,10826 18493,10757 L 18563,10757 C 18572,10783 18577,10822 18578,10873 18628,10786 18700,10743 18797,10743 18885,10743 18951,10791 18994,10888 19045,10791 19122,10743 19226,10743 Z"/>
          </g>
         </g>
         <g class="com.sun.star.drawing.ClosedBezierShape">
          <g id="id28">
           <rect class="BoundingBox" stroke="none" fill="none" x="19603" y="10742" width="533" height="683"/>
           <path fill="rgb(85,48,141)" stroke="none" d="M 19811,11424 C 19753,11424 19704,11407 19664,11374 19624,11340 19604,11297 19604,11244 19604,11082 19747,11001 20035,11001 20035,10939 20021,10891 19991,10857 19961,10823 19918,10806 19860,10806 19814,10806 19745,10821 19653,10850 L 19644,10777 C 19715,10754 19789,10743 19865,10743 20029,10743 20112,10834 20112,11015 L 20112,11247 C 20112,11301 20119,11354 20134,11406 L 20068,11420 20042,11315 C 19983,11388 19906,11424 19811,11424 Z M 19680,11231 C 19680,11271 19692,11302 19717,11326 19741,11349 19773,11361 19813,11361 19864,11361 19914,11345 19962,11313 20011,11281 20035,11242 20035,11197 L 20035,11065 C 19798,11065 19680,11120 19680,11231 Z"/>
          </g>
         </g>
         <g class="com.sun.star.drawing.ClosedBezierShape">
          <g id="id29">
           <rect class="BoundingBox" stroke="none" fill="none" x="20278" y="10756" width="475" height="953"/>
           <path fill="rgb(85,48,141)" stroke="none" d="M 20505,11645 C 20548,11644 20584,11634 20613,11613 20641,11593 20656,11564 20656,11526 20656,11496 20645,11470 20622,11448 20600,11427 20563,11408 20514,11392 20484,11383 20460,11374 20443,11368 20426,11361 20407,11352 20386,11340 20365,11328 20350,11314 20340,11297 20329,11281 20324,11262 20324,11241 20324,11218 20331,11185 20345,11143 20301,11091 20279,11039 20279,10987 20279,10921 20300,10867 20341,10823 20383,10779 20435,10756 20497,10756 L 20751,10756 20751,10824 20663,10815 C 20712,10864 20736,10917 20736,10973 20736,11041 20714,11097 20671,11141 20628,11185 20573,11207 20506,11207 20468,11207 20436,11200 20411,11187 20404,11204 20400,11222 20400,11241 20400,11275 20450,11306 20548,11333 20671,11368 20732,11431 20732,11521 20732,11581 20711,11628 20668,11660 20625,11692 20569,11708 20498,11708 20430,11708 20368,11691 20313,11657 L 20340,11596 C 20395,11628 20450,11644 20505,11645 Z M 20505,11143 C 20549,11143 20586,11128 20615,11098 20645,11068 20660,11029 20660,10983 20660,10939 20644,10901 20613,10868 20582,10836 20546,10820 20505,10820 20461,10820 20426,10836 20397,10868 20369,10901 20355,10939 20355,10984 20355,11028 20370,11066 20399,11097 20429,11128 20464,11143 20505,11143 Z"/>
          </g>
         </g>
         <g class="com.sun.star.drawing.ClosedBezierShape">
          <g id="id30">
           <rect class="BoundingBox" stroke="none" fill="none" x="20855" y="10742" width="605" height="683"/>
           <path fill="rgb(85,48,141)" stroke="none" d="M 20931,11088 C 20934,11170 20959,11236 21006,11286 21053,11336 21115,11361 21194,11361 21268,11361 21344,11345 21421,11315 L 21428,11377 C 21352,11408 21272,11424 21187,11424 21089,11424 21010,11394 20948,11333 20886,11273 20855,11194 20855,11099 20855,10996 20885,10911 20945,10844 21004,10777 21082,10743 21179,10743 21361,10743 21454,10858 21458,11088 L 20931,11088 Z M 21382,11024 C 21380,10958 21360,10905 21322,10866 21283,10826 21233,10806 21170,10806 21107,10806 21055,10827 21013,10868 20970,10909 20944,10961 20935,11024 L 21382,11024 Z"/>
          </g>
         </g>
         <g class="com.sun.star.drawing.ClosedBezierShape">
          <g id="id31">
           <rect class="BoundingBox" stroke="none" fill="none" x="21940" y="10529" width="415" height="896"/>
           <path fill="rgb(85,48,141)" stroke="none" d="M 22236,11424 C 22184,11424 22143,11404 22114,11365 22085,11326 22070,11276 22070,11216 L 22070,10814 21940,10814 21940,10757 22070,10757 22070,10564 22146,10530 22146,10757 22353,10757 22353,10814 22146,10814 22146,11216 C 22146,11312 22178,11361 22243,11361 22282,11361 22312,11357 22330,11349 L 22338,11406 C 22312,11418 22278,11424 22236,11424 Z"/>
          </g>
         </g>
         <g class="com.sun.star.drawing.ClosedBezierShape">
          <g id="id32">
           <rect class="BoundingBox" stroke="none" fill="none" x="22434" y="10742" width="605" height="683"/>
           <path fill="rgb(85,48,141)" stroke="none" d="M 22510,11088 C 22513,11170 22538,11236 22585,11286 22632,11336 22694,11361 22773,11361 22847,11361 22923,11345 23000,11315 L 23007,11377 C 22931,11408 22851,11424 22766,11424 22668,11424 22589,11394 22527,11333 22465,11273 22434,11194 22434,11099 22434,10996 22464,10911 22524,10844 22583,10777 22661,10743 22758,10743 22940,10743 23033,10858 23037,11088 L 22510,11088 Z M 22961,11024 C 22959,10958 22939,10905 22901,10866 22862,10826 22812,10806 22749,10806 22686,10806 22634,10827 22592,10868 22549,10909 22523,10961 22514,11024 L 22961,11024 Z"/>
          </g>
         </g>
         <g class="com.sun.star.drawing.ClosedBezierShape">
          <g id="id33">
           <rect class="BoundingBox" stroke="none" fill="none" x="23183" y="10743" width="965" height="664"/>
           <path fill="rgb(85,48,141)" stroke="none" d="M 23916,10743 C 23992,10743 24049,10771 24088,10828 24127,10885 24146,10957 24146,11045 L 24146,11406 24070,11406 24070,11047 C 24070,10975 24056,10918 24027,10873 23999,10829 23955,10807 23896,10807 23848,10807 23804,10826 23766,10864 23728,10902 23709,10945 23709,10993 L 23709,11406 23633,11406 23633,11012 C 23633,10875 23578,10807 23469,10807 23419,10807 23374,10828 23333,10871 23293,10914 23272,10961 23272,11012 L 23272,11406 23196,11406 23196,10917 C 23196,10879 23192,10826 23183,10757 L 23253,10757 C 23262,10783 23267,10822 23268,10873 23318,10786 23390,10743 23487,10743 23575,10743 23641,10791 23684,10888 23735,10791 23812,10743 23916,10743 Z"/>
          </g>
         </g>
         <g class="com.sun.star.drawing.ClosedBezierShape">
          <g id="id34">
           <rect class="BoundingBox" stroke="none" fill="none" x="24338" y="10742" width="621" height="984"/>
           <path fill="rgb(85,48,141)" stroke="none" d="M 24654,10743 C 24748,10743 24822,10776 24876,10841 24930,10907 24957,10991 24957,11092 24957,11188 24931,11267 24878,11330 24825,11393 24754,11424 24665,11424 24558,11424 24476,11378 24420,11286 L 24420,11725 24344,11725 24344,10918 C 24344,10839 24342,10785 24339,10757 L 24409,10757 C 24411,10790 24413,10829 24413,10875 24473,10787 24553,10743 24654,10743 Z M 24644,10806 C 24581,10806 24528,10827 24485,10867 24442,10908 24420,10959 24420,11020 L 24420,11129 C 24420,11194 24443,11248 24488,11293 24532,11338 24587,11360 24651,11360 24725,11360 24782,11336 24822,11287 24861,11238 24881,11172 24881,11091 24881,11003 24862,10934 24822,10883 24783,10832 24723,10806 24644,10806 Z"/>
          </g>
         </g>
         <g class="com.sun.star.drawing.ClosedBezierShape">
          <g id="id35">
           <rect class="BoundingBox" stroke="none" fill="none" x="25110" y="10440" width="250" height="985"/>
           <path fill="rgb(85,48,141)" stroke="none" d="M 25359,11360 L 25351,11423 C 25190,11416 25110,11301 25110,11079 L 25110,10440 25186,10440 25186,11053 C 25186,11101 25188,11142 25193,11175 25197,11208 25205,11239 25216,11270 25228,11300 25245,11323 25269,11338 25293,11353 25323,11360 25359,11360 Z"/>
          </g>
         </g>
         <g class="com.sun.star.drawing.ClosedBezierShape">
          <g id="id36">
           <rect class="BoundingBox" stroke="none" fill="none" x="25441" y="10742" width="533" height="683"/>
           <path fill="rgb(85,48,141)" stroke="none" d="M 25649,11424 C 25591,11424 25542,11407 25502,11374 25462,11340 25442,11297 25442,11244 25442,11082 25585,11001 25873,11001 25873,10939 25859,10891 25829,10857 25799,10823 25756,10806 25698,10806 25652,10806 25583,10821 25491,10850 L 25482,10777 C 25553,10754 25627,10743 25703,10743 25867,10743 25950,10834 25950,11015 L 25950,11247 C 25950,11301 25957,11354 25972,11406 L 25906,11420 25880,11315 C 25821,11388 25744,11424 25649,11424 Z M 25518,11231 C 25518,11271 25530,11302 25555,11326 25579,11349 25611,11361 25651,11361 25702,11361 25752,11345 25800,11313 25849,11281 25873,11242 25873,11197 L 25873,11065 C 25636,11065 25518,11120 25518,11231 Z"/>
          </g>
         </g>
         <g class="com.sun.star.drawing.ClosedBezierShape">
          <g id="id37">
           <rect class="BoundingBox" stroke="none" fill="none" x="26059" y="10529" width="415" height="896"/>
           <path fill="rgb(85,48,141)" stroke="none" d="M 26355,11424 C 26303,11424 26262,11404 26233,11365 26204,11326 26189,11276 26189,11216 L 26189,10814 26059,10814 26059,10757 26189,10757 26189,10564 26265,10530 26265,10757 26472,10757 26472,10814 26265,10814 26265,11216 C 26265,11312 26297,11361 26362,11361 26401,11361 26431,11357 26449,11349 L 26457,11406 C 26431,11418 26397,11424 26355,11424 Z"/>
          </g>
         </g>
         <g class="com.sun.star.drawing.ClosedBezierShape">
          <g id="id38">
           <rect class="BoundingBox" stroke="none" fill="none" x="26553" y="10742" width="605" height="683"/>
           <path fill="rgb(85,48,141)" stroke="none" d="M 26629,11088 C 26632,11170 26657,11236 26704,11286 26751,11336 26813,11361 26892,11361 26966,11361 27042,11345 27119,11315 L 27126,11377 C 27050,11408 26970,11424 26885,11424 26787,11424 26708,11394 26646,11333 26584,11273 26553,11194 26553,11099 26553,10996 26583,10911 26643,10844 26702,10777 26780,10743 26877,10743 27059,10743 27152,10858 27156,11088 L 26629,11088 Z M 27080,11024 C 27078,10958 27058,10905 27020,10866 26981,10826 26931,10806 26868,10806 26805,10806 26753,10827 26711,10868 26668,10909 26642,10961 26633,11024 L 27080,11024 Z"/>
          </g>
         </g>
         <g class="com.sun.star.drawing.ClosedBezierShape">
          <g id="id39">
           <rect class="BoundingBox" stroke="none" fill="none" x="27726" y="10440" width="250" height="985"/>
           <path fill="rgb(85,48,141)" stroke="none" d="M 27975,11360 L 27967,11423 C 27806,11416 27726,11301 27726,11079 L 27726,10440 27802,10440 27802,11053 C 27802,11101 27804,11142 27809,11175 27813,11208 27821,11239 27832,11270 27844,11300 27861,11323 27885,11338 27909,11353 27939,11360 27975,11360 Z"/>
          </g>
         </g>
         <g class="com.sun.star.drawing.ClosedBezierShape">
          <g id="id40">
           <rect class="BoundingBox" stroke="none" fill="none" x="28082" y="10499" width="122" height="908"/>
           <path fill="rgb(85,48,141)" stroke="none" d="M 28182,11406 L 28106,11406 28106,10757 28182,10757 28182,11406 Z M 28141,10499 C 28159,10499 28174,10505 28185,10516 28197,10528 28202,10542 28202,10560 28202,10578 28197,10592 28185,10603 28174,10613 28159,10618 28141,10618 28124,10618 28109,10613 28099,10603 28088,10592 28083,10578 28083,10560 28083,10542 28088,10528 28099,10516 28109,10505 28124,10499 28141,10499 Z"/>
          </g>
         </g>
         <g class="com.sun.star.drawing.ClosedBezierShape">
          <g id="id41">
           <rect class="BoundingBox" stroke="none" fill="none" x="28376" y="10441" width="621" height="984"/>
           <path fill="rgb(85,48,141)" stroke="none" d="M 28703,10743 C 28793,10743 28864,10774 28917,10836 28969,10899 28995,10978 28995,11073 28995,11176 28968,11260 28914,11326 28860,11391 28786,11424 28692,11424 28591,11424 28511,11380 28451,11292 28451,11335 28449,11373 28447,11406 L 28377,11406 C 28380,11377 28382,11324 28382,11247 L 28382,10441 28458,10441 28458,10880 C 28514,10789 28596,10743 28703,10743 Z M 28458,11146 C 28458,11207 28480,11258 28523,11299 28566,11340 28619,11361 28682,11361 28840,11361 28919,11266 28919,11076 28919,10995 28899,10930 28860,10881 28820,10831 28763,10807 28689,10807 28625,10807 28570,10829 28526,10874 28481,10919 28458,10973 28458,11038 L 28458,11146 Z"/>
          </g>
         </g>
         <g class="com.sun.star.drawing.ClosedBezierShape">
          <g id="id42">
           <rect class="BoundingBox" stroke="none" fill="none" x="29129" y="10743" width="319" height="664"/>
           <path fill="rgb(85,48,141)" stroke="none" d="M 29447,10809 C 29441,10807 29434,10807 29424,10807 29368,10807 29321,10829 29282,10874 29244,10920 29224,10981 29224,11057 L 29224,11406 29148,11406 29148,10969 C 29148,10873 29142,10803 29129,10757 L 29194,10757 C 29207,10784 29214,10827 29214,10887 29255,10791 29320,10743 29410,10743 29422,10743 29434,10744 29447,10747 L 29447,10809 Z"/>
          </g>
         </g>
         <g class="com.sun.star.drawing.ClosedBezierShape">
          <g id="id43">
           <rect class="BoundingBox" stroke="none" fill="none" x="29513" y="10742" width="533" height="683"/>
           <path fill="rgb(85,48,141)" stroke="none" d="M 29721,11424 C 29663,11424 29614,11407 29574,11374 29534,11340 29514,11297 29514,11244 29514,11082 29657,11001 29945,11001 29945,10939 29931,10891 29901,10857 29871,10823 29828,10806 29770,10806 29724,10806 29655,10821 29563,10850 L 29554,10777 C 29625,10754 29699,10743 29775,10743 29939,10743 30022,10834 30022,11015 L 30022,11247 C 30022,11301 30029,11354 30044,11406 L 29978,11420 29952,11315 C 29893,11388 29816,11424 29721,11424 Z M 29590,11231 C 29590,11271 29602,11302 29627,11326 29651,11349 29683,11361 29723,11361 29774,11361 29824,11345 29872,11313 29921,11281 29945,11242 29945,11197 L 29945,11065 C 29708,11065 29590,11120 29590,11231 Z"/>
          </g>
         </g>
         <g class="com.sun.star.drawing.ClosedBezierShape">
          <g id="id44">
           <rect class="BoundingBox" stroke="none" fill="none" x="30200" y="10743" width="319" height="664"/>
           <path fill="rgb(85,48,141)" stroke="none" d="M 30518,10809 C 30512,10807 30505,10807 30495,10807 30439,10807 30392,10829 30353,10874 30315,10920 30295,10981 30295,11057 L 30295,11406 30219,11406 30219,10969 C 30219,10873 30213,10803 30200,10757 L 30265,10757 C 30278,10784 30285,10827 30285,10887 30326,10791 30391,10743 30481,10743 30493,10743 30505,10744 30518,10747 L 30518,10809 Z"/>
          </g>
         </g>
         <g class="com.sun.star.drawing.ClosedBezierShape">
          <g id="id45">
           <rect class="BoundingBox" stroke="none" fill="none" x="30541" y="10757" width="633" height="949"/>
           <path fill="rgb(85,48,141)" stroke="none" d="M 30887,11406 C 30811,11575 30712,11675 30587,11705 L 30569,11645 C 30678,11620 30760,11533 30816,11384 30816,11377 30814,11369 30811,11362 L 30541,10757 30621,10757 30864,11307 31091,10757 31173,10757 30887,11406 Z"/>
          </g>
         </g>
        </g>
       </g>
      </g>
     </g>
    </g>
   </g>
  </g>
 </g>
</svg>