<?xml version="1.0" encoding="UTF-8" standalone="no"?>
<svg
   width="12cm"
   height="12cm"
   viewBox="0 0 120 120"
   version="1.1"
   id="svg1011"
   inkscape:version="1.2.2 (732a01da63, 2022-12-09, custom)"
   sodipodi:docname="logo_square.svg"
   xml:space="preserve"
   inkscape:export-filename="../59ff9a4d/2023-02-08_linx.png"
   inkscape:export-xdpi="200"
   inkscape:export-ydpi="200"
   xmlns:inkscape="http://www.inkscape.org/namespaces/inkscape"
   xmlns:sodipodi="http://sodipodi.sourceforge.net/DTD/sodipodi-0.dtd"
   xmlns:xlink="http://www.w3.org/1999/xlink"
   xmlns="http://www.w3.org/2000/svg"
   xmlns:svg="http://www.w3.org/2000/svg"
   xmlns:rdf="http://www.w3.org/1999/02/22-rdf-syntax-ns#"
   xmlns:cc="http://creativecommons.org/ns#"
   xmlns:dc="http://purl.org/dc/elements/1.1/"><defs
     id="defs1005"><inkscape:path-effect
       effect="powerstroke"
       id="path-effect1697"
       is_visible="true"
       lpeversion="1"
       offset_points="0.19027576,0.87559706 | 0.93327635,1.4291187 | 8.82,1.749995"
       sort_points="true"
       interpolator_type="CentripetalCatmullRom"
       interpolator_beta="0.2"
       start_linecap_type="butt"
       linejoin_type="round"
       miter_limit="4"
       scale_width="1"
       end_linecap_type="butt" /></defs><sodipodi:namedview
     id="base"
     pagecolor="#ffffff"
     bordercolor="#666666"
     borderopacity="1.0"
     inkscape:pageopacity="0.0"
     inkscape:pageshadow="2"
     inkscape:zoom="1.9797597"
     inkscape:cx="141.43131"
     inkscape:cy="230.58355"
     inkscape:document-units="mm"
     inkscape:current-layer="g1280"
     inkscape:document-rotation="0"
     showgrid="false"
     units="cm"
     inkscape:pagecheckerboard="true"
     width="12in"
     inkscape:window-width="1868"
     inkscape:window-height="1016"
     inkscape:window-x="52"
     inkscape:window-y="27"
     inkscape:window-maximized="1"
     inkscape:showpageshadow="0"
     inkscape:deskcolor="#d1d1d1" /><metadata
     id="metadata1008"><rdf:RDF><cc:Work
         rdf:about=""><dc:format>image/svg+xml</dc:format><dc:type
           rdf:resource="http://purl.org/dc/dcmitype/StillImage" /></cc:Work></rdf:RDF></metadata><g
     inkscape:groupmode="layer"
     id="layer4"
     inkscape:label="img"
     style="display:none"><image
       width="117.42136"
       height="176.13205"
       preserveAspectRatio="none"
       xlink:href="../bf660170/lynx.jpg"
       id="image285"
       x="-99.56031"
       y="8.2912092"
       transform="matrix(-0.98677457,0.1620986,0.1620986,0.98677457,0,0)"
       style="font-style:normal;font-variant:normal;font-weight:bold;font-stretch:normal;font-size:35.2777px;line-height:1.25;font-family:Laksaman;-inkscape-font-specification:'Laksaman, Bold';font-variant-ligatures:normal;font-variant-caps:normal;font-variant-numeric:normal;font-variant-east-asian:normal;letter-spacing:-0.529167px;display:inline;fill:#004482;fill-opacity:1;stroke:none;stroke-width:0.264999;stroke-miterlimit:4;stroke-dasharray:none" /></g><g
     inkscape:label="elephant"
     inkscape:groupmode="layer"
     id="layer1"
     style="display:none"><path
       style="fill:none;stroke:#00599c;stroke-width:1.75;stroke-linecap:butt;stroke-linejoin:miter;stroke-miterlimit:4;stroke-dasharray:none;stroke-opacity:1"
       d="m 72.19002,66.976044 c 11.720799,2.032349 21.860039,-9.467231 24.984459,-18.113648 3.330371,-9.21634 6.221481,-26.437638 12.573281,-25.013708"
       id="path1095-6-0-1"
       sodipodi:nodetypes="csc" /><path
       style="fill:#659ad2;fill-rule:nonzero;stroke:none;stroke-width:3.49999;stroke-linecap:butt;stroke-linejoin:round;stroke-miterlimit:4;stroke-dasharray:none;stroke-opacity:1"
       d="m 110.75751,19.582177 c -0.66589,-0.168432 -1.84352,-0.367362 -3.37122,-0.132117 -0.55189,0.08498 -1.12358,0.221813 -1.71813,0.417047 -0.50472,0.165733 -1.01891,0.370692 -1.54268,0.617173 -0.98857,0.465213 -2.03385,1.088915 -3.13944,1.906384 -0.94519,0.698868 -1.942262,1.54517 -2.996367,2.567844 -1.708017,1.657088 -3.480421,3.691493 -5.427886,6.237519 -1.147311,1.499942 -2.229199,3.00945 -3.374783,4.641241 -0.259448,0.369562 -0.817503,1.16821 -1.076952,1.537773 -0.999829,1.437845 -2.207784,3.226554 -3.259356,4.489529 -0.472817,0.56787 -0.954092,1.083855 -1.457298,1.524651 -0.463697,0.406186 -0.946859,0.749541 -1.470676,1.019875 -0.488685,0.252203 -1.031656,0.450883 -1.660691,0.576185 -0.597739,0.119068 -1.2947,0.176261 -2.129292,0.139295 -1.572298,-0.06964 -3.621062,-0.471363 -6.464884,-1.425735 -2.730521,-0.915748 -5.341066,-1.812546 -7.417885,-2.481664 -2.044057,-0.658563 -3.904687,-1.208386 -5.717165,-1.607419 -1.748778,-0.38501 -3.467865,-0.634198 -5.378768,-0.731264 -1.837269,-0.09333 -3.835009,-0.04529 -6.231642,0.143478 -2.166227,0.165986 -4.330641,0.760313 -6.50278,1.697856 -1.962715,0.847151 -3.914873,1.966976 -5.86764,3.282493 -0.3761,0.03603 -0.810689,0.06622 -1.313231,0.09679 -0.679645,0.04135 -1.457547,0.08183 -2.311843,0.139897 -1.696803,0.115341 -3.706282,0.301151 -5.874896,0.716316 -2.163147,0.414118 -4.497317,1.058522 -6.865573,2.09768 -2.369722,1.039801 -4.762753,2.470166 -7.046906,4.4467 -0.735706,0.631936 -1.4658877,1.262139 -2.1709112,1.872557 a 1.7675137,1.7705823 48.544509 0 0 -0.1583902,2.521611 c -0.013097,-0.01453 2.1055944,2.359879 4.2044354,4.954179 0.366401,0.453043 0.753326,1.009321 1.160742,1.653914 0.415232,0.656959 0.841916,1.389961 1.278809,2.171906 0.908806,1.626567 1.853381,3.446029 2.826332,5.234563 1.048062,1.926609 2.102656,3.772485 3.223088,5.453492 1.210941,1.8168 2.467195,3.390921 3.808514,4.603127 0.953665,0.86134 1.976903,1.390942 2.859891,1.724622 1.042521,0.393967 2.015775,0.562038 2.714624,0.640178 1.273889,0.142436 2.29625,0.05027 2.419989,0.04061 0.500491,-0.03908 0.48348,-0.05307 0.501691,-0.0559 l -0.538802,-3.458268 c 0.01821,-0.0028 0.08273,-0.0035 -0.250085,0.02599 -0.07632,0.0068 -0.80501,0.07556 -1.740628,-0.03111 -0.512761,-0.05846 -1.179378,-0.179271 -1.864316,-0.439984 -0.576775,-0.219541 -1.191844,-0.547544 -1.746183,-1.050491 -1.045495,-0.947179 -2.114435,-2.261591 -3.236452,-3.948539 -1.031769,-1.551258 -2.02605,-3.290153 -3.055372,-5.186193 -0.950751,-1.751309 -1.893925,-3.57321 -2.841117,-5.271866 -0.452789,-0.812013 -0.912971,-1.605722 -1.374387,-2.3372 -0.449775,-0.713023 -0.916675,-1.392513 -1.398022,-1.988913 -1.155197,-1.432175 -2.308936,-2.790325 -3.132826,-3.744487 0.272372,-0.236947 0.546189,-0.47552 0.82036,-0.714828 1.992736,-1.72671 4.078395,-2.976407 6.153393,-3.889426 2.078185,-0.914422 4.150318,-1.493084 6.111554,-1.871567 1.968373,-0.37986 3.820681,-0.557162 5.453065,-0.671863 0.820389,-0.05765 1.585314,-0.09947 2.288065,-0.144357 0.697152,-0.04453 1.357895,-0.09358 1.93701,-0.168087 a 1.7754635,1.7143622 23.106977 0 0 0.771096,-0.294298 c 1.943134,-1.344131 3.813572,-2.437668 5.634787,-3.236776 1.891196,-0.829813 3.680442,-1.32036 5.397377,-1.467571 2.295568,-0.189701 4.137955,-0.239669 5.794903,-0.165283 1.709663,0.07675 3.24515,0.287639 4.831633,0.62517 1.662348,0.353672 3.409858,0.853571 5.421712,1.487003 2.06391,0.649821 4.613523,1.508513 7.39409,2.42354 3.016393,0.99255 5.388252,1.467188 7.372698,1.531852 1.065763,0.03473 2.023439,-0.04898 2.89915,-0.238061 0.926619,-0.200077 1.745053,-0.514778 2.481142,-0.913183 0.782353,-0.423444 1.461897,-0.936334 2.064765,-1.487433 0.649292,-0.593535 1.228983,-1.249671 1.751973,-1.906534 1.134204,-1.424532 2.39513,-3.390075 3.304944,-4.773191 0.185579,-0.279249 0.845341,-1.276388 1.034317,-1.560635 1.103913,-1.666194 2.097091,-3.153354 3.166165,-4.670158 1.798141,-2.551203 3.39087,-4.578665 4.904999,-6.233973 0.933372,-1.020397 1.805782,-1.864097 2.625542,-2.558476 0.95936,-0.812635 1.8545,-1.427454 2.69356,-1.877282 0.44437,-0.238232 0.87701,-0.432321 1.29858,-0.584752 0.4958,-0.17927 0.96801,-0.298712 1.4153,-0.369768 1.22803,-0.195086 2.15806,-0.0046 2.67576,0.126345 z"
       id="path10-2-8-9-0"
       sodipodi:nodetypes="ccsscscssc"
       inkscape:path-effect="#path-effect1697"
       inkscape:original-d="M 110.5428,20.43104 C 102.46282,18.387278 94.398188,30.740727 89.310261,38.194321 84.499429,45.305312 82.43252,48.994058 71.15352,45.246995 59.444599,41.357092 56.292617,39.978617 47.059627,40.723347 c -3.97329,0.32048 -7.931748,2.244222 -11.885519,4.967603 -4.159919,0.527042 -14.321389,-0.266653 -22.87909,7.143237 l -2.16736,1.87666 c 0,0 1.99382,2.220341 4.26116,5.027171 3.35737,4.15618 7.114701,14.413349 12.101421,18.92486 2.84841,2.576959 7.0487,1.922549 7.0487,1.922549" /></g><g
     inkscape:groupmode="layer"
     id="layer2"
     inkscape:label="text_font"
     style="display:none"><text
       xml:space="preserve"
       style="font-style:normal;font-variant:normal;font-weight:bold;font-stretch:normal;font-size:35.2777px;line-height:1.25;font-family:Laksaman;-inkscape-font-specification:'Laksaman, Bold';font-variant-ligatures:normal;font-variant-caps:normal;font-variant-numeric:normal;font-variant-east-asian:normal;letter-spacing:-0.529167px;fill:#825b00;fill-opacity:1;stroke:none;stroke-width:0.264999;stroke-miterlimit:4;stroke-dasharray:none"
       x="26.85537"
       y="106.27126"
       id="text839-9-6-68-3-0"
       inkscape:label="linx+"><tspan
         sodipodi:role="line"
         x="26.85537"
         y="106.27126"
         style="font-style:normal;font-variant:normal;font-weight:bold;font-stretch:normal;font-size:35.2777px;font-family:Laksaman;-inkscape-font-specification:'Laksaman, Bold';font-variant-ligatures:normal;font-variant-caps:normal;font-variant-numeric:normal;font-variant-east-asian:normal;fill:#825b00;fill-opacity:1;stroke-width:0.264999;stroke-miterlimit:4;stroke-dasharray:none"
         dx="0 0 0 0 0 0"
         id="tspan841-0-20-5-9-44"><tspan
           style="font-style:normal;font-variant:normal;font-weight:bold;font-stretch:normal;font-size:35.2777px;font-family:Laksaman;-inkscape-font-specification:'Laksaman, Bold';font-variant-ligatures:normal;font-variant-caps:normal;font-variant-numeric:normal;font-variant-east-asian:normal;letter-spacing:-1.32292px;fill:#825b00;fill-opacity:1;stroke-width:0.264999"
           id="tspan909-4-9-1-4">linx+</tspan></tspan></text></g><g
     inkscape:groupmode="layer"
     id="g1288"
     inkscape:label="text_path"
     style="display:inline"><g
       aria-label="linx+"
       id="text1286"
       style="font-weight:bold;font-size:35.2777px;line-height:1.25;font-family:Laksaman;-inkscape-font-specification:'Laksaman, Bold';letter-spacing:-0.529167px;fill:#ffaa18;fill-opacity:1;stroke-width:0.264999"
       inkscape:label="linx+"
       transform="translate(21.169337,2.8712862)"><path
         d="m 38.990902,106.6946 q -7.902204,-0.42334 -7.902204,-9.701372 v -17.46246 h 3.351381 v 16.721629 q 0,3.739436 1.023054,5.503323 1.058331,1.7286 3.915824,1.90499 z"
         style="letter-spacing:-1.32292px;fill:#ffaa18;fill-opacity:1"
         id="path1290" /><path
         d="M 44.406012,106.27126 H 41.054631 V 88.244359 h 3.351381 z"
         style="letter-spacing:-1.32292px;fill:#ffaa18;fill-opacity:1"
         id="path1292"
         sodipodi:nodetypes="ccccc" /><path
         d="m 56.029965,87.715194 q 3.66888,0 5.785542,2.257772 2.116662,2.257773 2.116662,6.067765 V 106.27126 H 60.580788 V 96.040731 q 0,-5.538599 -5.044711,-5.538599 -1.799163,0 -3.598325,1.658052 -1.799163,1.658052 -1.799163,3.351381 V 106.27126 H 46.787208 V 93.006848 q 0,-3.316103 -0.423333,-4.833044 h 3.139715 q 0.352777,0.846665 0.352777,2.187217 2.539995,-2.645827 6.173598,-2.645827 z"
         style="letter-spacing:-1.32292px;fill:#ffaa18;fill-opacity:1"
         id="path1294" /><path
         d="m 82.788078,106.27126 h -4.092214 l -5.785542,-6.949703 -5.750265,6.949703 h -4.092213 l 7.866927,-9.242754 -7.373039,-8.784147 h 4.021657 l 5.362211,6.349986 5.326932,-6.349986 h 4.021658 l -7.373039,8.784147 z"
         style="letter-spacing:-1.32292px;fill:#ffaa18;fill-opacity:1"
         id="path1296" /></g></g><g
     inkscape:groupmode="layer"
     id="g1280"
     inkscape:label="lynx"
     style="display:inline"
     transform="rotate(-12.734743,115.40205,36.145963)"><path
       id="circle12910"
       style="display:inline;fill:#ffaa18;fill-opacity:1;stroke-width:3.51142"
       d="m 60.495756,42.636658 c -0.96344,1.154079 -2.680029,1.308621 -3.834107,0.345181 -1.154079,-0.96344 -1.308621,-2.680029 -0.345181,-3.834107 1.031848,-0.01607 1.895591,0.0017 2.887868,0.859778 0.992276,0.858082 1.251387,1.428647 1.29142,2.629148 z"
       sodipodi:nodetypes="csczc" /><path
       style="color:#000000;display:none;fill:#532f09;fill-opacity:1;stroke-width:1.055;stroke-dasharray:none"
       d="m 50.244735,14.841426 0.107214,3.265152 c 7.049039,3.700461 12.084087,7.998309 15.525373,12.926386 1.720644,2.464037 2.91052,4.890143 3.563915,6.800091 0.653396,1.909948 0.09518,3.437181 -0.109698,4.363867 -0.666846,3.01628 -0.557543,3.840516 -0.132851,6.642948 0.27436,1.810424 1.91378,4.676705 2.493657,6.576269 1.281607,4.198279 0.05475,4.515123 1.078147,7.504249 1.864294,-0.735386 3.228052,-2.112403 4.427523,-4.39001 -1.072404,-2.621126 -1.70293,-2.871328 -3.158269,-6.296083 -0.727669,-1.712378 -1.384464,-3.557051 -1.732013,-5.175692 -0.347548,-1.618642 -0.197085,-2.9495 -0.04631,-3.658796 0.448002,-2.10753 0.391356,-3.757708 -0.389046,-6.038906 C 71.091971,35.079702 69.747163,32.510282 67.886622,29.845904 64.165539,24.517147 57.811013,18.813417 50.244735,14.841426 Z"
       id="path1278"
       sodipodi:nodetypes="ccsssssccsssssc" /><path
       style="color:#000000;display:none;fill:#d57916;stroke-width:1.05517;-inkscape-stroke:none"
       d="m 25.94423,-9.3536579 -0.554199,0.9175089 c 9.359139,3.3163236 18.697277,10.7913997 20.586686,20.068297 0.76828,3.772213 1.047968,7.665396 1.047968,7.665396 l 3.218879,-0.174806 c 0,0 -0.302586,-3.448899 -1.335438,-7.314776 C 45.609844,-0.03617988 33.092157,-7.2903347 25.94423,-9.3536579 Z"
       id="path1324"
       sodipodi:nodetypes="ccscccc" /><path
       style="display:inline;fill:none;stroke:#f7c46e;stroke-width:2;stroke-linecap:butt;stroke-linejoin:round;stroke-dasharray:none;stroke-opacity:1"
       d="m 26.430088,33.716041 c -4.858483,6.983474 -5.308909,15.448568 -4.34166,22.032533 2.011995,13.695423 9.24925,22.869595 9.24925,22.869595 0,0 -0.132817,-16.204099 6.37954,-18.828763 6.512358,-2.624664 10.29671,6.102388 16.166692,8.42082 4.508517,1.780703 8.426986,-1.248603 8.940496,-3.352865"
       id="path1402"
       sodipodi:nodetypes="csczsc" /><path
       style="display:none;fill:none;stroke:#d97b17;stroke-width:3;stroke-linecap:butt;stroke-linejoin:miter;stroke-dasharray:none;stroke-opacity:1"
       d="M 75.876124,60.603208 C 74.678102,56.220424 69.783699,47.332703 70.416434,44.806307 71.730933,39.557749 71.7349,35.563802 63.476839,26.563913 57.066845,19.578103 53.352375,20.263618 53.175281,17.813965 52.521199,8.7663737 50.278327,6.260277 46.274722,3.3219926 43.806087,7.1061841 35.379082,13.377942 35.411764,21.345051"
       id="path316"
       sodipodi:nodetypes="cssscc" /><path
       style="color:#000000;fill:#d68d11;fill-opacity:1;stroke-width:0.922789;-inkscape-stroke:none"
       d="m 37.948145,-12.610987 -1.151992,0.623765 c 3.683417,5.1548877 4.710213,10.5832932 3.418521,14.8509296 l 2.932541,0.6296897 C 44.08315,-0.94307918 42.06508,-6.8493992 37.948145,-12.610987 Z"
       id="path6104"
       sodipodi:nodetypes="ccccc" /><path
       style="color:#000000;fill:#d68d11;fill-opacity:1;-inkscape-stroke:none"
       d="M 41.239416,0.12594646 40.372228,1.4521184 C 39.357469,3.0076512 36.587765,5.63023 34.085119,8.7821999 31.582472,11.934167 29.248242,15.787717 29.266759,20.30173 l 3,-0.01172 c -0.01416,-3.453088 1.84813,-6.720848 4.167969,-9.642578 1.894975,-2.3866328 3.878319,-4.3848248 5.388672,-6.2675812 1.323567,1.0650476 2.409011,2.1040864 3.191406,3.5585974 0.999496,1.8581081 1.700664,4.5228508 2.019531,8.9335928 0.07183,0.993559 0.660058,1.920749 1.326172,2.46875 0.666115,0.548001 1.380441,0.905154 2.234375,1.396484 1.707869,0.98266 4.039974,2.422473 7.13086,5.791016 4.054214,4.418407 5.968008,7.510148 6.732422,9.960937 0.764413,2.45079 0.492973,4.364703 -0.142579,6.902344 -0.319258,1.274741 0.02279,2.378767 0.439454,3.726563 0.416666,1.347795 1.021641,2.860423 1.675781,4.419922 1.30828,3.118997 1.976224,5.478134 0.862787,10.158768 0,0 1.954287,0.01634 3.39422,-1.176472 1.439934,-1.192813 1.562919,-2.675365 1.562919,-2.675365 -0.668004,-2.443787 -1.772107,-4.414934 -3.052348,-7.467086 -0.64012,-1.526075 -1.215657,-2.980323 -1.576172,-4.146484 -0.360515,-1.166161 -0.393593,-2.122872 -0.396484,-2.111328 0.678946,-2.710912 1.067147,-5.417101 0.09766,-8.525391 -0.969491,-3.10829 -3.18288,-6.51423 -7.386719,-11.095703 -3.319106,-3.61726 -6.049572,-5.327882 -7.845707,-6.361328 C 51.192911,17.620945 50.547227,17.255123 50.266759,17.024387 49.986292,16.793651 50.043244,16.886512 50.026525,16.655246 49.691312,12.018406 48.943744,8.9079789 47.657384,6.5165742 46.371024,4.1251678 44.574837,2.5738898 42.516759,1.0634466 Z"
       id="path12873"
       sodipodi:nodetypes="ccsccscsssssssssczcsscsssssscc" /></g></svg>
