<?xml version="1.0" encoding="UTF-8"?>
<!DOCTYPE svg PUBLIC "-//W3C//DTD SVG 1.1//EN" "http://www.w3.org/Graphics/SVG/1.1/DTD/svg11.dtd">
<svg version="1.2" width="254mm" height="127mm" viewBox="0 0 25400 12700" preserveAspectRatio="xMidYMid" fill-rule="evenodd" stroke-width="28.222" stroke-linejoin="round" xmlns="http://www.w3.org/2000/svg" xmlns:ooo="http://xml.openoffice.org/svg/export" xmlns:xlink="http://www.w3.org/1999/xlink" xmlns:presentation="http://sun.com/xmlns/staroffice/presentation" xmlns:smil="http://www.w3.org/2001/SMIL20/" xmlns:anim="urn:oasis:names:tc:opendocument:xmlns:animation:1.0" xml:space="preserve">
 <defs class="ClipPathGroup">
  <clipPath id="presentation_clip_path" clipPathUnits="userSpaceOnUse">
   <rect x="0" y="0" width="25400" height="12700"/>
  </clipPath>
  <clipPath id="presentation_clip_path_shrink" clipPathUnits="userSpaceOnUse">
   <rect x="25" y="12" width="25350" height="12675"/>
  </clipPath>
 </defs>
 <defs class="TextShapeIndex">
  <g ooo:slide="id1" ooo:id-list="id3 id4 id5 id6 id7 id8 id9 id10 id11 id12 id13 id14 id15 id16 id17 id18 id19"/>
 </defs>
 <defs class="EmbeddedBulletChars">
  <g id="bullet-char-template-57356" transform="scale(0.00048828125,-0.00048828125)">
   <path d="M 580,1141 L 1163,571 580,0 -4,571 580,1141 Z"/>
  </g>
  <g id="bullet-char-template-57354" transform="scale(0.00048828125,-0.00048828125)">
   <path d="M 8,1128 L 1137,1128 1137,0 8,0 8,1128 Z"/>
  </g>
  <g id="bullet-char-template-10146" transform="scale(0.00048828125,-0.00048828125)">
   <path d="M 174,0 L 602,739 174,1481 1456,739 174,0 Z M 1358,739 L 309,1346 659,739 1358,739 Z"/>
  </g>
  <g id="bullet-char-template-10132" transform="scale(0.00048828125,-0.00048828125)">
   <path d="M 2015,739 L 1276,0 717,0 1260,543 174,543 174,936 1260,936 717,1481 1274,1481 2015,739 Z"/>
  </g>
  <g id="bullet-char-template-10007" transform="scale(0.00048828125,-0.00048828125)">
   <path d="M 0,-2 C -7,14 -16,27 -25,37 L 356,567 C 262,823 215,952 215,954 215,979 228,992 255,992 264,992 276,990 289,987 310,991 331,999 354,1012 L 381,999 492,748 772,1049 836,1024 860,1049 C 881,1039 901,1025 922,1006 886,937 835,863 770,784 769,783 710,716 594,584 L 774,223 C 774,196 753,168 711,139 L 727,119 C 717,90 699,76 672,76 641,76 570,178 457,381 L 164,-76 C 142,-110 111,-127 72,-127 30,-127 9,-110 8,-76 1,-67 -2,-52 -2,-32 -2,-23 -1,-13 0,-2 Z"/>
  </g>
  <g id="bullet-char-template-10004" transform="scale(0.00048828125,-0.00048828125)">
   <path d="M 285,-33 C 182,-33 111,30 74,156 52,228 41,333 41,471 41,549 55,616 82,672 116,743 169,778 240,778 293,778 328,747 346,684 L 369,508 C 377,444 397,411 428,410 L 1163,1116 C 1174,1127 1196,1133 1229,1133 1271,1133 1292,1118 1292,1087 L 1292,965 C 1292,929 1282,901 1262,881 L 442,47 C 390,-6 338,-33 285,-33 Z"/>
  </g>
  <g id="bullet-char-template-9679" transform="scale(0.00048828125,-0.00048828125)">
   <path d="M 813,0 C 632,0 489,54 383,161 276,268 223,411 223,592 223,773 276,916 383,1023 489,1130 632,1184 813,1184 992,1184 1136,1130 1245,1023 1353,916 1407,772 1407,592 1407,412 1353,268 1245,161 1136,54 992,0 813,0 Z"/>
  </g>
  <g id="bullet-char-template-8226" transform="scale(0.00048828125,-0.00048828125)">
   <path d="M 346,457 C 273,457 209,483 155,535 101,586 74,649 74,723 74,796 101,859 155,911 209,963 273,989 346,989 419,989 480,963 531,910 582,859 608,796 608,723 608,648 583,586 532,535 482,483 420,457 346,457 Z"/>
  </g>
  <g id="bullet-char-template-8211" transform="scale(0.00048828125,-0.00048828125)">
   <path d="M -4,459 L 1135,459 1135,606 -4,606 -4,459 Z"/>
  </g>
  <g id="bullet-char-template-61548" transform="scale(0.00048828125,-0.00048828125)">
   <path d="M 173,740 C 173,903 231,1043 346,1159 462,1274 601,1332 765,1332 928,1332 1067,1274 1183,1159 1299,1043 1357,903 1357,740 1357,577 1299,437 1183,322 1067,206 928,148 765,148 601,148 462,206 346,322 231,437 173,577 173,740 Z"/>
  </g>
 </defs>
 <g>
  <g id="id2" class="Master_Slide">
   <g id="bg-id2" class="Background"/>
   <g id="bo-id2" class="BackgroundObjects"/>
  </g>
 </g>
 <g class="SlideGroup">
  <g>
   <g id="container-id1">
    <g id="id1" class="Slide" clip-path="url(#presentation_clip_path)">
     <g class="Page">
      <g class="com.sun.star.drawing.CustomShape">
       <g id="id3">
        <rect class="BoundingBox" stroke="none" fill="none" x="6348" y="1270" width="4322" height="5082"/>
        <g>
         <defs>
          <linearGradient id="gradient1" x1="6868" y1="969" x2="10149" y2="6651" gradientUnits="userSpaceOnUse">
           <stop offset="0" style="stop-color:rgb(255,255,0)"/>
           <stop offset="1" style="stop-color:rgb(0,169,51)"/>
          </linearGradient>
         </defs>
         <path style="fill:url(#gradient1)" d="M 10668,3810 L 6349,6351 6349,1270 10668,3810 Z"/>
        </g>
       </g>
      </g>
      <g class="com.sun.star.drawing.CustomShape">
       <g id="id4">
        <rect class="BoundingBox" stroke="none" fill="none" x="2039" y="1269" width="4314" height="5082"/>
        <g>
         <defs>
          <linearGradient id="gradient2" x1="2556" y1="970" x2="5835" y2="6649" gradientUnits="userSpaceOnUse">
           <stop offset="0" style="stop-color:rgb(255,255,0)"/>
           <stop offset="1" style="stop-color:rgb(0,169,51)"/>
          </linearGradient>
         </defs>
         <path style="fill:url(#gradient2)" d="M 2040,3810 L 6351,1269 6351,6350 2040,3810 Z"/>
        </g>
       </g>
      </g>
      <g class="com.sun.star.drawing.CustomShape">
       <g id="id5">
        <rect class="BoundingBox" stroke="none" fill="none" x="2031" y="3810" width="4320" height="5082"/>
        <g>
         <defs>
          <linearGradient id="gradient3" x1="2550" y1="3509" x2="5831" y2="9191" gradientUnits="userSpaceOnUse">
           <stop offset="0" style="stop-color:rgb(255,255,0)"/>
           <stop offset="1" style="stop-color:rgb(255,0,0)"/>
          </linearGradient>
         </defs>
         <path style="fill:url(#gradient3)" d="M 6350,6350 L 2031,8891 2031,3810 6350,6350 Z"/>
        </g>
       </g>
      </g>
      <g class="com.sun.star.drawing.CustomShape">
       <g id="id6">
        <rect class="BoundingBox" stroke="none" fill="none" x="6349" y="3809" width="4321" height="5082"/>
        <g>
         <defs>
          <linearGradient id="gradient4" x1="6869" y1="3508" x2="10150" y2="9190" gradientUnits="userSpaceOnUse">
           <stop offset="0" style="stop-color:rgb(42,96,153)"/>
           <stop offset="1" style="stop-color:rgb(85,48,141)"/>
          </linearGradient>
         </defs>
         <path style="fill:url(#gradient4)" d="M 6350,6350 L 10669,3809 10669,8890 6350,6350 Z"/>
        </g>
       </g>
      </g>
      <g class="com.sun.star.drawing.CustomShape">
       <g id="id7">
        <rect class="BoundingBox" stroke="none" fill="none" x="2039" y="6348" width="4313" height="5083"/>
        <g>
         <defs>
          <linearGradient id="gradient5" x1="2556" y1="6050" x2="5835" y2="11729" gradientUnits="userSpaceOnUse">
           <stop offset="0" style="stop-color:rgb(255,255,0)"/>
           <stop offset="1" style="stop-color:rgb(255,0,0)"/>
          </linearGradient>
         </defs>
         <path style="fill:url(#gradient5)" d="M 2040,8890 L 6351,6349 6351,11430 2040,8890 Z"/>
        </g>
       </g>
      </g>
      <g class="com.sun.star.drawing.CustomShape">
       <g id="id8">
        <rect class="BoundingBox" stroke="none" fill="none" x="6348" y="6350" width="4313" height="5082"/>
        <g>
         <defs>
          <linearGradient id="gradient6" x1="6865" y1="6051" x2="10144" y2="11730" gradientUnits="userSpaceOnUse">
           <stop offset="0" style="stop-color:rgb(42,96,153)"/>
           <stop offset="1" style="stop-color:rgb(85,48,141)"/>
          </linearGradient>
         </defs>
         <path style="fill:url(#gradient6)" d="M 10660,8890 L 6349,11431 6349,6350 10660,8890 Z"/>
        </g>
       </g>
      </g>
      <g class="com.sun.star.drawing.CustomShape">
       <g id="id9">
        <rect class="BoundingBox" stroke="none" fill="none" x="4445" y="3810" width="3812" height="2542"/>
        <path fill="rgb(129,212,26)" stroke="none" d="M 6350,3810 L 8256,5080 6350,6351 4445,5080 6350,3810 6350,3810 Z"/>
       </g>
      </g>
      <g class="com.sun.star.drawing.CustomShape">
       <g id="id10">
        <rect class="BoundingBox" stroke="none" fill="none" x="4190" y="3811" width="4321" height="2542"/>
        <g>
         <defs>
          <linearGradient id="gradient7" x1="5260" y1="3193" x2="7441" y2="6970" gradientUnits="userSpaceOnUse">
           <stop offset="0" style="stop-color:rgb(255,255,0)"/>
           <stop offset="1" style="stop-color:rgb(0,169,51)"/>
          </linearGradient>
         </defs>
         <path style="fill:url(#gradient7)" d="M 6350,3811 L 8510,5081 6350,6352 4191,5081 6350,3811 6350,3811 Z"/>
        </g>
       </g>
      </g>
      <g class="com.sun.star.drawing.CustomShape">
       <g id="id11">
        <rect class="BoundingBox" stroke="none" fill="none" x="4189" y="5077" width="2162" height="3813"/>
        <g>
         <defs>
          <linearGradient id="gradient8" x1="4175" y1="5086" x2="6366" y2="8880" gradientUnits="userSpaceOnUse">
           <stop offset="0" style="stop-color:rgb(255,255,0)"/>
           <stop offset="1" style="stop-color:rgb(255,0,0)"/>
          </linearGradient>
         </defs>
         <path style="fill:url(#gradient8)" d="M 4190,7615 L 4190,5078 6350,6353 6350,8889 4190,7615 Z"/>
        </g>
       </g>
      </g>
      <g class="com.sun.star.drawing.CustomShape">
       <g id="id12">
        <rect class="BoundingBox" stroke="none" fill="none" x="6349" y="5078" width="2161" height="3813"/>
        <g>
         <defs>
          <linearGradient id="gradient9" x1="6334" y1="5087" x2="8525" y2="8881" gradientUnits="userSpaceOnUse">
           <stop offset="0" style="stop-color:rgb(42,96,153)"/>
           <stop offset="1" style="stop-color:rgb(128,0,128)"/>
          </linearGradient>
         </defs>
         <path style="fill:url(#gradient9)" d="M 8509,7616 L 8509,5079 6349,6354 6349,8890 8509,7616 Z"/>
        </g>
       </g>
      </g>
      <g class="Group">
       <g class="com.sun.star.drawing.ClosedBezierShape">
        <g id="id13">
         <rect class="BoundingBox" stroke="none" fill="none" x="11430" y="3810" width="13971" height="5081"/>
        </g>
       </g>
       <g class="com.sun.star.drawing.ClosedBezierShape">
        <g id="id14">
         <rect class="BoundingBox" stroke="none" fill="none" x="12044" y="4959" width="2224" height="2964"/>
         <path fill="rgb(128,0,128)" stroke="none" d="M 13479,6695 C 13524,6751 13581,6825 13650,6917 13720,7008 13791,7110 13864,7222 13938,7333 14010,7449 14082,7571 14154,7692 14216,7809 14266,7922 L 13818,7922 C 13761,7815 13700,7706 13634,7596 13567,7486 13500,7381 13432,7281 13365,7181 13298,7087 13231,6999 13165,6912 13105,6836 13051,6771 13015,6774 12977,6775 12939,6775 12901,6775 12862,6775 12823,6775 L 12455,6775 12455,7922 12044,7922 12044,5031 C 12160,5003 12289,4984 12431,4974 12574,4964 12704,4959 12823,4959 13235,4959 13549,5037 13765,5192 13981,5347 14089,5579 14089,5886 14089,6081 14037,6247 13934,6386 13831,6524 13679,6627 13479,6695 Z M 12857,5319 C 12682,5319 12548,5323 12455,5332 L 12455,6436 12747,6436 C 12888,6436 13015,6429 13128,6415 13241,6401 13336,6374 13413,6335 13491,6295 13551,6240 13593,6168 13636,6096 13657,6000 13657,5882 13657,5772 13636,5680 13593,5607 13551,5533 13494,5476 13422,5433 13350,5391 13265,5361 13168,5344 13071,5327 12967,5319 12857,5319 Z"/>
        </g>
       </g>
       <g class="com.sun.star.drawing.ClosedBezierShape">
        <g id="id15">
         <rect class="BoundingBox" stroke="none" fill="none" x="14525" y="5666" width="1716" height="2304"/>
         <path fill="rgb(128,0,128)" stroke="none" d="M 15427,7638 C 15520,7638 15602,7636 15674,7632 15746,7628 15806,7620 15854,7609 L 15854,6953 C 15826,6939 15780,6927 15717,6917 15653,6907 15576,6902 15486,6902 15427,6902 15364,6906 15298,6915 15231,6923 15171,6941 15116,6968 15061,6994 15015,7031 14978,7078 14941,7124 14923,7186 14923,7262 14923,7403 14968,7501 15058,7556 15149,7611 15271,7638 15427,7638 Z M 15393,5666 C 15551,5666 15684,5686 15793,5727 15901,5768 15989,5826 16055,5901 16122,5976 16169,6065 16197,6168 16225,6271 16239,6384 16239,6508 L 16239,7884 C 16206,7890 16158,7897 16098,7907 16037,7917 15968,7926 15892,7935 15816,7943 15734,7951 15645,7958 15556,7965 15468,7968 15380,7969 15256,7968 15142,7956 15037,7930 14933,7905 14843,7865 14766,7810 14690,7755 14631,7682 14589,7592 14546,7502 14525,7393 14525,7266 14525,7145 14550,7040 14599,6953 14648,6865 14716,6795 14800,6741 14885,6688 14984,6648 15096,6623 15209,6597 15328,6585 15452,6585 15492,6585 15532,6587 15575,6591 15617,6595 15657,6601 15695,6608 15734,6615 15767,6621 15795,6627 15823,6633 15843,6637 15854,6640 L 15854,6530 C 15854,6465 15847,6400 15833,6337 15819,6273 15794,6217 15757,6168 15720,6118 15670,6079 15607,6049 15543,6019 15461,6005 15359,6005 15229,6005 15116,6014 15018,6032 14921,6050 14848,6070 14800,6089 L 14754,5763 C 14804,5741 14889,5719 15008,5698 15126,5677 15255,5666 15393,5666 Z"/>
        </g>
       </g>
       <g class="com.sun.star.drawing.ClosedBezierShape">
        <g id="id16">
         <rect class="BoundingBox" stroke="none" fill="none" x="16722" y="5666" width="1555" height="2308"/>
         <path fill="rgb(128,0,128)" stroke="none" d="M 17404,7639 C 17565,7639 17684,7617 17762,7575 17839,7533 17878,7465 17878,7372 17878,7276 17840,7200 17764,7143 17687,7087 17562,7023 17387,6953 17302,6919 17221,6884 17144,6849 17066,6814 16999,6772 16942,6724 16886,6676 16841,6618 16807,6551 16773,6483 16756,6400 16756,6301 16756,6106 16828,5952 16972,5837 17116,5723 17312,5666 17560,5666 17623,5666 17685,5670 17747,5677 17809,5684 17867,5692 17920,5702 17974,5712 18021,5722 18062,5734 18103,5745 18135,5755 18157,5763 L 18085,6102 C 18043,6079 17977,6056 17886,6032 17796,6008 17687,5996 17560,5996 17450,5996 17354,6018 17273,6062 17191,6105 17150,6174 17150,6267 17150,6315 17159,6357 17177,6394 17196,6431 17224,6464 17262,6494 17300,6523 17347,6551 17404,6576 17460,6601 17528,6628 17607,6657 17711,6696 17805,6735 17886,6773 17968,6811 18038,6855 18096,6906 18154,6957 18198,7018 18229,7090 18260,7162 18276,7251 18276,7355 18276,7558 18200,7712 18049,7816 17898,7921 17683,7973 17404,7973 17209,7973 17057,7957 16947,7924 16837,7892 16762,7867 16722,7850 L 16794,7512 C 16839,7529 16911,7554 17010,7588 17109,7622 17240,7639 17404,7639 Z"/>
        </g>
       </g>
       <g class="com.sun.star.drawing.ClosedBezierShape">
        <g id="id17">
         <rect class="BoundingBox" stroke="none" fill="none" x="18754" y="5040" width="1314" height="2930"/>
         <path fill="rgb(128,0,128)" stroke="none" d="M 19148,5722 L 19982,5722 19982,6052 19148,6052 19148,7068 C 19148,7178 19156,7269 19173,7341 19190,7412 19216,7469 19250,7510 19283,7551 19326,7580 19376,7597 19427,7613 19487,7622 19554,7622 19673,7622 19768,7609 19840,7582 19912,7555 19962,7536 19990,7525 L 20066,7850 C 20027,7870 19958,7895 19859,7925 19760,7954 19647,7969 19520,7969 19371,7969 19247,7950 19150,7912 19053,7874 18974,7817 18915,7740 18856,7664 18814,7570 18790,7459 18766,7348 18754,7218 18754,7072 L 18754,5108 19148,5040 19148,5722 Z"/>
        </g>
       </g>
       <g class="com.sun.star.drawing.ClosedBezierShape">
        <g id="id18">
         <rect class="BoundingBox" stroke="none" fill="none" x="20315" y="5666" width="1924" height="2308"/>
         <path fill="rgb(128,0,128)" stroke="none" d="M 20316,6826 C 20316,6631 20344,6461 20401,6316 20457,6170 20532,6050 20625,5954 20718,5858 20825,5786 20947,5738 21068,5690 21192,5666 21319,5666 21615,5666 21843,5758 22001,5943 22159,6128 22238,6410 22238,6788 22238,6805 22238,6827 22238,6853 22238,6880 22236,6905 22233,6927 L 20726,6927 C 20743,7156 20810,7330 20925,7448 21041,7567 21222,7626 21467,7626 21606,7626 21722,7614 21816,7590 21911,7566 21982,7543 22030,7520 L 22085,7850 C 22037,7876 21953,7902 21833,7931 21713,7959 21577,7973 21425,7973 21233,7973 21067,7944 20928,7886 20788,7828 20673,7749 20583,7647 20492,7545 20425,7425 20382,7285 20338,7145 20316,6992 20316,6826 Z M 21827,6610 C 21830,6432 21785,6286 21694,6172 21602,6058 21476,6000 21315,6000 21225,6000 21145,6018 21076,6053 21007,6089 20948,6134 20900,6191 20852,6247 20815,6312 20788,6386 20761,6459 20743,6534 20735,6610 L 21827,6610 Z"/>
        </g>
       </g>
       <g class="com.sun.star.drawing.ClosedBezierShape">
        <g id="id19">
         <rect class="BoundingBox" stroke="none" fill="none" x="22805" y="5674" width="1255" height="2249"/>
         <path fill="rgb(128,0,128)" stroke="none" d="M 23618,5674 C 23652,5674 23691,5676 23735,5681 23779,5685 23822,5690 23864,5697 23906,5704 23945,5712 23980,5719 24016,5726 24042,5732 24059,5738 L 23991,6080 C 23960,6069 23908,6056 23836,6040 23764,6025 23672,6017 23559,6017 23486,6017 23413,6025 23341,6040 23269,6056 23222,6066 23199,6072 L 23199,7921 22806,7921 22806,5814 C 22899,5780 23014,5748 23153,5719 23291,5689 23446,5674 23618,5674 Z"/>
        </g>
       </g>
      </g>
     </g>
    </g>
   </g>
  </g>
 </g>
</svg>