<?xml version="1.0" encoding="UTF-8"?>
<!DOCTYPE svg PUBLIC "-//W3C//DTD SVG 1.1//EN" "http://www.w3.org/Graphics/SVG/1.1/DTD/svg11.dtd">
<svg version="1.2" width="381mm" height="127mm" viewBox="0 0 38100 12700" preserveAspectRatio="xMidYMid" fill-rule="evenodd" stroke-width="28.222" stroke-linejoin="round" xmlns="http://www.w3.org/2000/svg" xmlns:ooo="http://xml.openoffice.org/svg/export" xmlns:xlink="http://www.w3.org/1999/xlink" xmlns:presentation="http://sun.com/xmlns/staroffice/presentation" xmlns:smil="http://www.w3.org/2001/SMIL20/" xmlns:anim="urn:oasis:names:tc:opendocument:xmlns:animation:1.0" xml:space="preserve">
 <defs class="ClipPathGroup">
  <clipPath id="presentation_clip_path" clipPathUnits="userSpaceOnUse">
   <rect x="0" y="0" width="38100" height="12700"/>
  </clipPath>
  <clipPath id="presentation_clip_path_shrink" clipPathUnits="userSpaceOnUse">
   <rect x="38" y="12" width="38024" height="12675"/>
  </clipPath>
 </defs>
 <defs class="TextShapeIndex">
  <g ooo:slide="id1" ooo:id-list="id3 id4 id5 id6 id7 id8 id9 id10 id11 id12 id13 id14 id15 id16 id17 id18 id19 id20 id21 id22 id23"/>
 </defs>
 <defs class="EmbeddedBulletChars">
  <g id="bullet-char-template-57356" transform="scale(0.00048828125,-0.00048828125)">
   <path d="M 580,1141 L 1163,571 580,0 -4,571 580,1141 Z"/>
  </g>
  <g id="bullet-char-template-57354" transform="scale(0.00048828125,-0.00048828125)">
   <path d="M 8,1128 L 1137,1128 1137,0 8,0 8,1128 Z"/>
  </g>
  <g id="bullet-char-template-10146" transform="scale(0.00048828125,-0.00048828125)">
   <path d="M 174,0 L 602,739 174,1481 1456,739 174,0 Z M 1358,739 L 309,1346 659,739 1358,739 Z"/>
  </g>
  <g id="bullet-char-template-10132" transform="scale(0.00048828125,-0.00048828125)">
   <path d="M 2015,739 L 1276,0 717,0 1260,543 174,543 174,936 1260,936 717,1481 1274,1481 2015,739 Z"/>
  </g>
  <g id="bullet-char-template-10007" transform="scale(0.00048828125,-0.00048828125)">
   <path d="M 0,-2 C -7,14 -16,27 -25,37 L 356,567 C 262,823 215,952 215,954 215,979 228,992 255,992 264,992 276,990 289,987 310,991 331,999 354,1012 L 381,999 492,748 772,1049 836,1024 860,1049 C 881,1039 901,1025 922,1006 886,937 835,863 770,784 769,783 710,716 594,584 L 774,223 C 774,196 753,168 711,139 L 727,119 C 717,90 699,76 672,76 641,76 570,178 457,381 L 164,-76 C 142,-110 111,-127 72,-127 30,-127 9,-110 8,-76 1,-67 -2,-52 -2,-32 -2,-23 -1,-13 0,-2 Z"/>
  </g>
  <g id="bullet-char-template-10004" transform="scale(0.00048828125,-0.00048828125)">
   <path d="M 285,-33 C 182,-33 111,30 74,156 52,228 41,333 41,471 41,549 55,616 82,672 116,743 169,778 240,778 293,778 328,747 346,684 L 369,508 C 377,444 397,411 428,410 L 1163,1116 C 1174,1127 1196,1133 1229,1133 1271,1133 1292,1118 1292,1087 L 1292,965 C 1292,929 1282,901 1262,881 L 442,47 C 390,-6 338,-33 285,-33 Z"/>
  </g>
  <g id="bullet-char-template-9679" transform="scale(0.00048828125,-0.00048828125)">
   <path d="M 813,0 C 632,0 489,54 383,161 276,268 223,411 223,592 223,773 276,916 383,1023 489,1130 632,1184 813,1184 992,1184 1136,1130 1245,1023 1353,916 1407,772 1407,592 1407,412 1353,268 1245,161 1136,54 992,0 813,0 Z"/>
  </g>
  <g id="bullet-char-template-8226" transform="scale(0.00048828125,-0.00048828125)">
   <path d="M 346,457 C 273,457 209,483 155,535 101,586 74,649 74,723 74,796 101,859 155,911 209,963 273,989 346,989 419,989 480,963 531,910 582,859 608,796 608,723 608,648 583,586 532,535 482,483 420,457 346,457 Z"/>
  </g>
  <g id="bullet-char-template-8211" transform="scale(0.00048828125,-0.00048828125)">
   <path d="M -4,459 L 1135,459 1135,606 -4,606 -4,459 Z"/>
  </g>
  <g id="bullet-char-template-61548" transform="scale(0.00048828125,-0.00048828125)">
   <path d="M 173,740 C 173,903 231,1043 346,1159 462,1274 601,1332 765,1332 928,1332 1067,1274 1183,1159 1299,1043 1357,903 1357,740 1357,577 1299,437 1183,322 1067,206 928,148 765,148 601,148 462,206 346,322 231,437 173,577 173,740 Z"/>
  </g>
 </defs>
 <g>
  <g id="id2" class="Master_Slide">
   <g id="bg-id2" class="Background"/>
   <g id="bo-id2" class="BackgroundObjects"/>
  </g>
 </g>
 <g class="SlideGroup">
  <g>
   <g id="container-id1">
    <g id="id1" class="Slide" clip-path="url(#presentation_clip_path)">
     <g class="Page">
      <g class="com.sun.star.drawing.CustomShape">
       <g id="id3">
        <rect class="BoundingBox" stroke="none" fill="none" x="6348" y="1270" width="4322" height="5082"/>
        <g>
         <defs>
          <linearGradient id="gradient1" x1="6868" y1="969" x2="10149" y2="6651" gradientUnits="userSpaceOnUse">
           <stop offset="0" style="stop-color:rgb(255,255,0)"/>
           <stop offset="1" style="stop-color:rgb(0,169,51)"/>
          </linearGradient>
         </defs>
         <path style="fill:url(#gradient1)" d="M 10668,3810 L 6349,6351 6349,1270 10668,3810 Z"/>
        </g>
       </g>
      </g>
      <g class="com.sun.star.drawing.CustomShape">
       <g id="id4">
        <rect class="BoundingBox" stroke="none" fill="none" x="2039" y="1269" width="4314" height="5082"/>
        <g>
         <defs>
          <linearGradient id="gradient2" x1="2556" y1="970" x2="5835" y2="6649" gradientUnits="userSpaceOnUse">
           <stop offset="0" style="stop-color:rgb(255,255,0)"/>
           <stop offset="1" style="stop-color:rgb(0,169,51)"/>
          </linearGradient>
         </defs>
         <path style="fill:url(#gradient2)" d="M 2040,3810 L 6351,1269 6351,6350 2040,3810 Z"/>
        </g>
       </g>
      </g>
      <g class="com.sun.star.drawing.CustomShape">
       <g id="id5">
        <rect class="BoundingBox" stroke="none" fill="none" x="2031" y="3810" width="4320" height="5082"/>
        <g>
         <defs>
          <linearGradient id="gradient3" x1="2550" y1="3509" x2="5831" y2="9191" gradientUnits="userSpaceOnUse">
           <stop offset="0" style="stop-color:rgb(255,255,0)"/>
           <stop offset="1" style="stop-color:rgb(255,0,0)"/>
          </linearGradient>
         </defs>
         <path style="fill:url(#gradient3)" d="M 6350,6350 L 2031,8891 2031,3810 6350,6350 Z"/>
        </g>
       </g>
      </g>
      <g class="com.sun.star.drawing.CustomShape">
       <g id="id6">
        <rect class="BoundingBox" stroke="none" fill="none" x="6349" y="3809" width="4321" height="5082"/>
        <g>
         <defs>
          <linearGradient id="gradient4" x1="6869" y1="3508" x2="10150" y2="9190" gradientUnits="userSpaceOnUse">
           <stop offset="0" style="stop-color:rgb(42,96,153)"/>
           <stop offset="1" style="stop-color:rgb(85,48,141)"/>
          </linearGradient>
         </defs>
         <path style="fill:url(#gradient4)" d="M 6350,6350 L 10669,3809 10669,8890 6350,6350 Z"/>
        </g>
       </g>
      </g>
      <g class="com.sun.star.drawing.CustomShape">
       <g id="id7">
        <rect class="BoundingBox" stroke="none" fill="none" x="2039" y="6348" width="4313" height="5083"/>
        <g>
         <defs>
          <linearGradient id="gradient5" x1="2556" y1="6050" x2="5835" y2="11729" gradientUnits="userSpaceOnUse">
           <stop offset="0" style="stop-color:rgb(255,255,0)"/>
           <stop offset="1" style="stop-color:rgb(255,0,0)"/>
          </linearGradient>
         </defs>
         <path style="fill:url(#gradient5)" d="M 2040,8890 L 6351,6349 6351,11430 2040,8890 Z"/>
        </g>
       </g>
      </g>
      <g class="com.sun.star.drawing.CustomShape">
       <g id="id8">
        <rect class="BoundingBox" stroke="none" fill="none" x="6348" y="6350" width="4313" height="5082"/>
        <g>
         <defs>
          <linearGradient id="gradient6" x1="6865" y1="6051" x2="10144" y2="11730" gradientUnits="userSpaceOnUse">
           <stop offset="0" style="stop-color:rgb(42,96,153)"/>
           <stop offset="1" style="stop-color:rgb(85,48,141)"/>
          </linearGradient>
         </defs>
         <path style="fill:url(#gradient6)" d="M 10660,8890 L 6349,11431 6349,6350 10660,8890 Z"/>
        </g>
       </g>
      </g>
      <g class="com.sun.star.drawing.CustomShape">
       <g id="id9">
        <rect class="BoundingBox" stroke="none" fill="none" x="4445" y="3810" width="3812" height="2542"/>
        <path fill="rgb(129,212,26)" stroke="none" d="M 6350,3810 L 8256,5080 6350,6351 4445,5080 6350,3810 6350,3810 Z"/>
       </g>
      </g>
      <g class="com.sun.star.drawing.CustomShape">
       <g id="id10">
        <rect class="BoundingBox" stroke="none" fill="none" x="4190" y="3811" width="4321" height="2542"/>
        <g>
         <defs>
          <linearGradient id="gradient7" x1="5260" y1="3193" x2="7441" y2="6970" gradientUnits="userSpaceOnUse">
           <stop offset="0" style="stop-color:rgb(255,255,0)"/>
           <stop offset="1" style="stop-color:rgb(0,169,51)"/>
          </linearGradient>
         </defs>
         <path style="fill:url(#gradient7)" d="M 6350,3811 L 8510,5081 6350,6352 4191,5081 6350,3811 6350,3811 Z"/>
        </g>
       </g>
      </g>
      <g class="com.sun.star.drawing.CustomShape">
       <g id="id11">
        <rect class="BoundingBox" stroke="none" fill="none" x="4189" y="5077" width="2162" height="3813"/>
        <g>
         <defs>
          <linearGradient id="gradient8" x1="4175" y1="5086" x2="6366" y2="8880" gradientUnits="userSpaceOnUse">
           <stop offset="0" style="stop-color:rgb(255,255,0)"/>
           <stop offset="1" style="stop-color:rgb(255,0,0)"/>
          </linearGradient>
         </defs>
         <path style="fill:url(#gradient8)" d="M 4190,7615 L 4190,5078 6350,6353 6350,8889 4190,7615 Z"/>
        </g>
       </g>
      </g>
      <g class="com.sun.star.drawing.CustomShape">
       <g id="id12">
        <rect class="BoundingBox" stroke="none" fill="none" x="6347" y="5078" width="2161" height="3813"/>
        <g>
         <defs>
          <linearGradient id="gradient9" x1="6332" y1="5087" x2="8523" y2="8881" gradientUnits="userSpaceOnUse">
           <stop offset="0" style="stop-color:rgb(42,96,153)"/>
           <stop offset="1" style="stop-color:rgb(128,0,128)"/>
          </linearGradient>
         </defs>
         <path style="fill:url(#gradient9)" d="M 8507,7616 L 8507,5079 6347,6354 6347,8890 8507,7616 Z"/>
        </g>
       </g>
      </g>
      <g class="Group">
       <g class="Group">
        <g class="com.sun.star.drawing.ClosedBezierShape">
         <g id="id13">
          <rect class="BoundingBox" stroke="none" fill="none" x="11925" y="4894" width="2275" height="3066"/>
          <path fill="rgb(128,0,128)" stroke="none" d="M 13305,7959 C 13099,7959 12912,7925 12742,7857 12573,7790 12428,7691 12306,7561 12185,7431 12091,7271 12025,7081 11959,6890 11926,6672 11926,6427 11926,6181 11963,5963 12038,5773 12112,5582 12213,5422 12340,5292 12467,5162 12615,5064 12785,4996 12954,4928 13135,4894 13327,4894 13448,4894 13557,4903 13655,4920 13752,4937 13837,4956 13909,4979 13981,5001 14039,5024 14084,5047 14130,5069 14161,5086 14177,5097 L 14059,5436 C 14034,5419 13997,5401 13949,5381 13901,5361 13847,5341 13786,5322 13725,5302 13659,5286 13587,5273 13515,5260 13442,5254 13369,5254 13214,5254 13074,5281 12950,5334 12826,5388 12720,5466 12632,5567 12545,5669 12478,5792 12431,5938 12385,6083 12362,6246 12362,6427 12362,6602 12382,6761 12423,6905 12464,7049 12525,7172 12607,7275 12689,7378 12791,7458 12914,7515 13037,7571 13180,7599 13344,7599 13533,7599 13689,7579 13813,7540 13938,7500 14031,7465 14093,7434 L 14199,7773 C 14179,7787 14144,7805 14093,7826 14042,7847 13979,7867 13902,7887 13826,7907 13737,7924 13636,7938 13534,7952 13424,7959 13305,7959 Z"/>
         </g>
        </g>
        <g class="com.sun.star.drawing.ClosedBezierShape">
         <g id="id14">
          <rect class="BoundingBox" stroke="none" fill="none" x="14643" y="5648" width="1780" height="2249"/>
          <path fill="rgb(128,0,128)" stroke="none" d="M 14644,5759 C 14734,5736 14854,5712 15003,5687 15153,5661 15325,5649 15520,5649 15695,5649 15840,5673 15956,5723 16072,5772 16164,5841 16233,5930 16302,6019 16351,6125 16379,6250 16407,6374 16422,6511 16422,6660 L 16422,7896 16028,7896 16028,6745 C 16028,6609 16019,6494 16000,6398 15982,6302 15952,6224 15909,6165 15867,6106 15811,6063 15740,6036 15669,6009 15582,5996 15478,5996 15435,5996 15391,5997 15346,6000 15301,6003 15258,6006 15217,6010 15176,6015 15140,6020 15107,6025 15075,6031 15051,6035 15037,6038 L 15037,7896 14644,7896 14644,5759 Z"/>
         </g>
        </g>
        <g class="com.sun.star.drawing.ClosedBezierShape">
         <g id="id15">
          <rect class="BoundingBox" stroke="none" fill="none" x="16950" y="5639" width="1924" height="2309"/>
          <path fill="rgb(128,0,128)" stroke="none" d="M 16951,6800 C 16951,6605 16979,6435 17036,6290 17092,6144 17167,6024 17260,5928 17353,5832 17460,5760 17582,5712 17703,5664 17827,5640 17954,5640 18250,5640 18478,5732 18636,5917 18794,6102 18873,6384 18873,6762 18873,6779 18873,6801 18873,6827 18873,6854 18871,6879 18868,6901 L 17361,6901 C 17378,7130 17445,7304 17560,7422 17676,7541 17857,7600 18102,7600 18241,7600 18357,7588 18451,7564 18546,7540 18617,7517 18665,7494 L 18720,7824 C 18672,7850 18588,7876 18468,7905 18348,7933 18212,7947 18060,7947 17868,7947 17702,7918 17563,7860 17423,7802 17308,7723 17218,7621 17127,7519 17060,7399 17017,7259 16973,7119 16951,6966 16951,6800 Z M 18462,6584 C 18465,6406 18420,6260 18329,6146 18237,6032 18111,5974 17950,5974 17860,5974 17780,5992 17711,6027 17642,6063 17583,6108 17535,6165 17487,6221 17450,6286 17423,6360 17396,6433 17378,6508 17370,6584 L 18462,6584 Z"/>
         </g>
        </g>
        <g class="com.sun.star.drawing.ClosedBezierShape">
         <g id="id16">
          <rect class="BoundingBox" stroke="none" fill="none" x="19270" y="5639" width="1555" height="2309"/>
          <path fill="rgb(128,0,128)" stroke="none" d="M 19952,7613 C 20113,7613 20232,7591 20310,7549 20387,7507 20426,7439 20426,7346 20426,7250 20388,7174 20312,7117 20235,7061 20110,6997 19935,6927 19850,6893 19769,6858 19692,6823 19614,6788 19547,6746 19490,6698 19434,6650 19389,6592 19355,6525 19321,6457 19304,6374 19304,6275 19304,6080 19376,5926 19520,5811 19664,5697 19860,5640 20108,5640 20171,5640 20233,5644 20295,5651 20357,5658 20415,5666 20468,5676 20522,5686 20569,5696 20610,5708 20651,5719 20683,5729 20705,5737 L 20633,6076 C 20591,6053 20525,6030 20434,6006 20344,5982 20235,5970 20108,5970 19998,5970 19902,5992 19821,6036 19739,6079 19698,6148 19698,6241 19698,6289 19707,6331 19725,6368 19744,6405 19772,6438 19810,6468 19848,6497 19895,6525 19952,6550 20008,6575 20076,6602 20155,6630 20259,6670 20353,6709 20434,6747 20516,6785 20586,6829 20644,6880 20702,6931 20746,6992 20777,7064 20808,7136 20824,7225 20824,7329 20824,7532 20748,7686 20597,7790 20446,7895 20231,7947 19952,7947 19757,7947 19605,7931 19495,7898 19385,7866 19310,7841 19270,7824 L 19342,7486 C 19387,7503 19459,7528 19558,7562 19657,7596 19788,7613 19952,7613 Z"/>
         </g>
        </g>
        <g class="com.sun.star.drawing.ClosedBezierShape">
         <g id="id17">
          <rect class="BoundingBox" stroke="none" fill="none" x="21226" y="7383" width="569" height="569"/>
          <path fill="rgb(128,0,128)" stroke="none" d="M 21793,7667 C 21793,7744 21768,7810 21717,7866 21666,7923 21597,7951 21510,7951 21422,7951 21353,7923 21302,7866 21251,7810 21226,7744 21226,7667 21226,7591 21251,7525 21302,7468 21353,7412 21422,7384 21510,7384 21597,7384 21666,7412 21717,7468 21768,7525 21793,7591 21793,7667 Z"/>
         </g>
        </g>
        <g class="com.sun.star.drawing.ClosedBezierShape">
         <g id="id18">
          <rect class="BoundingBox" stroke="none" fill="none" x="22395" y="4933" width="2224" height="2964"/>
          <path fill="rgb(128,0,128)" stroke="none" d="M 23830,6669 C 23875,6725 23932,6799 24001,6891 24071,6982 24142,7084 24215,7196 24289,7307 24361,7423 24433,7545 24505,7666 24567,7783 24617,7896 L 24169,7896 C 24112,7789 24051,7680 23985,7570 23918,7460 23851,7355 23783,7255 23716,7155 23649,7061 23582,6973 23516,6886 23456,6810 23402,6745 23366,6748 23328,6749 23290,6749 23252,6749 23213,6749 23174,6749 L 22806,6749 22806,7896 22395,7896 22395,5005 C 22511,4977 22640,4958 22782,4948 22925,4938 23055,4933 23174,4933 23586,4933 23900,5011 24116,5166 24332,5321 24440,5553 24440,5860 24440,6055 24388,6221 24285,6360 24182,6498 24030,6601 23830,6669 Z M 23208,5293 C 23033,5293 22899,5297 22806,5306 L 22806,6410 23098,6410 C 23239,6410 23366,6403 23479,6389 23592,6375 23687,6348 23764,6309 23842,6269 23902,6214 23944,6142 23987,6070 24008,5974 24008,5856 24008,5746 23987,5654 23944,5581 23902,5507 23845,5450 23773,5407 23701,5365 23616,5335 23519,5318 23422,5301 23318,5293 23208,5293 Z"/>
         </g>
        </g>
        <g class="com.sun.star.drawing.ClosedBezierShape">
         <g id="id19">
          <rect class="BoundingBox" stroke="none" fill="none" x="24875" y="5640" width="1716" height="2304"/>
          <path fill="rgb(128,0,128)" stroke="none" d="M 25777,7612 C 25870,7612 25952,7610 26024,7606 26096,7602 26156,7594 26204,7583 L 26204,6927 C 26176,6913 26130,6901 26067,6891 26003,6881 25926,6876 25836,6876 25777,6876 25714,6880 25648,6889 25581,6897 25521,6915 25466,6942 25411,6968 25365,7005 25328,7052 25291,7098 25273,7160 25273,7236 25273,7377 25318,7475 25408,7530 25499,7585 25621,7612 25777,7612 Z M 25743,5640 C 25901,5640 26034,5660 26143,5701 26251,5742 26339,5800 26405,5875 26472,5950 26519,6039 26547,6142 26575,6245 26589,6358 26589,6482 L 26589,7858 C 26556,7864 26508,7871 26448,7881 26387,7891 26318,7900 26242,7909 26166,7917 26084,7925 25995,7932 25906,7939 25818,7942 25730,7943 25606,7942 25492,7930 25387,7904 25283,7879 25193,7839 25116,7784 25040,7729 24981,7656 24939,7566 24896,7476 24875,7367 24875,7240 24875,7119 24900,7014 24949,6927 24998,6839 25065,6769 25150,6715 25235,6662 25334,6622 25446,6597 25559,6571 25678,6559 25802,6559 25842,6559 25882,6561 25925,6565 25967,6569 26007,6575 26045,6582 26084,6589 26117,6595 26145,6601 26173,6607 26193,6611 26204,6614 L 26204,6504 C 26204,6439 26197,6374 26183,6311 26169,6247 26144,6191 26107,6142 26070,6092 26020,6053 25957,6023 25893,5993 25811,5979 25709,5979 25579,5979 25466,5988 25368,6006 25271,6024 25198,6044 25150,6063 L 25104,5737 C 25154,5715 25239,5693 25358,5672 25476,5651 25604,5640 25743,5640 Z"/>
         </g>
        </g>
        <g class="com.sun.star.drawing.ClosedBezierShape">
         <g id="id20">
          <rect class="BoundingBox" stroke="none" fill="none" x="27072" y="5639" width="1555" height="2309"/>
          <path fill="rgb(128,0,128)" stroke="none" d="M 27754,7613 C 27915,7613 28034,7591 28112,7549 28189,7507 28228,7439 28228,7346 28228,7250 28190,7174 28114,7117 28037,7061 27912,6997 27737,6927 27652,6893 27571,6858 27494,6823 27416,6788 27349,6746 27292,6698 27236,6650 27191,6592 27157,6525 27123,6457 27106,6374 27106,6275 27106,6080 27178,5926 27322,5811 27466,5697 27662,5640 27910,5640 27973,5640 28035,5644 28097,5651 28159,5658 28217,5666 28270,5676 28324,5686 28371,5696 28412,5708 28453,5719 28485,5729 28507,5737 L 28435,6076 C 28393,6053 28327,6030 28236,6006 28146,5982 28037,5970 27910,5970 27800,5970 27704,5992 27623,6036 27541,6079 27500,6148 27500,6241 27500,6289 27509,6331 27527,6368 27546,6405 27574,6438 27612,6468 27650,6497 27697,6525 27754,6550 27810,6575 27878,6602 27957,6630 28061,6670 28155,6709 28236,6747 28318,6785 28388,6829 28446,6880 28504,6931 28548,6992 28579,7064 28610,7136 28626,7225 28626,7329 28626,7532 28550,7686 28399,7790 28248,7895 28033,7947 27754,7947 27559,7947 27407,7931 27297,7898 27187,7866 27112,7841 27072,7824 L 27144,7486 C 27189,7503 27261,7528 27360,7562 27459,7596 27590,7613 27754,7613 Z"/>
         </g>
        </g>
        <g class="com.sun.star.drawing.ClosedBezierShape">
         <g id="id21">
          <rect class="BoundingBox" stroke="none" fill="none" x="29104" y="5014" width="1314" height="2930"/>
          <path fill="rgb(128,0,128)" stroke="none" d="M 29498,5696 L 30332,5696 30332,6026 29498,6026 29498,7042 C 29498,7152 29506,7243 29523,7315 29540,7386 29566,7443 29599,7484 29633,7525 29676,7554 29726,7571 29777,7587 29837,7596 29904,7596 30023,7596 30118,7583 30190,7556 30262,7529 30312,7510 30340,7499 L 30416,7824 C 30377,7844 30308,7869 30209,7899 30110,7928 29997,7943 29870,7943 29721,7943 29597,7924 29500,7886 29403,7848 29324,7791 29265,7714 29206,7638 29164,7544 29140,7433 29116,7322 29104,7193 29104,7046 L 29104,5082 29498,5014 29498,5696 Z"/>
         </g>
        </g>
        <g class="com.sun.star.drawing.ClosedBezierShape">
         <g id="id22">
          <rect class="BoundingBox" stroke="none" fill="none" x="30666" y="5639" width="1924" height="2309"/>
          <path fill="rgb(128,0,128)" stroke="none" d="M 30667,6800 C 30667,6605 30695,6435 30752,6290 30808,6144 30883,6024 30976,5928 31069,5832 31176,5760 31298,5712 31419,5664 31543,5640 31670,5640 31966,5640 32194,5732 32352,5917 32510,6102 32589,6384 32589,6762 32589,6779 32589,6801 32589,6827 32589,6854 32587,6879 32584,6901 L 31077,6901 C 31094,7130 31161,7304 31276,7422 31392,7541 31573,7600 31818,7600 31957,7600 32073,7588 32167,7564 32262,7540 32333,7517 32381,7494 L 32436,7824 C 32388,7850 32304,7876 32184,7905 32064,7933 31928,7947 31776,7947 31584,7947 31418,7918 31279,7860 31139,7802 31024,7723 30934,7621 30843,7519 30776,7399 30733,7259 30689,7119 30667,6966 30667,6800 Z M 32178,6584 C 32181,6406 32136,6260 32045,6146 31953,6032 31827,5974 31666,5974 31576,5974 31496,5992 31427,6027 31358,6063 31299,6108 31251,6165 31203,6221 31166,6286 31139,6360 31112,6433 31094,6508 31086,6584 L 32178,6584 Z"/>
         </g>
        </g>
        <g class="com.sun.star.drawing.ClosedBezierShape">
         <g id="id23">
          <rect class="BoundingBox" stroke="none" fill="none" x="33155" y="5648" width="1255" height="2249"/>
          <path fill="rgb(128,0,128)" stroke="none" d="M 33968,5648 C 34002,5648 34041,5650 34085,5655 34129,5659 34172,5664 34214,5671 34256,5678 34295,5686 34330,5693 34366,5700 34392,5706 34409,5712 L 34341,6054 C 34310,6043 34258,6030 34186,6014 34114,5999 34022,5991 33909,5991 33836,5991 33763,5999 33691,6014 33619,6030 33572,6040 33549,6046 L 33549,7895 33156,7895 33156,5788 C 33249,5754 33364,5722 33503,5693 33641,5663 33796,5648 33968,5648 Z"/>
         </g>
        </g>
       </g>
      </g>
     </g>
    </g>
   </g>
  </g>
 </g>
</svg>