<?xml version="1.0" encoding="UTF-8"?>
<!DOCTYPE svg PUBLIC "-//W3C//DTD SVG 1.1//EN" "http://www.w3.org/Graphics/SVG/1.1/DTD/svg11.dtd">
<svg version="1.2" width="127mm" height="127mm" viewBox="0 0 12700 12700" preserveAspectRatio="xMidYMid" fill-rule="evenodd" stroke-width="28.222" stroke-linejoin="round" xmlns="http://www.w3.org/2000/svg" xmlns:ooo="http://xml.openoffice.org/svg/export" xmlns:xlink="http://www.w3.org/1999/xlink" xmlns:presentation="http://sun.com/xmlns/staroffice/presentation" xmlns:smil="http://www.w3.org/2001/SMIL20/" xmlns:anim="urn:oasis:names:tc:opendocument:xmlns:animation:1.0" xml:space="preserve">
 <defs class="ClipPathGroup">
  <clipPath id="presentation_clip_path" clipPathUnits="userSpaceOnUse">
   <rect x="0" y="0" width="12700" height="12700"/>
  </clipPath>
  <clipPath id="presentation_clip_path_shrink" clipPathUnits="userSpaceOnUse">
   <rect x="12" y="12" width="12675" height="12675"/>
  </clipPath>
 </defs>
 <defs class="TextShapeIndex">
  <g ooo:slide="id1" ooo:id-list="id3 id4 id5 id6 id7 id8 id9 id10 id11 id12"/>
 </defs>
 <defs class="EmbeddedBulletChars">
  <g id="bullet-char-template-57356" transform="scale(0.00048828125,-0.00048828125)">
   <path d="M 580,1141 L 1163,571 580,0 -4,571 580,1141 Z"/>
  </g>
  <g id="bullet-char-template-57354" transform="scale(0.00048828125,-0.00048828125)">
   <path d="M 8,1128 L 1137,1128 1137,0 8,0 8,1128 Z"/>
  </g>
  <g id="bullet-char-template-10146" transform="scale(0.00048828125,-0.00048828125)">
   <path d="M 174,0 L 602,739 174,1481 1456,739 174,0 Z M 1358,739 L 309,1346 659,739 1358,739 Z"/>
  </g>
  <g id="bullet-char-template-10132" transform="scale(0.00048828125,-0.00048828125)">
   <path d="M 2015,739 L 1276,0 717,0 1260,543 174,543 174,936 1260,936 717,1481 1274,1481 2015,739 Z"/>
  </g>
  <g id="bullet-char-template-10007" transform="scale(0.00048828125,-0.00048828125)">
   <path d="M 0,-2 C -7,14 -16,27 -25,37 L 356,567 C 262,823 215,952 215,954 215,979 228,992 255,992 264,992 276,990 289,987 310,991 331,999 354,1012 L 381,999 492,748 772,1049 836,1024 860,1049 C 881,1039 901,1025 922,1006 886,937 835,863 770,784 769,783 710,716 594,584 L 774,223 C 774,196 753,168 711,139 L 727,119 C 717,90 699,76 672,76 641,76 570,178 457,381 L 164,-76 C 142,-110 111,-127 72,-127 30,-127 9,-110 8,-76 1,-67 -2,-52 -2,-32 -2,-23 -1,-13 0,-2 Z"/>
  </g>
  <g id="bullet-char-template-10004" transform="scale(0.00048828125,-0.00048828125)">
   <path d="M 285,-33 C 182,-33 111,30 74,156 52,228 41,333 41,471 41,549 55,616 82,672 116,743 169,778 240,778 293,778 328,747 346,684 L 369,508 C 377,444 397,411 428,410 L 1163,1116 C 1174,1127 1196,1133 1229,1133 1271,1133 1292,1118 1292,1087 L 1292,965 C 1292,929 1282,901 1262,881 L 442,47 C 390,-6 338,-33 285,-33 Z"/>
  </g>
  <g id="bullet-char-template-9679" transform="scale(0.00048828125,-0.00048828125)">
   <path d="M 813,0 C 632,0 489,54 383,161 276,268 223,411 223,592 223,773 276,916 383,1023 489,1130 632,1184 813,1184 992,1184 1136,1130 1245,1023 1353,916 1407,772 1407,592 1407,412 1353,268 1245,161 1136,54 992,0 813,0 Z"/>
  </g>
  <g id="bullet-char-template-8226" transform="scale(0.00048828125,-0.00048828125)">
   <path d="M 346,457 C 273,457 209,483 155,535 101,586 74,649 74,723 74,796 101,859 155,911 209,963 273,989 346,989 419,989 480,963 531,910 582,859 608,796 608,723 608,648 583,586 532,535 482,483 420,457 346,457 Z"/>
  </g>
  <g id="bullet-char-template-8211" transform="scale(0.00048828125,-0.00048828125)">
   <path d="M -4,459 L 1135,459 1135,606 -4,606 -4,459 Z"/>
  </g>
  <g id="bullet-char-template-61548" transform="scale(0.00048828125,-0.00048828125)">
   <path d="M 173,740 C 173,903 231,1043 346,1159 462,1274 601,1332 765,1332 928,1332 1067,1274 1183,1159 1299,1043 1357,903 1357,740 1357,577 1299,437 1183,322 1067,206 928,148 765,148 601,148 462,206 346,322 231,437 173,577 173,740 Z"/>
  </g>
 </defs>
 <g>
  <g id="id2" class="Master_Slide">
   <g id="bg-id2" class="Background"/>
   <g id="bo-id2" class="BackgroundObjects"/>
  </g>
 </g>
 <g class="SlideGroup">
  <g>
   <g id="container-id1">
    <g id="id1" class="Slide" clip-path="url(#presentation_clip_path)">
     <g class="Page">
      <g class="com.sun.star.drawing.CustomShape">
       <g id="id3">
        <rect class="BoundingBox" stroke="none" fill="none" x="6348" y="1270" width="4322" height="5082"/>
        <g>
         <defs>
          <linearGradient id="gradient1" x1="6868" y1="969" x2="10149" y2="6651" gradientUnits="userSpaceOnUse">
           <stop offset="0" style="stop-color:rgb(255,255,0)"/>
           <stop offset="1" style="stop-color:rgb(0,169,51)"/>
          </linearGradient>
         </defs>
         <path style="fill:url(#gradient1)" d="M 10668,3810 L 6349,6351 6349,1270 10668,3810 Z"/>
        </g>
       </g>
      </g>
      <g class="com.sun.star.drawing.CustomShape">
       <g id="id4">
        <rect class="BoundingBox" stroke="none" fill="none" x="2039" y="1269" width="4314" height="5082"/>
        <g>
         <defs>
          <linearGradient id="gradient2" x1="2556" y1="970" x2="5835" y2="6649" gradientUnits="userSpaceOnUse">
           <stop offset="0" style="stop-color:rgb(255,255,0)"/>
           <stop offset="1" style="stop-color:rgb(0,169,51)"/>
          </linearGradient>
         </defs>
         <path style="fill:url(#gradient2)" d="M 2040,3810 L 6351,1269 6351,6350 2040,3810 Z"/>
        </g>
       </g>
      </g>
      <g class="com.sun.star.drawing.CustomShape">
       <g id="id5">
        <rect class="BoundingBox" stroke="none" fill="none" x="2031" y="3810" width="4320" height="5082"/>
        <g>
         <defs>
          <linearGradient id="gradient3" x1="2550" y1="3509" x2="5831" y2="9191" gradientUnits="userSpaceOnUse">
           <stop offset="0" style="stop-color:rgb(255,255,0)"/>
           <stop offset="1" style="stop-color:rgb(255,0,0)"/>
          </linearGradient>
         </defs>
         <path style="fill:url(#gradient3)" d="M 6350,6350 L 2031,8891 2031,3810 6350,6350 Z"/>
        </g>
       </g>
      </g>
      <g class="com.sun.star.drawing.CustomShape">
       <g id="id6">
        <rect class="BoundingBox" stroke="none" fill="none" x="6349" y="3809" width="4321" height="5082"/>
        <g>
         <defs>
          <linearGradient id="gradient4" x1="6869" y1="3508" x2="10150" y2="9190" gradientUnits="userSpaceOnUse">
           <stop offset="0" style="stop-color:rgb(42,96,153)"/>
           <stop offset="1" style="stop-color:rgb(85,48,141)"/>
          </linearGradient>
         </defs>
         <path style="fill:url(#gradient4)" d="M 6350,6350 L 10669,3809 10669,8890 6350,6350 Z"/>
        </g>
       </g>
      </g>
      <g class="com.sun.star.drawing.CustomShape">
       <g id="id7">
        <rect class="BoundingBox" stroke="none" fill="none" x="2039" y="6348" width="4313" height="5083"/>
        <g>
         <defs>
          <linearGradient id="gradient5" x1="2556" y1="6050" x2="5835" y2="11729" gradientUnits="userSpaceOnUse">
           <stop offset="0" style="stop-color:rgb(255,255,0)"/>
           <stop offset="1" style="stop-color:rgb(255,0,0)"/>
          </linearGradient>
         </defs>
         <path style="fill:url(#gradient5)" d="M 2040,8890 L 6351,6349 6351,11430 2040,8890 Z"/>
        </g>
       </g>
      </g>
      <g class="com.sun.star.drawing.CustomShape">
       <g id="id8">
        <rect class="BoundingBox" stroke="none" fill="none" x="6348" y="6350" width="4313" height="5082"/>
        <g>
         <defs>
          <linearGradient id="gradient6" x1="6865" y1="6051" x2="10144" y2="11730" gradientUnits="userSpaceOnUse">
           <stop offset="0" style="stop-color:rgb(42,96,153)"/>
           <stop offset="1" style="stop-color:rgb(85,48,141)"/>
          </linearGradient>
         </defs>
         <path style="fill:url(#gradient6)" d="M 10660,8890 L 6349,11431 6349,6350 10660,8890 Z"/>
        </g>
       </g>
      </g>
      <g class="com.sun.star.drawing.CustomShape">
       <g id="id9">
        <rect class="BoundingBox" stroke="none" fill="none" x="4445" y="3810" width="3812" height="2542"/>
        <path fill="rgb(129,212,26)" stroke="none" d="M 6350,3810 L 8256,5080 6350,6351 4445,5080 6350,3810 6350,3810 Z"/>
       </g>
      </g>
      <g class="com.sun.star.drawing.CustomShape">
       <g id="id10">
        <rect class="BoundingBox" stroke="none" fill="none" x="4190" y="3811" width="4321" height="2542"/>
        <g>
         <defs>
          <linearGradient id="gradient7" x1="5260" y1="3193" x2="7441" y2="6970" gradientUnits="userSpaceOnUse">
           <stop offset="0" style="stop-color:rgb(255,255,0)"/>
           <stop offset="1" style="stop-color:rgb(0,169,51)"/>
          </linearGradient>
         </defs>
         <path style="fill:url(#gradient7)" d="M 6350,3811 L 8510,5081 6350,6352 4191,5081 6350,3811 6350,3811 Z"/>
        </g>
       </g>
      </g>
      <g class="com.sun.star.drawing.CustomShape">
       <g id="id11">
        <rect class="BoundingBox" stroke="none" fill="none" x="4189" y="5077" width="2162" height="3813"/>
        <g>
         <defs>
          <linearGradient id="gradient8" x1="4175" y1="5086" x2="6366" y2="8880" gradientUnits="userSpaceOnUse">
           <stop offset="0" style="stop-color:rgb(255,255,0)"/>
           <stop offset="1" style="stop-color:rgb(255,0,0)"/>
          </linearGradient>
         </defs>
         <path style="fill:url(#gradient8)" d="M 4190,7615 L 4190,5078 6350,6353 6350,8889 4190,7615 Z"/>
        </g>
       </g>
      </g>
      <g class="com.sun.star.drawing.CustomShape">
       <g id="id12">
        <rect class="BoundingBox" stroke="none" fill="none" x="6349" y="5078" width="2161" height="3813"/>
        <g>
         <defs>
          <linearGradient id="gradient9" x1="6334" y1="5087" x2="8525" y2="8881" gradientUnits="userSpaceOnUse">
           <stop offset="0" style="stop-color:rgb(42,96,153)"/>
           <stop offset="1" style="stop-color:rgb(128,0,128)"/>
          </linearGradient>
         </defs>
         <path style="fill:url(#gradient9)" d="M 8509,7616 L 8509,5079 6349,6354 6349,8890 8509,7616 Z"/>
        </g>
       </g>
      </g>
     </g>
    </g>
   </g>
  </g>
 </g>
</svg>